G04 #@! TF.GenerationSoftware,KiCad,Pcbnew,(5.0.0-3-g5ebb6b6)*
G04 #@! TF.CreationDate,2019-01-04T13:26:37+03:00*
G04 #@! TF.ProjectId,uad,7561642E6B696361645F706362000000,rev?*
G04 #@! TF.SameCoordinates,Original*
G04 #@! TF.FileFunction,Soldermask,Bot*
G04 #@! TF.FilePolarity,Negative*
%FSLAX46Y46*%
G04 Gerber Fmt 4.6, Leading zero omitted, Abs format (unit mm)*
G04 Created by KiCad (PCBNEW (5.0.0-3-g5ebb6b6)) date *
%MOMM*%
%LPD*%
G01*
G04 APERTURE LIST*
%ADD10C,0.100000*%
G04 APERTURE END LIST*
D10*
G36*
X145829250Y-138942189D02*
X146502607Y-139221102D01*
X147108613Y-139626022D01*
X147623978Y-140141387D01*
X147693851Y-140245959D01*
X147694185Y-140246460D01*
X147756366Y-140322229D01*
X147832134Y-140384410D01*
X147918577Y-140430615D01*
X148012374Y-140459068D01*
X148109919Y-140468676D01*
X148117803Y-140467900D01*
X148091795Y-140516557D01*
X148063342Y-140610354D01*
X148053735Y-140707899D01*
X148063342Y-140805444D01*
X148091795Y-140899240D01*
X148307811Y-141420750D01*
X148450000Y-142135582D01*
X148450000Y-142864418D01*
X148307811Y-143579250D01*
X148028898Y-144252607D01*
X147623978Y-144858613D01*
X147108613Y-145373978D01*
X146502607Y-145778898D01*
X145829250Y-146057811D01*
X145114418Y-146200000D01*
X144385582Y-146200000D01*
X143670750Y-146057811D01*
X142997393Y-145778898D01*
X142391387Y-145373978D01*
X141876022Y-144858613D01*
X141471102Y-144252607D01*
X141192189Y-143579250D01*
X141050000Y-142864418D01*
X141050000Y-142135582D01*
X141192189Y-141420750D01*
X141408205Y-140899240D01*
X141436658Y-140805444D01*
X141446265Y-140707899D01*
X141436658Y-140610353D01*
X141408205Y-140516557D01*
X141382197Y-140467900D01*
X141390081Y-140468676D01*
X141487626Y-140459068D01*
X141581423Y-140430615D01*
X141667866Y-140384410D01*
X141743634Y-140322229D01*
X141805815Y-140246460D01*
X141806150Y-140245959D01*
X141876022Y-140141387D01*
X142391387Y-139626022D01*
X142997393Y-139221102D01*
X143670750Y-138942189D01*
X144385582Y-138800000D01*
X145114418Y-138800000D01*
X145829250Y-138942189D01*
X145829250Y-138942189D01*
G37*
G36*
X149960925Y-138318446D02*
X150100030Y-138346116D01*
X150318413Y-138436573D01*
X150514958Y-138567900D01*
X150682100Y-138735042D01*
X150813427Y-138931587D01*
X150903884Y-139149970D01*
X150918033Y-139221102D01*
X150950000Y-139381810D01*
X150950000Y-139618190D01*
X150931554Y-139710925D01*
X150903884Y-139850030D01*
X150813427Y-140068413D01*
X150682100Y-140264958D01*
X150514958Y-140432100D01*
X150318413Y-140563427D01*
X150100030Y-140653884D01*
X149960925Y-140681554D01*
X149868190Y-140700000D01*
X149631810Y-140700000D01*
X149539075Y-140681554D01*
X149399970Y-140653884D01*
X149181587Y-140563427D01*
X148985042Y-140432100D01*
X148907288Y-140354346D01*
X148831520Y-140292164D01*
X148745077Y-140245959D01*
X148651280Y-140217506D01*
X148553735Y-140207899D01*
X148545851Y-140208675D01*
X148571859Y-140160019D01*
X148600312Y-140066222D01*
X148609920Y-139968677D01*
X148600313Y-139871132D01*
X148550000Y-139618189D01*
X148550000Y-139381812D01*
X148596116Y-139149970D01*
X148686573Y-138931587D01*
X148817900Y-138735042D01*
X148985042Y-138567900D01*
X149181587Y-138436573D01*
X149399970Y-138346116D01*
X149539075Y-138318446D01*
X149631810Y-138300000D01*
X149868190Y-138300000D01*
X149960925Y-138318446D01*
X149960925Y-138318446D01*
G37*
G36*
X139960925Y-138318446D02*
X140100030Y-138346116D01*
X140318413Y-138436573D01*
X140514958Y-138567900D01*
X140682100Y-138735042D01*
X140813427Y-138931587D01*
X140903884Y-139149970D01*
X140950000Y-139381812D01*
X140950000Y-139618189D01*
X140899687Y-139871132D01*
X140890080Y-139968677D01*
X140899688Y-140066222D01*
X140928141Y-140160019D01*
X140954149Y-140208675D01*
X140946265Y-140207899D01*
X140848719Y-140217506D01*
X140754923Y-140245959D01*
X140668480Y-140292164D01*
X140592712Y-140354346D01*
X140514958Y-140432100D01*
X140318413Y-140563427D01*
X140100030Y-140653884D01*
X139960925Y-140681554D01*
X139868190Y-140700000D01*
X139631810Y-140700000D01*
X139539075Y-140681554D01*
X139399970Y-140653884D01*
X139181587Y-140563427D01*
X138985042Y-140432100D01*
X138817900Y-140264958D01*
X138686573Y-140068413D01*
X138596116Y-139850030D01*
X138568446Y-139710925D01*
X138550000Y-139618190D01*
X138550000Y-139381810D01*
X138581967Y-139221102D01*
X138596116Y-139149970D01*
X138686573Y-138931587D01*
X138817900Y-138735042D01*
X138985042Y-138567900D01*
X139181587Y-138436573D01*
X139399970Y-138346116D01*
X139539075Y-138318446D01*
X139631810Y-138300000D01*
X139868190Y-138300000D01*
X139960925Y-138318446D01*
X139960925Y-138318446D01*
G37*
G36*
X85205835Y-130715193D02*
X85403761Y-130775233D01*
X85586171Y-130872733D01*
X85672810Y-130943836D01*
X85754303Y-130998287D01*
X85844859Y-131035796D01*
X85940993Y-131054918D01*
X86039010Y-131054918D01*
X86135143Y-131035796D01*
X86225699Y-130998286D01*
X86307198Y-130943831D01*
X86376506Y-130874522D01*
X86430961Y-130793023D01*
X86468470Y-130702467D01*
X86468836Y-130700000D01*
X91130000Y-130700000D01*
X91130000Y-136800000D01*
X86466703Y-136800000D01*
X86451940Y-136751332D01*
X86405735Y-136664889D01*
X86343553Y-136589121D01*
X86267785Y-136526939D01*
X86181342Y-136480734D01*
X86087545Y-136452281D01*
X85990000Y-136442674D01*
X85892455Y-136452281D01*
X85798658Y-136480734D01*
X85712215Y-136526939D01*
X85672812Y-136556162D01*
X85586171Y-136627267D01*
X85403762Y-136724767D01*
X85205836Y-136784807D01*
X85000000Y-136805080D01*
X84794165Y-136784807D01*
X84596239Y-136724767D01*
X84413830Y-136627267D01*
X84253947Y-136496054D01*
X84122734Y-136336171D01*
X84025234Y-136153762D01*
X83965194Y-135955836D01*
X83950001Y-135801578D01*
X83950000Y-131698423D01*
X83965193Y-131544165D01*
X84025233Y-131346239D01*
X84122733Y-131163829D01*
X84253946Y-131003946D01*
X84413829Y-130872733D01*
X84596238Y-130775233D01*
X84794164Y-130715193D01*
X85000000Y-130694920D01*
X85205835Y-130715193D01*
X85205835Y-130715193D01*
G37*
G36*
X100205835Y-130715193D02*
X100403761Y-130775233D01*
X100586171Y-130872733D01*
X100672810Y-130943836D01*
X100754303Y-130998287D01*
X100844859Y-131035796D01*
X100940993Y-131054918D01*
X101039010Y-131054918D01*
X101135143Y-131035796D01*
X101225699Y-130998286D01*
X101307198Y-130943831D01*
X101376506Y-130874522D01*
X101430961Y-130793023D01*
X101468470Y-130702467D01*
X101468836Y-130700000D01*
X106130000Y-130700000D01*
X106130000Y-136800000D01*
X101466703Y-136800000D01*
X101451940Y-136751332D01*
X101405735Y-136664889D01*
X101343553Y-136589121D01*
X101267785Y-136526939D01*
X101181342Y-136480734D01*
X101087545Y-136452281D01*
X100990000Y-136442674D01*
X100892455Y-136452281D01*
X100798658Y-136480734D01*
X100712215Y-136526939D01*
X100672812Y-136556162D01*
X100586171Y-136627267D01*
X100403762Y-136724767D01*
X100205836Y-136784807D01*
X100000000Y-136805080D01*
X99794165Y-136784807D01*
X99596239Y-136724767D01*
X99413830Y-136627267D01*
X99253947Y-136496054D01*
X99122734Y-136336171D01*
X99025234Y-136153762D01*
X98965194Y-135955836D01*
X98950001Y-135801578D01*
X98950000Y-131698423D01*
X98965193Y-131544165D01*
X99025233Y-131346239D01*
X99122733Y-131163829D01*
X99253946Y-131003946D01*
X99413829Y-130872733D01*
X99596238Y-130775233D01*
X99794164Y-130715193D01*
X100000000Y-130694920D01*
X100205835Y-130715193D01*
X100205835Y-130715193D01*
G37*
G36*
X149806274Y-134740350D02*
X149997362Y-134819502D01*
X150169336Y-134934411D01*
X150169337Y-134934412D01*
X150208014Y-134960255D01*
X150212215Y-134963703D01*
X150298658Y-135009908D01*
X150392455Y-135038361D01*
X150490000Y-135047968D01*
X150587545Y-135038361D01*
X150681342Y-135009908D01*
X150767785Y-134963703D01*
X150843553Y-134901521D01*
X150905735Y-134825753D01*
X150951940Y-134739310D01*
X150963865Y-134700000D01*
X155630000Y-134700000D01*
X155630000Y-136800000D01*
X150963865Y-136800000D01*
X150951940Y-136760690D01*
X150905735Y-136674247D01*
X150843553Y-136598479D01*
X150767785Y-136536297D01*
X150681342Y-136490092D01*
X150587545Y-136461639D01*
X150490000Y-136452032D01*
X150392455Y-136461639D01*
X150298658Y-136490092D01*
X150212215Y-136536297D01*
X150208014Y-136539745D01*
X150169337Y-136565588D01*
X150169336Y-136565589D01*
X149997362Y-136680498D01*
X149806274Y-136759650D01*
X149603416Y-136800000D01*
X149396584Y-136800000D01*
X149193726Y-136759650D01*
X149002638Y-136680498D01*
X148830664Y-136565589D01*
X148830662Y-136565587D01*
X148830659Y-136565585D01*
X148684415Y-136419341D01*
X148684413Y-136419338D01*
X148684411Y-136419336D01*
X148569502Y-136247362D01*
X148490350Y-136056274D01*
X148450000Y-135853416D01*
X148450000Y-135646584D01*
X148490350Y-135443726D01*
X148569502Y-135252638D01*
X148684411Y-135080664D01*
X148684413Y-135080662D01*
X148684415Y-135080659D01*
X148830659Y-134934415D01*
X148830662Y-134934413D01*
X148830664Y-134934411D01*
X149002638Y-134819502D01*
X149193726Y-134740350D01*
X149396584Y-134700000D01*
X149603416Y-134700000D01*
X149806274Y-134740350D01*
X149806274Y-134740350D01*
G37*
G36*
X134806274Y-134740350D02*
X134997362Y-134819502D01*
X135169336Y-134934411D01*
X135169337Y-134934412D01*
X135208014Y-134960255D01*
X135212215Y-134963703D01*
X135298658Y-135009908D01*
X135392455Y-135038361D01*
X135490000Y-135047968D01*
X135587545Y-135038361D01*
X135681342Y-135009908D01*
X135767785Y-134963703D01*
X135843553Y-134901521D01*
X135905735Y-134825753D01*
X135951940Y-134739310D01*
X135963865Y-134700000D01*
X140630000Y-134700000D01*
X140630000Y-136800000D01*
X135963865Y-136800000D01*
X135951940Y-136760690D01*
X135905735Y-136674247D01*
X135843553Y-136598479D01*
X135767785Y-136536297D01*
X135681342Y-136490092D01*
X135587545Y-136461639D01*
X135490000Y-136452032D01*
X135392455Y-136461639D01*
X135298658Y-136490092D01*
X135212215Y-136536297D01*
X135208014Y-136539745D01*
X135169337Y-136565588D01*
X135169336Y-136565589D01*
X134997362Y-136680498D01*
X134806274Y-136759650D01*
X134603416Y-136800000D01*
X134396584Y-136800000D01*
X134193726Y-136759650D01*
X134002638Y-136680498D01*
X133830664Y-136565589D01*
X133830662Y-136565587D01*
X133830659Y-136565585D01*
X133684415Y-136419341D01*
X133684413Y-136419338D01*
X133684411Y-136419336D01*
X133569502Y-136247362D01*
X133490350Y-136056274D01*
X133450000Y-135853416D01*
X133450000Y-135646584D01*
X133490350Y-135443726D01*
X133569502Y-135252638D01*
X133684411Y-135080664D01*
X133684413Y-135080662D01*
X133684415Y-135080659D01*
X133830659Y-134934415D01*
X133830662Y-134934413D01*
X133830664Y-134934411D01*
X134002638Y-134819502D01*
X134193726Y-134740350D01*
X134396584Y-134700000D01*
X134603416Y-134700000D01*
X134806274Y-134740350D01*
X134806274Y-134740350D01*
G37*
G36*
X111200000Y-136450000D02*
X109300000Y-136450000D01*
X109300000Y-133550000D01*
X111200000Y-133550000D01*
X111200000Y-136450000D01*
X111200000Y-136450000D01*
G37*
G36*
X81200000Y-136450000D02*
X79300000Y-136450000D01*
X79300000Y-133550000D01*
X81200000Y-133550000D01*
X81200000Y-136450000D01*
X81200000Y-136450000D01*
G37*
G36*
X96200000Y-136450000D02*
X94300000Y-136450000D01*
X94300000Y-133550000D01*
X96200000Y-133550000D01*
X96200000Y-136450000D01*
X96200000Y-136450000D01*
G37*
G36*
X162450000Y-132488428D02*
X162364246Y-132534265D01*
X162288478Y-132596447D01*
X162226296Y-132672215D01*
X162180091Y-132758658D01*
X162151638Y-132852455D01*
X162142031Y-132950000D01*
X162151638Y-133047545D01*
X162180091Y-133141342D01*
X162226296Y-133227785D01*
X162288478Y-133303553D01*
X163484925Y-134500000D01*
X162000000Y-135984925D01*
X160515075Y-134500000D01*
X161711522Y-133303553D01*
X161773704Y-133227785D01*
X161819909Y-133141342D01*
X161848362Y-133047545D01*
X161857969Y-132950000D01*
X161848362Y-132852455D01*
X161819909Y-132758658D01*
X161773704Y-132672215D01*
X161711522Y-132596447D01*
X161635754Y-132534265D01*
X161549311Y-132488060D01*
X161455514Y-132459607D01*
X161357969Y-132450000D01*
X160050000Y-132450000D01*
X160050000Y-130550000D01*
X162450000Y-130550000D01*
X162450000Y-132488428D01*
X162450000Y-132488428D01*
G37*
G36*
X134450000Y-132700000D02*
X132150000Y-132700000D01*
X132052455Y-132709607D01*
X131958658Y-132738060D01*
X131872215Y-132784265D01*
X131796447Y-132846447D01*
X131734265Y-132922215D01*
X131688060Y-133008658D01*
X131659607Y-133102455D01*
X131650000Y-133200000D01*
X131650000Y-134650000D01*
X127015563Y-134650000D01*
X127011940Y-134638058D01*
X126965735Y-134551615D01*
X126903553Y-134475847D01*
X126827785Y-134413665D01*
X126741342Y-134367460D01*
X126647545Y-134339007D01*
X126550000Y-134329400D01*
X126452455Y-134339007D01*
X126358658Y-134367460D01*
X126272216Y-134413664D01*
X126269338Y-134415587D01*
X126269336Y-134415589D01*
X126097362Y-134530498D01*
X125906274Y-134609650D01*
X125703416Y-134650000D01*
X125496584Y-134650000D01*
X125293726Y-134609650D01*
X125102638Y-134530498D01*
X124930664Y-134415589D01*
X124930662Y-134415587D01*
X124930659Y-134415585D01*
X124784415Y-134269341D01*
X124784413Y-134269338D01*
X124784411Y-134269336D01*
X124669502Y-134097362D01*
X124590350Y-133906274D01*
X124550000Y-133703416D01*
X124550000Y-133496584D01*
X124590350Y-133293726D01*
X124669502Y-133102638D01*
X124784411Y-132930664D01*
X124784413Y-132930662D01*
X124784415Y-132930659D01*
X124930659Y-132784415D01*
X124930662Y-132784413D01*
X124930664Y-132784411D01*
X125102638Y-132669502D01*
X125293726Y-132590350D01*
X125496584Y-132550000D01*
X125703416Y-132550000D01*
X125906274Y-132590350D01*
X126097362Y-132669502D01*
X126269336Y-132784411D01*
X126269338Y-132784413D01*
X126272216Y-132786336D01*
X126358660Y-132832540D01*
X126452456Y-132860993D01*
X126550002Y-132870600D01*
X126647547Y-132860992D01*
X126741343Y-132832539D01*
X126827786Y-132786334D01*
X126903554Y-132724152D01*
X126965736Y-132648384D01*
X127011940Y-132561940D01*
X127015562Y-132550000D01*
X132050000Y-132550000D01*
X132147545Y-132540393D01*
X132241342Y-132511940D01*
X132327785Y-132465735D01*
X132403553Y-132403553D01*
X132465735Y-132327785D01*
X132511940Y-132241342D01*
X132540393Y-132147545D01*
X132550000Y-132050000D01*
X132550000Y-129300000D01*
X134450000Y-129300000D01*
X134450000Y-132700000D01*
X134450000Y-132700000D01*
G37*
G36*
X137950000Y-132700000D02*
X136050000Y-132700000D01*
X136050000Y-129300000D01*
X137950000Y-129300000D01*
X137950000Y-132700000D01*
X137950000Y-132700000D01*
G37*
G36*
X152950000Y-132450000D02*
X150550000Y-132450000D01*
X150550000Y-130550000D01*
X152950000Y-130550000D01*
X152950000Y-132450000D01*
X152950000Y-132450000D01*
G37*
G36*
X146700000Y-132200000D02*
X143300000Y-132200000D01*
X143300000Y-130300000D01*
X146700000Y-130300000D01*
X146700000Y-132200000D01*
X146700000Y-132200000D01*
G37*
G36*
X167374012Y-130610913D02*
X165889087Y-132095838D01*
X164404162Y-130610913D01*
X165889087Y-129125988D01*
X167374012Y-130610913D01*
X167374012Y-130610913D01*
G37*
G36*
X125300000Y-129250000D02*
X125309607Y-129347545D01*
X125338060Y-129441342D01*
X125384265Y-129527785D01*
X125446447Y-129603553D01*
X125522215Y-129665735D01*
X125608658Y-129711940D01*
X125702455Y-129740393D01*
X125800000Y-129750000D01*
X126250000Y-129750000D01*
X126250000Y-131250000D01*
X123150000Y-131250000D01*
X123150000Y-129750000D01*
X123600000Y-129750000D01*
X123697545Y-129740393D01*
X123791342Y-129711940D01*
X123877785Y-129665735D01*
X123953553Y-129603553D01*
X124015735Y-129527785D01*
X124061940Y-129441342D01*
X124090393Y-129347545D01*
X124100000Y-129250000D01*
X124100000Y-127550000D01*
X125300000Y-127550000D01*
X125300000Y-129250000D01*
X125300000Y-129250000D01*
G37*
G36*
X131700000Y-128450000D02*
X128300000Y-128450000D01*
X128300000Y-126550000D01*
X131700000Y-126550000D01*
X131700000Y-128450000D01*
X131700000Y-128450000D01*
G37*
G36*
X146700000Y-127950000D02*
X143300000Y-127950000D01*
X143300000Y-126050000D01*
X146700000Y-126050000D01*
X146700000Y-127950000D01*
X146700000Y-127950000D01*
G37*
G36*
X152950000Y-127450000D02*
X150550000Y-127450000D01*
X150550000Y-125550000D01*
X152950000Y-125550000D01*
X152950000Y-127450000D01*
X152950000Y-127450000D01*
G37*
G36*
X162450000Y-127450000D02*
X160050000Y-127450000D01*
X160050000Y-125550000D01*
X160147545Y-125540393D01*
X160241342Y-125511940D01*
X160327785Y-125465735D01*
X160403553Y-125403553D01*
X160465735Y-125327785D01*
X160511940Y-125241342D01*
X160540393Y-125147545D01*
X160550000Y-125050000D01*
X160550000Y-121550000D01*
X162450000Y-121550000D01*
X162450000Y-127450000D01*
X162450000Y-127450000D01*
G37*
G36*
X169050000Y-113286135D02*
X169010690Y-113298060D01*
X168924247Y-113344265D01*
X168848479Y-113406447D01*
X168786297Y-113482215D01*
X168740092Y-113568658D01*
X168711639Y-113662455D01*
X168702032Y-113760000D01*
X168711639Y-113857545D01*
X168740092Y-113951342D01*
X168786297Y-114037785D01*
X168789745Y-114041986D01*
X168815588Y-114080663D01*
X168815589Y-114080664D01*
X168930498Y-114252638D01*
X169009650Y-114443726D01*
X169050000Y-114646584D01*
X169050000Y-114853416D01*
X169009650Y-115056274D01*
X168930498Y-115247362D01*
X168815589Y-115419336D01*
X168815587Y-115419338D01*
X168815585Y-115419341D01*
X168669341Y-115565585D01*
X168669338Y-115565587D01*
X168669336Y-115565589D01*
X168497362Y-115680498D01*
X168497358Y-115680500D01*
X168461792Y-115704264D01*
X168386024Y-115766446D01*
X168323842Y-115842214D01*
X168277637Y-115928657D01*
X168249184Y-116022453D01*
X168239576Y-116119999D01*
X168249183Y-116217544D01*
X168277636Y-116311340D01*
X168323840Y-116397784D01*
X168386022Y-116473552D01*
X168461790Y-116535734D01*
X168548233Y-116581939D01*
X168642029Y-116610392D01*
X168739576Y-116620000D01*
X169050000Y-116620000D01*
X169050000Y-121286135D01*
X169010690Y-121298060D01*
X168924247Y-121344265D01*
X168848479Y-121406447D01*
X168786297Y-121482215D01*
X168740092Y-121568658D01*
X168711639Y-121662455D01*
X168702032Y-121760000D01*
X168711639Y-121857545D01*
X168740092Y-121951342D01*
X168786297Y-122037785D01*
X168789745Y-122041986D01*
X168815588Y-122080663D01*
X168815589Y-122080664D01*
X168930498Y-122252638D01*
X169009650Y-122443726D01*
X169050000Y-122646584D01*
X169050000Y-122853416D01*
X169009650Y-123056274D01*
X168930498Y-123247362D01*
X168815589Y-123419336D01*
X168815587Y-123419338D01*
X168815585Y-123419341D01*
X168669341Y-123565585D01*
X168669338Y-123565587D01*
X168669336Y-123565589D01*
X168497362Y-123680498D01*
X168306274Y-123759650D01*
X168103416Y-123800000D01*
X167896584Y-123800000D01*
X167693726Y-123759650D01*
X167502638Y-123680498D01*
X167330664Y-123565589D01*
X167330662Y-123565587D01*
X167330659Y-123565585D01*
X167184415Y-123419341D01*
X167184413Y-123419338D01*
X167184411Y-123419336D01*
X167069502Y-123247362D01*
X166990350Y-123056274D01*
X166950000Y-122853416D01*
X166950000Y-122646584D01*
X166990350Y-122443726D01*
X167069502Y-122252638D01*
X167184411Y-122080664D01*
X167184412Y-122080663D01*
X167210255Y-122041986D01*
X167213703Y-122037785D01*
X167259908Y-121951342D01*
X167288361Y-121857545D01*
X167297968Y-121760000D01*
X167288361Y-121662455D01*
X167259908Y-121568658D01*
X167213703Y-121482215D01*
X167151521Y-121406447D01*
X167075753Y-121344265D01*
X166989310Y-121298060D01*
X166950000Y-121286135D01*
X166950000Y-116620000D01*
X167260424Y-116620000D01*
X167357969Y-116610393D01*
X167451766Y-116581940D01*
X167538209Y-116535735D01*
X167613977Y-116473553D01*
X167676159Y-116397785D01*
X167722364Y-116311342D01*
X167750817Y-116217545D01*
X167760424Y-116120000D01*
X167750817Y-116022455D01*
X167722364Y-115928658D01*
X167676159Y-115842215D01*
X167613977Y-115766447D01*
X167538208Y-115704264D01*
X167502642Y-115680500D01*
X167502638Y-115680498D01*
X167330664Y-115565589D01*
X167330662Y-115565587D01*
X167330659Y-115565585D01*
X167184415Y-115419341D01*
X167184413Y-115419338D01*
X167184411Y-115419336D01*
X167069502Y-115247362D01*
X166990350Y-115056274D01*
X166950000Y-114853416D01*
X166950000Y-114646584D01*
X166990350Y-114443726D01*
X167069502Y-114252638D01*
X167184411Y-114080664D01*
X167184412Y-114080663D01*
X167210255Y-114041986D01*
X167213703Y-114037785D01*
X167259908Y-113951342D01*
X167288361Y-113857545D01*
X167297968Y-113760000D01*
X167288361Y-113662455D01*
X167259908Y-113568658D01*
X167213703Y-113482215D01*
X167151521Y-113406447D01*
X167075753Y-113344265D01*
X166989310Y-113298060D01*
X166950000Y-113286135D01*
X166950000Y-108620000D01*
X169050000Y-108620000D01*
X169050000Y-113286135D01*
X169050000Y-113286135D01*
G37*
G36*
X119550000Y-121283297D02*
X119501332Y-121298060D01*
X119414889Y-121344265D01*
X119339121Y-121406447D01*
X119276939Y-121482215D01*
X119230734Y-121568658D01*
X119202281Y-121662455D01*
X119192674Y-121760000D01*
X119202281Y-121857545D01*
X119230734Y-121951342D01*
X119276939Y-122037785D01*
X119306162Y-122077188D01*
X119377267Y-122163829D01*
X119474767Y-122346238D01*
X119534807Y-122544164D01*
X119555080Y-122750000D01*
X119534807Y-122955836D01*
X119474767Y-123153762D01*
X119377267Y-123336171D01*
X119246054Y-123496054D01*
X119086171Y-123627267D01*
X118903762Y-123724767D01*
X118705836Y-123784807D01*
X118551578Y-123800000D01*
X114448422Y-123800000D01*
X114294164Y-123784807D01*
X114096238Y-123724767D01*
X113913829Y-123627267D01*
X113753946Y-123496054D01*
X113622733Y-123336171D01*
X113525233Y-123153762D01*
X113465193Y-122955836D01*
X113444920Y-122750000D01*
X113465193Y-122544164D01*
X113525233Y-122346238D01*
X113622733Y-122163829D01*
X113693834Y-122077192D01*
X113748286Y-121995699D01*
X113785796Y-121905143D01*
X113804918Y-121809009D01*
X113804918Y-121710992D01*
X113785796Y-121614858D01*
X113748287Y-121524302D01*
X113693832Y-121442804D01*
X113624523Y-121373495D01*
X113543025Y-121319040D01*
X113452469Y-121281530D01*
X113450000Y-121281039D01*
X113450000Y-116620000D01*
X119550000Y-116620000D01*
X119550000Y-121283297D01*
X119550000Y-121283297D01*
G37*
G36*
X139200000Y-122950000D02*
X135800000Y-122950000D01*
X135800000Y-121050000D01*
X139200000Y-121050000D01*
X139200000Y-122950000D01*
X139200000Y-122950000D01*
G37*
G36*
X126306274Y-117490350D02*
X126497362Y-117569502D01*
X126669336Y-117684411D01*
X126669338Y-117684413D01*
X126669341Y-117684415D01*
X126815585Y-117830659D01*
X126815587Y-117830662D01*
X126815589Y-117830664D01*
X126930498Y-118002638D01*
X127009650Y-118193726D01*
X127050000Y-118396584D01*
X127059607Y-118444882D01*
X127076327Y-118500000D01*
X127059607Y-118555118D01*
X127050000Y-118603416D01*
X127009650Y-118806274D01*
X126930498Y-118997362D01*
X126821827Y-119160000D01*
X126789745Y-119208014D01*
X126786297Y-119212215D01*
X126740092Y-119298658D01*
X126711639Y-119392455D01*
X126702032Y-119490000D01*
X126711639Y-119587545D01*
X126740092Y-119681342D01*
X126786297Y-119767785D01*
X126848479Y-119843553D01*
X126924247Y-119905735D01*
X127010690Y-119951940D01*
X127050000Y-119963865D01*
X127050000Y-120050000D01*
X127059607Y-120147545D01*
X127088060Y-120241342D01*
X127134265Y-120327785D01*
X127196447Y-120403553D01*
X127272215Y-120465735D01*
X127358658Y-120511940D01*
X127452455Y-120540393D01*
X127550000Y-120550000D01*
X131450000Y-120550000D01*
X131450000Y-122450000D01*
X128027514Y-122450000D01*
X128011940Y-122398658D01*
X127965735Y-122312215D01*
X127903553Y-122236447D01*
X127827785Y-122174265D01*
X127741342Y-122128060D01*
X127647545Y-122099607D01*
X127550000Y-122090000D01*
X124950000Y-122090000D01*
X124950000Y-119963865D01*
X124989310Y-119951940D01*
X125075753Y-119905735D01*
X125151521Y-119843553D01*
X125213703Y-119767785D01*
X125259908Y-119681342D01*
X125288361Y-119587545D01*
X125297968Y-119490000D01*
X125288361Y-119392455D01*
X125259908Y-119298658D01*
X125213703Y-119212215D01*
X125210255Y-119208014D01*
X125178173Y-119160000D01*
X125069502Y-118997362D01*
X124990350Y-118806274D01*
X124950000Y-118603416D01*
X124950000Y-118396584D01*
X124990350Y-118193726D01*
X125069502Y-118002638D01*
X125184411Y-117830664D01*
X125184413Y-117830662D01*
X125184415Y-117830659D01*
X125330659Y-117684415D01*
X125330662Y-117684413D01*
X125330664Y-117684411D01*
X125502638Y-117569502D01*
X125693726Y-117490350D01*
X125896584Y-117450000D01*
X126103416Y-117450000D01*
X126306274Y-117490350D01*
X126306274Y-117490350D01*
G37*
G36*
X106700000Y-121450000D02*
X96550000Y-121450000D01*
X96550000Y-118050000D01*
X106700000Y-118050000D01*
X106700000Y-121450000D01*
X106700000Y-121450000D01*
G37*
G36*
X81200000Y-121450000D02*
X79300000Y-121450000D01*
X79300000Y-118550000D01*
X81200000Y-118550000D01*
X81200000Y-121450000D01*
X81200000Y-121450000D01*
G37*
G36*
X95450000Y-121450000D02*
X85300000Y-121450000D01*
X85300000Y-118050000D01*
X95450000Y-118050000D01*
X95450000Y-121450000D01*
X95450000Y-121450000D01*
G37*
G36*
X111200000Y-121450000D02*
X109300000Y-121450000D01*
X109300000Y-118550000D01*
X111200000Y-118550000D01*
X111200000Y-121450000D01*
X111200000Y-121450000D01*
G37*
G36*
X131450000Y-118950000D02*
X128050000Y-118950000D01*
X128050000Y-118652662D01*
X128040393Y-118555117D01*
X128023673Y-118499999D01*
X128040392Y-118444884D01*
X128050000Y-118347338D01*
X128050000Y-117050000D01*
X131450000Y-117050000D01*
X131450000Y-118950000D01*
X131450000Y-118950000D01*
G37*
G36*
X145829250Y-108942189D02*
X146502607Y-109221102D01*
X147108613Y-109626022D01*
X147623978Y-110141387D01*
X148028898Y-110747393D01*
X148088060Y-110890224D01*
X148134265Y-110976667D01*
X148196447Y-111052435D01*
X148272215Y-111114617D01*
X148358658Y-111160822D01*
X148452455Y-111189275D01*
X148550000Y-111198882D01*
X148647545Y-111189275D01*
X148741342Y-111160822D01*
X148827785Y-111114617D01*
X148903553Y-111052435D01*
X148965735Y-110976667D01*
X149011940Y-110890224D01*
X149040393Y-110796427D01*
X149050000Y-110698882D01*
X149050000Y-109550000D01*
X152450000Y-109550000D01*
X152450000Y-111450000D01*
X148922881Y-111450000D01*
X148825336Y-111459607D01*
X148731539Y-111488060D01*
X148645096Y-111534265D01*
X148569328Y-111596447D01*
X148507146Y-111672215D01*
X148460941Y-111758658D01*
X148432488Y-111852455D01*
X148422881Y-111950000D01*
X148432488Y-112047542D01*
X148450000Y-112135582D01*
X148450000Y-112864418D01*
X148307811Y-113579250D01*
X148028898Y-114252607D01*
X147623978Y-114858613D01*
X147108613Y-115373978D01*
X146502607Y-115778898D01*
X145829250Y-116057811D01*
X145114418Y-116200000D01*
X144385582Y-116200000D01*
X143670750Y-116057811D01*
X142997393Y-115778898D01*
X142391387Y-115373978D01*
X141876022Y-114858613D01*
X141471102Y-114252607D01*
X141192189Y-113579250D01*
X141050000Y-112864418D01*
X141050000Y-112135582D01*
X141192189Y-111420750D01*
X141471102Y-110747393D01*
X141876022Y-110141387D01*
X142391387Y-109626022D01*
X142997393Y-109221102D01*
X143670750Y-108942189D01*
X144385582Y-108800000D01*
X145114418Y-108800000D01*
X145829250Y-108942189D01*
X145829250Y-108942189D01*
G37*
G36*
X154700000Y-115700000D02*
X151300000Y-115700000D01*
X151300000Y-113800000D01*
X154700000Y-113800000D01*
X154700000Y-115700000D01*
X154700000Y-115700000D01*
G37*
G36*
X131700000Y-113450000D02*
X128300000Y-113450000D01*
X128300000Y-111550000D01*
X131700000Y-111550000D01*
X131700000Y-113450000D01*
X131700000Y-113450000D01*
G37*
G36*
X161700000Y-113450000D02*
X158300000Y-113450000D01*
X158300000Y-111550000D01*
X161700000Y-111550000D01*
X161700000Y-113450000D01*
X161700000Y-113450000D01*
G37*
G36*
X156950000Y-111450000D02*
X153550000Y-111450000D01*
X153550000Y-109550000D01*
X156950000Y-109550000D01*
X156950000Y-111450000D01*
X156950000Y-111450000D01*
G37*
G36*
X139200000Y-108450000D02*
X135800000Y-108450000D01*
X135800000Y-106550000D01*
X139200000Y-106550000D01*
X139200000Y-108450000D01*
X139200000Y-108450000D01*
G37*
G36*
X152450000Y-107950000D02*
X149050000Y-107950000D01*
X149050000Y-106050000D01*
X152450000Y-106050000D01*
X152450000Y-107950000D01*
X152450000Y-107950000D01*
G37*
G36*
X156950000Y-107950000D02*
X153550000Y-107950000D01*
X153550000Y-106050000D01*
X156950000Y-106050000D01*
X156950000Y-107950000D01*
X156950000Y-107950000D01*
G37*
G36*
X126306274Y-102990350D02*
X126497362Y-103069502D01*
X126669336Y-103184411D01*
X126669338Y-103184413D01*
X126669341Y-103184415D01*
X126815585Y-103330659D01*
X126815587Y-103330662D01*
X126815589Y-103330664D01*
X126930498Y-103502638D01*
X127009650Y-103693726D01*
X127050000Y-103896584D01*
X127059607Y-103944882D01*
X127076327Y-104000000D01*
X127059607Y-104055118D01*
X127050000Y-104103416D01*
X127009650Y-104306274D01*
X126930498Y-104497362D01*
X126815589Y-104669336D01*
X126789745Y-104708014D01*
X126786297Y-104712215D01*
X126740092Y-104798658D01*
X126711639Y-104892455D01*
X126702032Y-104990000D01*
X126711639Y-105087545D01*
X126740092Y-105181342D01*
X126786297Y-105267785D01*
X126848479Y-105343553D01*
X126924247Y-105405735D01*
X127010690Y-105451940D01*
X127050000Y-105463865D01*
X127050000Y-105550000D01*
X127059607Y-105647545D01*
X127088060Y-105741342D01*
X127134265Y-105827785D01*
X127196447Y-105903553D01*
X127272215Y-105965735D01*
X127358658Y-106011940D01*
X127452455Y-106040393D01*
X127550000Y-106050000D01*
X131450000Y-106050000D01*
X131450000Y-107950000D01*
X128027514Y-107950000D01*
X128011940Y-107898658D01*
X127965735Y-107812215D01*
X127903553Y-107736447D01*
X127827785Y-107674265D01*
X127741342Y-107628060D01*
X127647545Y-107599607D01*
X127550000Y-107590000D01*
X124950000Y-107590000D01*
X124950000Y-105463865D01*
X124989310Y-105451940D01*
X125075753Y-105405735D01*
X125151521Y-105343553D01*
X125213703Y-105267785D01*
X125259908Y-105181342D01*
X125288361Y-105087545D01*
X125297968Y-104990000D01*
X125288361Y-104892455D01*
X125259908Y-104798658D01*
X125213703Y-104712215D01*
X125210255Y-104708014D01*
X125184411Y-104669336D01*
X125069502Y-104497362D01*
X124990350Y-104306274D01*
X124950000Y-104103416D01*
X124950000Y-103896584D01*
X124990350Y-103693726D01*
X125069502Y-103502638D01*
X125184411Y-103330664D01*
X125184413Y-103330662D01*
X125184415Y-103330659D01*
X125330659Y-103184415D01*
X125330662Y-103184413D01*
X125330664Y-103184411D01*
X125502638Y-103069502D01*
X125693726Y-102990350D01*
X125896584Y-102950000D01*
X126103416Y-102950000D01*
X126306274Y-102990350D01*
X126306274Y-102990350D01*
G37*
G36*
X166550000Y-105036135D02*
X166510690Y-105048060D01*
X166424247Y-105094265D01*
X166348479Y-105156447D01*
X166286297Y-105232215D01*
X166240092Y-105318658D01*
X166211639Y-105412455D01*
X166202032Y-105510000D01*
X166211639Y-105607545D01*
X166240092Y-105701342D01*
X166286297Y-105787785D01*
X166289745Y-105791986D01*
X166315588Y-105830663D01*
X166315589Y-105830664D01*
X166430498Y-106002638D01*
X166509650Y-106193726D01*
X166550000Y-106396584D01*
X166550000Y-106603416D01*
X166509650Y-106806274D01*
X166430498Y-106997362D01*
X166315589Y-107169336D01*
X166315587Y-107169338D01*
X166315585Y-107169341D01*
X166169341Y-107315585D01*
X166169338Y-107315587D01*
X166169336Y-107315589D01*
X165997362Y-107430498D01*
X165806274Y-107509650D01*
X165603416Y-107550000D01*
X165396584Y-107550000D01*
X165193726Y-107509650D01*
X165002638Y-107430498D01*
X164830664Y-107315589D01*
X164830662Y-107315587D01*
X164830659Y-107315585D01*
X164684415Y-107169341D01*
X164684413Y-107169338D01*
X164684411Y-107169336D01*
X164569502Y-106997362D01*
X164490350Y-106806274D01*
X164450000Y-106603416D01*
X164450000Y-106396584D01*
X164490350Y-106193726D01*
X164569502Y-106002638D01*
X164684411Y-105830664D01*
X164684412Y-105830663D01*
X164710255Y-105791986D01*
X164713703Y-105787785D01*
X164759908Y-105701342D01*
X164788361Y-105607545D01*
X164797968Y-105510000D01*
X164788361Y-105412455D01*
X164759908Y-105318658D01*
X164713703Y-105232215D01*
X164651521Y-105156447D01*
X164575753Y-105094265D01*
X164489310Y-105048060D01*
X164450000Y-105036135D01*
X164450000Y-102910000D01*
X166550000Y-102910000D01*
X166550000Y-105036135D01*
X166550000Y-105036135D01*
G37*
G36*
X111200000Y-106450000D02*
X109300000Y-106450000D01*
X109300000Y-103550000D01*
X111200000Y-103550000D01*
X111200000Y-106450000D01*
X111200000Y-106450000D01*
G37*
G36*
X96200000Y-106450000D02*
X94300000Y-106450000D01*
X94300000Y-103550000D01*
X96200000Y-103550000D01*
X96200000Y-106450000D01*
X96200000Y-106450000D01*
G37*
G36*
X81200000Y-106450000D02*
X79300000Y-106450000D01*
X79300000Y-103550000D01*
X81200000Y-103550000D01*
X81200000Y-106450000D01*
X81200000Y-106450000D01*
G37*
G36*
X131450000Y-104450000D02*
X128050000Y-104450000D01*
X128050000Y-104152662D01*
X128040393Y-104055117D01*
X128023673Y-103999999D01*
X128040392Y-103944884D01*
X128050000Y-103847338D01*
X128050000Y-102550000D01*
X131450000Y-102550000D01*
X131450000Y-104450000D01*
X131450000Y-104450000D01*
G37*
G36*
X156200000Y-103450000D02*
X152800000Y-103450000D01*
X152800000Y-101550000D01*
X156200000Y-101550000D01*
X156200000Y-103450000D01*
X156200000Y-103450000D01*
G37*
G36*
X151700000Y-103450000D02*
X148300000Y-103450000D01*
X148300000Y-101550000D01*
X151700000Y-101550000D01*
X151700000Y-103450000D01*
X151700000Y-103450000D01*
G37*
G36*
X168050000Y-101550000D02*
X165950000Y-101550000D01*
X165950000Y-99450000D01*
X168050000Y-99450000D01*
X168050000Y-101550000D01*
X168050000Y-101550000D01*
G37*
G36*
X151700000Y-99950000D02*
X148300000Y-99950000D01*
X148300000Y-98050000D01*
X151700000Y-98050000D01*
X151700000Y-99950000D01*
X151700000Y-99950000D01*
G37*
G36*
X156200000Y-99950000D02*
X152800000Y-99950000D01*
X152800000Y-98050000D01*
X156200000Y-98050000D01*
X156200000Y-99950000D01*
X156200000Y-99950000D01*
G37*
G36*
X127250000Y-97500000D02*
X126800000Y-97500000D01*
X126702455Y-97509607D01*
X126608658Y-97538060D01*
X126522215Y-97584265D01*
X126446447Y-97646447D01*
X126384265Y-97722215D01*
X126338060Y-97808658D01*
X126309607Y-97902455D01*
X126300000Y-98000000D01*
X126300000Y-99700000D01*
X125100000Y-99700000D01*
X125100000Y-98000000D01*
X125090393Y-97902455D01*
X125061940Y-97808658D01*
X125015735Y-97722215D01*
X124953553Y-97646447D01*
X124877785Y-97584265D01*
X124791342Y-97538060D01*
X124697545Y-97509607D01*
X124600000Y-97500000D01*
X124150000Y-97500000D01*
X124150000Y-96000000D01*
X127250000Y-96000000D01*
X127250000Y-97500000D01*
X127250000Y-97500000D01*
G37*
G36*
X131700000Y-98450000D02*
X128300000Y-98450000D01*
X128300000Y-96550000D01*
X131700000Y-96550000D01*
X131700000Y-98450000D01*
X131700000Y-98450000D01*
G37*
G36*
X161700000Y-98450000D02*
X158300000Y-98450000D01*
X158300000Y-96550000D01*
X161700000Y-96550000D01*
X161700000Y-98450000D01*
X161700000Y-98450000D01*
G37*
G36*
X146700000Y-98450000D02*
X143300000Y-98450000D01*
X143300000Y-96550000D01*
X146700000Y-96550000D01*
X146700000Y-98450000D01*
X146700000Y-98450000D01*
G37*
G36*
X168050000Y-96050000D02*
X165950000Y-96050000D01*
X165950000Y-93950000D01*
X168050000Y-93950000D01*
X168050000Y-96050000D01*
X168050000Y-96050000D01*
G37*
G36*
X105705836Y-88215193D02*
X105903762Y-88275233D01*
X106086171Y-88372733D01*
X106246054Y-88503946D01*
X106377267Y-88663829D01*
X106474767Y-88846238D01*
X106534807Y-89044164D01*
X106550000Y-89198422D01*
X106550000Y-93301578D01*
X106534807Y-93455836D01*
X106474767Y-93653762D01*
X106377267Y-93836171D01*
X106246054Y-93996054D01*
X106086171Y-94127267D01*
X105903761Y-94224767D01*
X105705835Y-94284807D01*
X105500000Y-94305080D01*
X105294164Y-94284807D01*
X105096238Y-94224767D01*
X104913829Y-94127267D01*
X104827192Y-94056166D01*
X104745699Y-94001714D01*
X104655143Y-93964204D01*
X104559009Y-93945082D01*
X104460992Y-93945082D01*
X104364858Y-93964204D01*
X104274302Y-94001713D01*
X104192804Y-94056168D01*
X104123495Y-94125477D01*
X104069040Y-94206975D01*
X104031530Y-94297531D01*
X104031039Y-94300000D01*
X99370000Y-94300000D01*
X99370000Y-88200000D01*
X104033297Y-88200000D01*
X104048060Y-88248668D01*
X104094265Y-88335111D01*
X104156447Y-88410879D01*
X104232215Y-88473061D01*
X104318658Y-88519266D01*
X104412455Y-88547719D01*
X104510000Y-88557326D01*
X104607545Y-88547719D01*
X104701342Y-88519266D01*
X104827196Y-88443832D01*
X104838671Y-88434415D01*
X104913830Y-88372733D01*
X105096239Y-88275233D01*
X105294165Y-88215193D01*
X105500000Y-88194920D01*
X105705836Y-88215193D01*
X105705836Y-88215193D01*
G37*
G36*
X90705836Y-88215193D02*
X90903762Y-88275233D01*
X91086171Y-88372733D01*
X91246054Y-88503946D01*
X91377267Y-88663829D01*
X91474767Y-88846238D01*
X91534807Y-89044164D01*
X91550000Y-89198422D01*
X91550000Y-93301578D01*
X91534807Y-93455836D01*
X91474767Y-93653762D01*
X91377267Y-93836171D01*
X91246054Y-93996054D01*
X91086171Y-94127267D01*
X90903761Y-94224767D01*
X90705835Y-94284807D01*
X90500000Y-94305080D01*
X90294164Y-94284807D01*
X90096238Y-94224767D01*
X89913829Y-94127267D01*
X89827192Y-94056166D01*
X89745699Y-94001714D01*
X89655143Y-93964204D01*
X89559009Y-93945082D01*
X89460992Y-93945082D01*
X89364858Y-93964204D01*
X89274302Y-94001713D01*
X89192804Y-94056168D01*
X89123495Y-94125477D01*
X89069040Y-94206975D01*
X89031530Y-94297531D01*
X89031039Y-94300000D01*
X84370000Y-94300000D01*
X84370000Y-88200000D01*
X89033297Y-88200000D01*
X89048060Y-88248668D01*
X89094265Y-88335111D01*
X89156447Y-88410879D01*
X89232215Y-88473061D01*
X89318658Y-88519266D01*
X89412455Y-88547719D01*
X89510000Y-88557326D01*
X89607545Y-88547719D01*
X89701342Y-88519266D01*
X89827196Y-88443832D01*
X89838671Y-88434415D01*
X89913830Y-88372733D01*
X90096239Y-88275233D01*
X90294165Y-88215193D01*
X90500000Y-88194920D01*
X90705836Y-88215193D01*
X90705836Y-88215193D01*
G37*
G36*
X130380000Y-93050000D02*
X125713865Y-93050000D01*
X125701940Y-93010690D01*
X125655735Y-92924247D01*
X125593553Y-92848479D01*
X125517785Y-92786297D01*
X125431342Y-92740092D01*
X125337545Y-92711639D01*
X125240000Y-92702032D01*
X125142455Y-92711639D01*
X125048658Y-92740092D01*
X124962215Y-92786297D01*
X124958014Y-92789745D01*
X124919337Y-92815588D01*
X124919336Y-92815589D01*
X124747362Y-92930498D01*
X124556274Y-93009650D01*
X124353416Y-93050000D01*
X124146584Y-93050000D01*
X123943726Y-93009650D01*
X123752638Y-92930498D01*
X123580664Y-92815589D01*
X123580662Y-92815587D01*
X123580659Y-92815585D01*
X123434415Y-92669341D01*
X123434413Y-92669338D01*
X123434411Y-92669336D01*
X123319502Y-92497362D01*
X123240350Y-92306274D01*
X123200000Y-92103416D01*
X123200000Y-91896584D01*
X123240350Y-91693726D01*
X123319502Y-91502638D01*
X123434411Y-91330664D01*
X123434412Y-91330663D01*
X123460255Y-91291986D01*
X123463703Y-91287785D01*
X123509908Y-91201342D01*
X123538361Y-91107545D01*
X123547968Y-91010000D01*
X123538361Y-90912455D01*
X123509908Y-90818658D01*
X123463703Y-90732215D01*
X123401521Y-90656447D01*
X123325753Y-90594265D01*
X123239310Y-90548060D01*
X123200000Y-90536135D01*
X123200000Y-88410000D01*
X130380000Y-88410000D01*
X130380000Y-93050000D01*
X130380000Y-93050000D01*
G37*
G36*
X153548060Y-88239310D02*
X153594265Y-88325753D01*
X153656447Y-88401521D01*
X153732215Y-88463703D01*
X153818658Y-88509908D01*
X153912455Y-88538361D01*
X154010000Y-88547968D01*
X154107545Y-88538361D01*
X154201342Y-88509908D01*
X154287785Y-88463703D01*
X154291986Y-88460255D01*
X154330663Y-88434412D01*
X154330664Y-88434411D01*
X154502638Y-88319502D01*
X154693726Y-88240350D01*
X154896584Y-88200000D01*
X155103416Y-88200000D01*
X155306274Y-88240350D01*
X155497362Y-88319502D01*
X155669336Y-88434411D01*
X155669338Y-88434413D01*
X155669341Y-88434415D01*
X155815585Y-88580659D01*
X155815587Y-88580662D01*
X155815589Y-88580664D01*
X155930498Y-88752638D01*
X156009650Y-88943726D01*
X156050000Y-89146584D01*
X156050000Y-89353416D01*
X156009650Y-89556274D01*
X155930498Y-89747362D01*
X155815589Y-89919336D01*
X155815587Y-89919338D01*
X155815585Y-89919341D01*
X155669341Y-90065585D01*
X155669338Y-90065587D01*
X155669336Y-90065589D01*
X155497362Y-90180498D01*
X155306274Y-90259650D01*
X155103416Y-90300000D01*
X154896584Y-90300000D01*
X154693726Y-90259650D01*
X154502638Y-90180498D01*
X154330664Y-90065589D01*
X154330663Y-90065588D01*
X154291986Y-90039745D01*
X154287785Y-90036297D01*
X154201342Y-89990092D01*
X154107545Y-89961639D01*
X154010000Y-89952032D01*
X153912455Y-89961639D01*
X153818658Y-89990092D01*
X153732215Y-90036297D01*
X153656447Y-90098479D01*
X153594265Y-90174247D01*
X153548060Y-90260690D01*
X153536135Y-90300000D01*
X148870000Y-90300000D01*
X148870000Y-88200000D01*
X153536135Y-88200000D01*
X153548060Y-88239310D01*
X153548060Y-88239310D01*
G37*
G36*
X138548060Y-88239310D02*
X138594265Y-88325753D01*
X138656447Y-88401521D01*
X138732215Y-88463703D01*
X138818658Y-88509908D01*
X138912455Y-88538361D01*
X139010000Y-88547968D01*
X139107545Y-88538361D01*
X139201342Y-88509908D01*
X139287785Y-88463703D01*
X139291986Y-88460255D01*
X139330663Y-88434412D01*
X139330664Y-88434411D01*
X139502638Y-88319502D01*
X139693726Y-88240350D01*
X139896584Y-88200000D01*
X140103416Y-88200000D01*
X140306274Y-88240350D01*
X140497362Y-88319502D01*
X140669336Y-88434411D01*
X140669338Y-88434413D01*
X140669341Y-88434415D01*
X140815585Y-88580659D01*
X140815587Y-88580662D01*
X140815589Y-88580664D01*
X140930498Y-88752638D01*
X141009650Y-88943726D01*
X141050000Y-89146584D01*
X141050000Y-89353416D01*
X141009650Y-89556274D01*
X140930498Y-89747362D01*
X140815589Y-89919336D01*
X140815587Y-89919338D01*
X140815585Y-89919341D01*
X140669341Y-90065585D01*
X140669338Y-90065587D01*
X140669336Y-90065589D01*
X140497362Y-90180498D01*
X140306274Y-90259650D01*
X140103416Y-90300000D01*
X139896584Y-90300000D01*
X139693726Y-90259650D01*
X139502638Y-90180498D01*
X139330664Y-90065589D01*
X139330663Y-90065588D01*
X139291986Y-90039745D01*
X139287785Y-90036297D01*
X139201342Y-89990092D01*
X139107545Y-89961639D01*
X139010000Y-89952032D01*
X138912455Y-89961639D01*
X138818658Y-89990092D01*
X138732215Y-90036297D01*
X138656447Y-90098479D01*
X138594265Y-90174247D01*
X138548060Y-90260690D01*
X138536135Y-90300000D01*
X133870000Y-90300000D01*
X133870000Y-88200000D01*
X138536135Y-88200000D01*
X138548060Y-88239310D01*
X138548060Y-88239310D01*
G37*
G36*
X149960925Y-84318446D02*
X150100030Y-84346116D01*
X150318413Y-84436573D01*
X150514958Y-84567900D01*
X150682100Y-84735042D01*
X150813427Y-84931587D01*
X150903884Y-85149970D01*
X150931554Y-85289075D01*
X150948442Y-85373976D01*
X150950000Y-85381812D01*
X150950000Y-85618188D01*
X150903884Y-85850030D01*
X150813427Y-86068413D01*
X150682100Y-86264958D01*
X150514958Y-86432100D01*
X150318413Y-86563427D01*
X150100030Y-86653884D01*
X149960925Y-86681554D01*
X149868190Y-86700000D01*
X149631810Y-86700000D01*
X149539075Y-86681554D01*
X149399970Y-86653884D01*
X149181587Y-86563427D01*
X148985042Y-86432100D01*
X148817900Y-86264958D01*
X148686573Y-86068413D01*
X148596116Y-85850030D01*
X148550000Y-85618188D01*
X148550000Y-85381811D01*
X148600313Y-85128868D01*
X148609920Y-85031323D01*
X148600312Y-84933778D01*
X148571859Y-84839981D01*
X148545851Y-84791325D01*
X148553735Y-84792101D01*
X148651281Y-84782494D01*
X148745077Y-84754041D01*
X148831520Y-84707836D01*
X148907288Y-84645654D01*
X148985042Y-84567900D01*
X149181587Y-84436573D01*
X149399970Y-84346116D01*
X149539075Y-84318446D01*
X149631810Y-84300000D01*
X149868190Y-84300000D01*
X149960925Y-84318446D01*
X149960925Y-84318446D01*
G37*
G36*
X139960925Y-84318446D02*
X140100030Y-84346116D01*
X140318413Y-84436573D01*
X140514958Y-84567900D01*
X140592712Y-84645654D01*
X140668480Y-84707836D01*
X140754923Y-84754041D01*
X140848720Y-84782494D01*
X140946265Y-84792101D01*
X140954149Y-84791325D01*
X140928141Y-84839981D01*
X140899688Y-84933778D01*
X140890080Y-85031323D01*
X140899687Y-85128868D01*
X140950000Y-85381811D01*
X140950000Y-85618188D01*
X140903884Y-85850030D01*
X140813427Y-86068413D01*
X140682100Y-86264958D01*
X140514958Y-86432100D01*
X140318413Y-86563427D01*
X140100030Y-86653884D01*
X139960925Y-86681554D01*
X139868190Y-86700000D01*
X139631810Y-86700000D01*
X139539075Y-86681554D01*
X139399970Y-86653884D01*
X139181587Y-86563427D01*
X138985042Y-86432100D01*
X138817900Y-86264958D01*
X138686573Y-86068413D01*
X138596116Y-85850030D01*
X138550000Y-85618188D01*
X138550000Y-85381812D01*
X138551559Y-85373976D01*
X138568446Y-85289075D01*
X138596116Y-85149970D01*
X138686573Y-84931587D01*
X138817900Y-84735042D01*
X138985042Y-84567900D01*
X139181587Y-84436573D01*
X139399970Y-84346116D01*
X139539075Y-84318446D01*
X139631810Y-84300000D01*
X139868190Y-84300000D01*
X139960925Y-84318446D01*
X139960925Y-84318446D01*
G37*
G36*
X145829250Y-78942189D02*
X146502607Y-79221102D01*
X147108613Y-79626022D01*
X147623978Y-80141387D01*
X148028898Y-80747393D01*
X148307811Y-81420750D01*
X148450000Y-82135582D01*
X148450000Y-82864418D01*
X148307811Y-83579250D01*
X148307810Y-83579252D01*
X148091795Y-84100760D01*
X148063342Y-84194556D01*
X148053735Y-84292101D01*
X148063342Y-84389647D01*
X148091795Y-84483443D01*
X148117803Y-84532100D01*
X148109919Y-84531324D01*
X148012374Y-84540932D01*
X147918577Y-84569385D01*
X147832134Y-84615590D01*
X147756366Y-84677771D01*
X147694188Y-84753537D01*
X147623978Y-84858613D01*
X147108613Y-85373978D01*
X146502607Y-85778898D01*
X145829250Y-86057811D01*
X145114418Y-86200000D01*
X144385582Y-86200000D01*
X143670750Y-86057811D01*
X142997393Y-85778898D01*
X142391387Y-85373978D01*
X141876022Y-84858613D01*
X141805812Y-84753537D01*
X141743634Y-84677771D01*
X141667866Y-84615590D01*
X141581423Y-84569385D01*
X141487626Y-84540932D01*
X141390081Y-84531324D01*
X141382197Y-84532100D01*
X141408205Y-84483443D01*
X141436658Y-84389646D01*
X141446265Y-84292101D01*
X141436658Y-84194556D01*
X141408205Y-84100760D01*
X141192190Y-83579252D01*
X141192189Y-83579250D01*
X141050000Y-82864418D01*
X141050000Y-82135582D01*
X141192189Y-81420750D01*
X141471102Y-80747393D01*
X141876022Y-80141387D01*
X142391387Y-79626022D01*
X142997393Y-79221102D01*
X143670750Y-78942189D01*
X144385582Y-78800000D01*
X145114418Y-78800000D01*
X145829250Y-78942189D01*
X145829250Y-78942189D01*
G37*
G36*
X119550000Y-75283296D02*
X119501332Y-75298059D01*
X119414889Y-75344264D01*
X119339121Y-75406446D01*
X119276939Y-75482214D01*
X119230734Y-75568657D01*
X119202281Y-75662454D01*
X119192674Y-75759999D01*
X119202281Y-75857544D01*
X119230734Y-75951341D01*
X119276939Y-76037784D01*
X119306162Y-76077187D01*
X119377267Y-76163828D01*
X119474767Y-76346237D01*
X119534807Y-76544163D01*
X119555080Y-76749999D01*
X119534807Y-76955835D01*
X119474767Y-77153761D01*
X119377267Y-77336170D01*
X119246054Y-77496053D01*
X119086171Y-77627266D01*
X118903762Y-77724766D01*
X118705836Y-77784806D01*
X118551578Y-77799999D01*
X114448422Y-77799999D01*
X114294164Y-77784806D01*
X114096238Y-77724766D01*
X113913829Y-77627266D01*
X113753946Y-77496053D01*
X113622733Y-77336170D01*
X113525233Y-77153761D01*
X113465193Y-76955835D01*
X113444920Y-76749999D01*
X113465193Y-76544163D01*
X113525233Y-76346237D01*
X113622733Y-76163828D01*
X113693834Y-76077191D01*
X113748286Y-75995698D01*
X113785796Y-75905142D01*
X113804918Y-75809008D01*
X113804918Y-75710991D01*
X113785796Y-75614857D01*
X113748287Y-75524301D01*
X113693832Y-75442803D01*
X113624523Y-75373494D01*
X113543025Y-75319039D01*
X113452469Y-75281529D01*
X113450000Y-75281038D01*
X113450000Y-70619999D01*
X119550000Y-70619999D01*
X119550000Y-75283296D01*
X119550000Y-75283296D01*
G37*
G36*
X76205836Y-70215193D02*
X76403762Y-70275233D01*
X76586171Y-70372733D01*
X76746054Y-70503946D01*
X76877267Y-70663829D01*
X76974767Y-70846238D01*
X77034807Y-71044164D01*
X77055080Y-71250000D01*
X77034807Y-71455836D01*
X76974767Y-71653762D01*
X76877267Y-71836171D01*
X76806166Y-71922808D01*
X76751714Y-72004301D01*
X76714204Y-72094857D01*
X76695082Y-72190991D01*
X76695082Y-72289008D01*
X76714204Y-72385142D01*
X76751713Y-72475698D01*
X76806168Y-72557196D01*
X76875477Y-72626505D01*
X76956975Y-72680960D01*
X77047531Y-72718470D01*
X77050000Y-72718961D01*
X77050000Y-77380000D01*
X70950000Y-77380000D01*
X70950000Y-72716703D01*
X70998668Y-72701940D01*
X71085111Y-72655735D01*
X71160879Y-72593553D01*
X71223061Y-72517785D01*
X71269266Y-72431342D01*
X71297719Y-72337545D01*
X71307326Y-72240000D01*
X71297719Y-72142455D01*
X71269266Y-72048658D01*
X71223061Y-71962215D01*
X71193838Y-71922812D01*
X71122733Y-71836171D01*
X71025233Y-71653762D01*
X70965193Y-71455836D01*
X70944920Y-71250000D01*
X70965193Y-71044164D01*
X71025233Y-70846238D01*
X71122733Y-70663829D01*
X71253946Y-70503946D01*
X71413829Y-70372733D01*
X71596238Y-70275233D01*
X71794164Y-70215193D01*
X71948422Y-70200000D01*
X76051578Y-70200000D01*
X76205836Y-70215193D01*
X76205836Y-70215193D01*
G37*
G36*
X138079250Y-68942189D02*
X138752607Y-69221102D01*
X139358613Y-69626022D01*
X139873978Y-70141387D01*
X140278898Y-70747393D01*
X140557811Y-71420750D01*
X140700000Y-72135582D01*
X140700000Y-72864418D01*
X140557811Y-73579250D01*
X140278898Y-74252607D01*
X139873978Y-74858613D01*
X139358613Y-75373978D01*
X138752607Y-75778898D01*
X138079250Y-76057811D01*
X137364418Y-76200000D01*
X136635582Y-76200000D01*
X135920750Y-76057811D01*
X135247393Y-75778898D01*
X134641387Y-75373978D01*
X134126022Y-74858613D01*
X133721102Y-74252607D01*
X133680731Y-74155143D01*
X133442190Y-73579253D01*
X133442189Y-73579250D01*
X133440391Y-73570212D01*
X133411940Y-73476422D01*
X133365735Y-73389978D01*
X133303554Y-73314210D01*
X133227785Y-73252028D01*
X133141342Y-73205823D01*
X133047546Y-73177370D01*
X132950000Y-73167763D01*
X132852455Y-73177370D01*
X132758659Y-73205823D01*
X132672215Y-73252028D01*
X132596447Y-73314209D01*
X132534265Y-73389978D01*
X132488060Y-73476421D01*
X132459607Y-73570217D01*
X132450000Y-73667763D01*
X132450000Y-73950000D01*
X130550000Y-73950000D01*
X130550000Y-71050000D01*
X132450000Y-71050000D01*
X132450000Y-71332237D01*
X132459607Y-71429782D01*
X132488060Y-71523579D01*
X132534265Y-71610022D01*
X132596447Y-71685790D01*
X132672215Y-71747972D01*
X132758658Y-71794177D01*
X132852455Y-71822630D01*
X132950000Y-71832237D01*
X133047545Y-71822630D01*
X133141342Y-71794177D01*
X133227785Y-71747972D01*
X133303553Y-71685790D01*
X133365735Y-71610022D01*
X133411940Y-71523579D01*
X133440391Y-71429788D01*
X133442189Y-71420750D01*
X133489225Y-71307196D01*
X133721102Y-70747393D01*
X133950709Y-70403762D01*
X134126022Y-70141387D01*
X134641387Y-69626022D01*
X135247393Y-69221102D01*
X135920750Y-68942189D01*
X136635582Y-68800000D01*
X137364418Y-68800000D01*
X138079250Y-68942189D01*
X138079250Y-68942189D01*
G37*
G36*
X168705836Y-68965193D02*
X168903762Y-69025233D01*
X169086171Y-69122733D01*
X169246054Y-69253946D01*
X169377267Y-69413829D01*
X169474767Y-69596238D01*
X169534807Y-69794164D01*
X169555080Y-70000000D01*
X169534807Y-70205836D01*
X169474767Y-70403762D01*
X169377267Y-70586171D01*
X169306166Y-70672808D01*
X169251714Y-70754301D01*
X169214204Y-70844857D01*
X169195082Y-70940991D01*
X169195082Y-71039008D01*
X169214204Y-71135142D01*
X169251713Y-71225698D01*
X169306168Y-71307196D01*
X169375477Y-71376505D01*
X169456975Y-71430960D01*
X169547531Y-71468470D01*
X169550000Y-71468961D01*
X169550000Y-76130000D01*
X163450000Y-76130000D01*
X163450000Y-71466703D01*
X163498668Y-71451940D01*
X163585111Y-71405735D01*
X163660879Y-71343553D01*
X163723061Y-71267785D01*
X163769266Y-71181342D01*
X163797719Y-71087545D01*
X163807326Y-70990000D01*
X163797719Y-70892455D01*
X163769266Y-70798658D01*
X163723061Y-70712215D01*
X163693838Y-70672812D01*
X163622733Y-70586171D01*
X163525233Y-70403762D01*
X163465193Y-70205836D01*
X163444920Y-70000000D01*
X163465193Y-69794164D01*
X163525233Y-69596238D01*
X163622733Y-69413829D01*
X163753946Y-69253946D01*
X163913829Y-69122733D01*
X164096238Y-69025233D01*
X164294164Y-68965193D01*
X164448422Y-68950000D01*
X168551578Y-68950000D01*
X168705836Y-68965193D01*
X168705836Y-68965193D01*
G37*
G36*
X128050000Y-73533297D02*
X128001332Y-73548060D01*
X127914889Y-73594265D01*
X127839121Y-73656447D01*
X127776939Y-73732215D01*
X127730734Y-73818658D01*
X127702281Y-73912455D01*
X127692674Y-74010000D01*
X127702281Y-74107545D01*
X127730734Y-74201342D01*
X127776939Y-74287785D01*
X127806162Y-74327188D01*
X127877267Y-74413829D01*
X127974767Y-74596238D01*
X128034807Y-74794164D01*
X128055080Y-75000000D01*
X128034807Y-75205836D01*
X127974767Y-75403762D01*
X127877267Y-75586171D01*
X127746054Y-75746054D01*
X127586171Y-75877267D01*
X127403762Y-75974767D01*
X127205836Y-76034807D01*
X127051578Y-76050000D01*
X122948422Y-76050000D01*
X122794164Y-76034807D01*
X122596238Y-75974767D01*
X122413829Y-75877267D01*
X122253946Y-75746054D01*
X122122733Y-75586171D01*
X122025233Y-75403762D01*
X121965193Y-75205836D01*
X121944920Y-75000000D01*
X121965193Y-74794164D01*
X122025233Y-74596238D01*
X122122733Y-74413829D01*
X122193834Y-74327192D01*
X122248286Y-74245699D01*
X122285796Y-74155143D01*
X122304918Y-74059009D01*
X122304918Y-73960992D01*
X122285796Y-73864858D01*
X122248287Y-73774302D01*
X122193832Y-73692804D01*
X122124523Y-73623495D01*
X122043025Y-73569040D01*
X121952469Y-73531530D01*
X121950000Y-73531039D01*
X121950000Y-68870000D01*
X128050000Y-68870000D01*
X128050000Y-73533297D01*
X128050000Y-73533297D01*
G37*
G36*
X96888109Y-58465193D02*
X97641852Y-58615122D01*
X99134158Y-59233255D01*
X100477198Y-60130645D01*
X101619355Y-61272802D01*
X102516745Y-62615842D01*
X102984747Y-63745699D01*
X103134878Y-64108148D01*
X103437594Y-65630000D01*
X103450000Y-65692372D01*
X103450000Y-67307628D01*
X103134878Y-68891852D01*
X102516745Y-70384158D01*
X101619355Y-71727198D01*
X100477198Y-72869355D01*
X99134158Y-73766745D01*
X97957950Y-74253946D01*
X97641852Y-74384878D01*
X96057629Y-74700000D01*
X94442371Y-74700000D01*
X92858148Y-74384878D01*
X92542050Y-74253946D01*
X91365842Y-73766745D01*
X90022802Y-72869355D01*
X88880645Y-71727198D01*
X87983255Y-70384158D01*
X87365122Y-68891852D01*
X87050000Y-67307628D01*
X87050000Y-65692372D01*
X87062407Y-65630000D01*
X87365122Y-64108148D01*
X87515253Y-63745699D01*
X87983255Y-62615842D01*
X88880645Y-61272802D01*
X90022802Y-60130645D01*
X91365842Y-59233255D01*
X92858148Y-58615122D01*
X93611891Y-58465193D01*
X94442371Y-58300000D01*
X96057629Y-58300000D01*
X96888109Y-58465193D01*
X96888109Y-58465193D01*
G37*
G36*
X159700000Y-73950000D02*
X157800000Y-73950000D01*
X157800000Y-71050000D01*
X159700000Y-71050000D01*
X159700000Y-73950000D01*
X159700000Y-73950000D01*
G37*
G36*
X146700000Y-73950000D02*
X144800000Y-73950000D01*
X144800000Y-71050000D01*
X146700000Y-71050000D01*
X146700000Y-73950000D01*
X146700000Y-73950000D01*
G37*
G36*
X138079250Y-58442189D02*
X138752607Y-58721102D01*
X139358613Y-59126022D01*
X139873978Y-59641387D01*
X140278898Y-60247393D01*
X140557811Y-60920750D01*
X140700000Y-61635582D01*
X140700000Y-62364418D01*
X140557811Y-63079250D01*
X140278898Y-63752607D01*
X139873978Y-64358613D01*
X139358613Y-64873978D01*
X138752607Y-65278898D01*
X138079250Y-65557811D01*
X137364418Y-65700000D01*
X136635582Y-65700000D01*
X135920750Y-65557811D01*
X135247393Y-65278898D01*
X134641387Y-64873978D01*
X134126022Y-64358613D01*
X133721102Y-63752607D01*
X133680731Y-63655143D01*
X133442190Y-63079253D01*
X133442189Y-63079250D01*
X133440391Y-63070212D01*
X133411940Y-62976422D01*
X133365735Y-62889978D01*
X133303554Y-62814210D01*
X133227785Y-62752028D01*
X133141342Y-62705823D01*
X133047546Y-62677370D01*
X132950000Y-62667763D01*
X132852455Y-62677370D01*
X132758659Y-62705823D01*
X132672215Y-62752028D01*
X132596447Y-62814209D01*
X132534265Y-62889978D01*
X132488060Y-62976421D01*
X132459607Y-63070217D01*
X132450000Y-63167763D01*
X132450000Y-63450000D01*
X130550000Y-63450000D01*
X130550000Y-60550000D01*
X132450000Y-60550000D01*
X132450000Y-60832237D01*
X132459607Y-60929782D01*
X132488060Y-61023579D01*
X132534265Y-61110022D01*
X132596447Y-61185790D01*
X132672215Y-61247972D01*
X132758658Y-61294177D01*
X132852455Y-61322630D01*
X132950000Y-61332237D01*
X133047545Y-61322630D01*
X133141342Y-61294177D01*
X133227785Y-61247972D01*
X133303553Y-61185790D01*
X133365735Y-61110022D01*
X133411940Y-61023579D01*
X133440391Y-60929788D01*
X133442189Y-60920750D01*
X133462079Y-60872732D01*
X133721102Y-60247393D01*
X133770941Y-60172803D01*
X134126022Y-59641387D01*
X134641387Y-59126022D01*
X135247393Y-58721102D01*
X135920750Y-58442189D01*
X136635582Y-58300000D01*
X137364418Y-58300000D01*
X138079250Y-58442189D01*
X138079250Y-58442189D01*
G37*
G36*
X168705836Y-58465193D02*
X168903762Y-58525233D01*
X169086171Y-58622733D01*
X169246054Y-58753946D01*
X169377267Y-58913829D01*
X169474767Y-59096238D01*
X169534807Y-59294164D01*
X169555080Y-59500000D01*
X169534807Y-59705836D01*
X169474767Y-59903762D01*
X169377267Y-60086171D01*
X169306166Y-60172808D01*
X169251714Y-60254301D01*
X169214204Y-60344857D01*
X169195082Y-60440991D01*
X169195082Y-60539008D01*
X169214204Y-60635142D01*
X169251713Y-60725698D01*
X169306168Y-60807196D01*
X169375477Y-60876505D01*
X169456975Y-60930960D01*
X169547531Y-60968470D01*
X169550000Y-60968961D01*
X169550000Y-65630000D01*
X163450000Y-65630000D01*
X163450000Y-60966703D01*
X163498668Y-60951940D01*
X163585111Y-60905735D01*
X163660879Y-60843553D01*
X163723061Y-60767785D01*
X163769266Y-60681342D01*
X163797719Y-60587545D01*
X163807326Y-60490000D01*
X163797719Y-60392455D01*
X163769266Y-60298658D01*
X163723061Y-60212215D01*
X163693838Y-60172812D01*
X163622733Y-60086171D01*
X163525233Y-59903762D01*
X163465193Y-59705836D01*
X163444920Y-59500000D01*
X163465193Y-59294164D01*
X163525233Y-59096238D01*
X163622733Y-58913829D01*
X163753946Y-58753946D01*
X163913829Y-58622733D01*
X164096238Y-58525233D01*
X164294164Y-58465193D01*
X164448422Y-58450000D01*
X168551578Y-58450000D01*
X168705836Y-58465193D01*
X168705836Y-58465193D01*
G37*
G36*
X128050000Y-63033297D02*
X128001332Y-63048060D01*
X127914889Y-63094265D01*
X127839121Y-63156447D01*
X127776939Y-63232215D01*
X127730734Y-63318658D01*
X127702281Y-63412455D01*
X127692674Y-63510000D01*
X127702281Y-63607545D01*
X127730734Y-63701342D01*
X127776939Y-63787785D01*
X127806162Y-63827188D01*
X127877267Y-63913829D01*
X127974767Y-64096238D01*
X128034807Y-64294164D01*
X128055080Y-64500000D01*
X128034807Y-64705836D01*
X127974767Y-64903762D01*
X127877267Y-65086171D01*
X127746054Y-65246054D01*
X127586171Y-65377267D01*
X127403762Y-65474767D01*
X127205836Y-65534807D01*
X127051578Y-65550000D01*
X122948422Y-65550000D01*
X122794164Y-65534807D01*
X122596238Y-65474767D01*
X122413829Y-65377267D01*
X122253946Y-65246054D01*
X122122733Y-65086171D01*
X122025233Y-64903762D01*
X121965193Y-64705836D01*
X121944920Y-64500000D01*
X121965193Y-64294164D01*
X122025233Y-64096238D01*
X122122733Y-63913829D01*
X122193834Y-63827192D01*
X122248286Y-63745699D01*
X122285796Y-63655143D01*
X122304918Y-63559009D01*
X122304918Y-63460992D01*
X122285796Y-63364858D01*
X122248287Y-63274302D01*
X122193832Y-63192804D01*
X122124523Y-63123495D01*
X122043025Y-63069040D01*
X121952469Y-63031530D01*
X121950000Y-63031039D01*
X121950000Y-58370000D01*
X128050000Y-58370000D01*
X128050000Y-63033297D01*
X128050000Y-63033297D01*
G37*
G36*
X146700000Y-63450000D02*
X144800000Y-63450000D01*
X144800000Y-60550000D01*
X146700000Y-60550000D01*
X146700000Y-63450000D01*
X146700000Y-63450000D01*
G37*
G36*
X159700000Y-63450000D02*
X157800000Y-63450000D01*
X157800000Y-60550000D01*
X159700000Y-60550000D01*
X159700000Y-63450000D01*
X159700000Y-63450000D01*
G37*
G36*
X119550002Y-60283296D02*
X119501334Y-60298059D01*
X119414891Y-60344264D01*
X119339123Y-60406446D01*
X119276941Y-60482214D01*
X119230736Y-60568657D01*
X119202283Y-60662454D01*
X119192676Y-60759999D01*
X119202283Y-60857544D01*
X119230736Y-60951341D01*
X119276941Y-61037784D01*
X119306164Y-61077187D01*
X119377269Y-61163828D01*
X119474769Y-61346237D01*
X119534809Y-61544163D01*
X119555082Y-61749999D01*
X119534809Y-61955835D01*
X119474769Y-62153761D01*
X119377269Y-62336170D01*
X119246056Y-62496053D01*
X119086173Y-62627266D01*
X118903764Y-62724766D01*
X118705838Y-62784806D01*
X118551580Y-62799999D01*
X114448424Y-62799999D01*
X114294166Y-62784806D01*
X114096240Y-62724766D01*
X113913831Y-62627266D01*
X113753948Y-62496053D01*
X113622735Y-62336170D01*
X113525235Y-62153761D01*
X113465195Y-61955835D01*
X113444922Y-61749999D01*
X113465195Y-61544163D01*
X113525235Y-61346237D01*
X113622735Y-61163828D01*
X113693836Y-61077191D01*
X113748288Y-60995698D01*
X113785798Y-60905142D01*
X113804920Y-60809008D01*
X113804920Y-60710991D01*
X113785798Y-60614857D01*
X113748289Y-60524301D01*
X113693834Y-60442803D01*
X113624525Y-60373494D01*
X113543027Y-60319039D01*
X113452471Y-60281529D01*
X113450002Y-60281038D01*
X113450002Y-55619999D01*
X119550002Y-55619999D01*
X119550002Y-60283296D01*
X119550002Y-60283296D01*
G37*
G36*
X76205837Y-55215193D02*
X76403763Y-55275233D01*
X76586172Y-55372733D01*
X76746055Y-55503946D01*
X76877268Y-55663829D01*
X76974768Y-55846238D01*
X77034808Y-56044164D01*
X77055081Y-56250000D01*
X77034808Y-56455836D01*
X76974768Y-56653762D01*
X76877268Y-56836171D01*
X76806167Y-56922808D01*
X76751715Y-57004301D01*
X76714205Y-57094857D01*
X76695083Y-57190991D01*
X76695083Y-57289008D01*
X76714205Y-57385142D01*
X76751714Y-57475698D01*
X76806169Y-57557196D01*
X76875478Y-57626505D01*
X76956976Y-57680960D01*
X77047532Y-57718470D01*
X77050001Y-57718961D01*
X77050001Y-62380000D01*
X70950001Y-62380000D01*
X70950001Y-57716703D01*
X70998669Y-57701940D01*
X71085112Y-57655735D01*
X71160880Y-57593553D01*
X71223062Y-57517785D01*
X71269267Y-57431342D01*
X71297720Y-57337545D01*
X71307327Y-57240000D01*
X71297720Y-57142455D01*
X71269267Y-57048658D01*
X71223062Y-56962215D01*
X71193839Y-56922812D01*
X71122734Y-56836171D01*
X71025234Y-56653762D01*
X70965194Y-56455836D01*
X70944921Y-56250000D01*
X70965194Y-56044164D01*
X71025234Y-55846238D01*
X71122734Y-55663829D01*
X71253947Y-55503946D01*
X71413830Y-55372733D01*
X71596239Y-55275233D01*
X71794165Y-55215193D01*
X71948423Y-55200000D01*
X76051579Y-55200000D01*
X76205837Y-55215193D01*
X76205837Y-55215193D01*
G37*
G36*
X138079250Y-47942189D02*
X138752607Y-48221102D01*
X139358613Y-48626022D01*
X139873978Y-49141387D01*
X140278898Y-49747393D01*
X140557811Y-50420750D01*
X140700000Y-51135582D01*
X140700000Y-51864418D01*
X140557811Y-52579250D01*
X140278898Y-53252607D01*
X139873978Y-53858613D01*
X139358613Y-54373978D01*
X138752607Y-54778898D01*
X138079250Y-55057811D01*
X137364418Y-55200000D01*
X136635582Y-55200000D01*
X135920750Y-55057811D01*
X135247393Y-54778898D01*
X134641387Y-54373978D01*
X134126022Y-53858613D01*
X133721102Y-53252607D01*
X133680731Y-53155143D01*
X133442190Y-52579253D01*
X133442189Y-52579250D01*
X133440391Y-52570212D01*
X133411940Y-52476422D01*
X133365735Y-52389978D01*
X133303554Y-52314210D01*
X133227785Y-52252028D01*
X133141342Y-52205823D01*
X133047546Y-52177370D01*
X132950000Y-52167763D01*
X132852455Y-52177370D01*
X132758659Y-52205823D01*
X132672215Y-52252028D01*
X132596447Y-52314209D01*
X132534265Y-52389978D01*
X132488060Y-52476421D01*
X132459607Y-52570217D01*
X132450000Y-52667763D01*
X132450000Y-52950000D01*
X130550000Y-52950000D01*
X130550000Y-50050000D01*
X132450000Y-50050000D01*
X132450000Y-50332237D01*
X132459607Y-50429782D01*
X132488060Y-50523579D01*
X132534265Y-50610022D01*
X132596447Y-50685790D01*
X132672215Y-50747972D01*
X132758658Y-50794177D01*
X132852455Y-50822630D01*
X132950000Y-50832237D01*
X133047545Y-50822630D01*
X133141342Y-50794177D01*
X133227785Y-50747972D01*
X133303553Y-50685790D01*
X133365735Y-50610022D01*
X133411940Y-50523579D01*
X133440391Y-50429788D01*
X133442189Y-50420750D01*
X133489225Y-50307196D01*
X133721102Y-49747393D01*
X133950709Y-49403762D01*
X134126022Y-49141387D01*
X134641387Y-48626022D01*
X135247393Y-48221102D01*
X135920750Y-47942189D01*
X136635582Y-47800000D01*
X137364418Y-47800000D01*
X138079250Y-47942189D01*
X138079250Y-47942189D01*
G37*
G36*
X168705836Y-47965193D02*
X168903762Y-48025233D01*
X169086171Y-48122733D01*
X169246054Y-48253946D01*
X169377267Y-48413829D01*
X169474767Y-48596238D01*
X169534807Y-48794164D01*
X169555080Y-49000000D01*
X169534807Y-49205836D01*
X169474767Y-49403762D01*
X169377267Y-49586171D01*
X169306166Y-49672808D01*
X169251714Y-49754301D01*
X169214204Y-49844857D01*
X169195082Y-49940991D01*
X169195082Y-50039008D01*
X169214204Y-50135142D01*
X169251713Y-50225698D01*
X169306168Y-50307196D01*
X169375477Y-50376505D01*
X169456975Y-50430960D01*
X169547531Y-50468470D01*
X169550000Y-50468961D01*
X169550000Y-55130000D01*
X163450000Y-55130000D01*
X163450000Y-50466703D01*
X163498668Y-50451940D01*
X163585111Y-50405735D01*
X163660879Y-50343553D01*
X163723061Y-50267785D01*
X163769266Y-50181342D01*
X163797719Y-50087545D01*
X163807326Y-49990000D01*
X163797719Y-49892455D01*
X163769266Y-49798658D01*
X163723061Y-49712215D01*
X163693838Y-49672812D01*
X163622733Y-49586171D01*
X163525233Y-49403762D01*
X163465193Y-49205836D01*
X163444920Y-49000000D01*
X163465193Y-48794164D01*
X163525233Y-48596238D01*
X163622733Y-48413829D01*
X163753946Y-48253946D01*
X163913829Y-48122733D01*
X164096238Y-48025233D01*
X164294164Y-47965193D01*
X164448422Y-47950000D01*
X168551578Y-47950000D01*
X168705836Y-47965193D01*
X168705836Y-47965193D01*
G37*
G36*
X128050000Y-52533297D02*
X128001332Y-52548060D01*
X127914889Y-52594265D01*
X127839121Y-52656447D01*
X127776939Y-52732215D01*
X127730734Y-52818658D01*
X127702281Y-52912455D01*
X127692674Y-53010000D01*
X127702281Y-53107545D01*
X127730734Y-53201342D01*
X127776939Y-53287785D01*
X127806162Y-53327188D01*
X127877267Y-53413829D01*
X127974767Y-53596238D01*
X128034807Y-53794164D01*
X128055080Y-54000000D01*
X128034807Y-54205836D01*
X127974767Y-54403762D01*
X127877267Y-54586171D01*
X127746054Y-54746054D01*
X127586171Y-54877267D01*
X127403762Y-54974767D01*
X127205836Y-55034807D01*
X127051578Y-55050000D01*
X122948422Y-55050000D01*
X122794164Y-55034807D01*
X122596238Y-54974767D01*
X122413829Y-54877267D01*
X122253946Y-54746054D01*
X122122733Y-54586171D01*
X122025233Y-54403762D01*
X121965193Y-54205836D01*
X121944920Y-54000000D01*
X121965193Y-53794164D01*
X122025233Y-53596238D01*
X122122733Y-53413829D01*
X122193834Y-53327192D01*
X122248286Y-53245699D01*
X122285796Y-53155143D01*
X122304918Y-53059009D01*
X122304918Y-52960992D01*
X122285796Y-52864858D01*
X122248287Y-52774302D01*
X122193832Y-52692804D01*
X122124523Y-52623495D01*
X122043025Y-52569040D01*
X121952469Y-52531530D01*
X121950000Y-52531039D01*
X121950000Y-47870000D01*
X128050000Y-47870000D01*
X128050000Y-52533297D01*
X128050000Y-52533297D01*
G37*
G36*
X146700000Y-52950000D02*
X144800000Y-52950000D01*
X144800000Y-50050000D01*
X146700000Y-50050000D01*
X146700000Y-52950000D01*
X146700000Y-52950000D01*
G37*
G36*
X159700000Y-52950000D02*
X157800000Y-52950000D01*
X157800000Y-50050000D01*
X159700000Y-50050000D01*
X159700000Y-52950000D01*
X159700000Y-52950000D01*
G37*
M02*
