M48
;DRILL file {KiCad (5.0.0-3-g5ebb6b6)} date 
;FORMAT={3:3/ absolute / metric / keep zeros}
FMAT,2
METRIC,TZ
T1C0.400
T2C0.700
T3C1.000
T4C1.200
T5C3.400
T6C9.000
%
G90
G05
M71
T1
X123750Y-132000
X124250Y-054000
X124250Y-064500
X124250Y-075000
X125700Y-098950
X127000Y-051460
X127000Y-061960
X127000Y-072460
X127500Y-049000
X127500Y-059500
X127500Y-070000
X129000Y-097500
X129000Y-112500
X129000Y-127500
X130500Y-124000
X132500Y-097500
X132500Y-110500
X132500Y-112500
X134250Y-092750
X134500Y-113250
X136000Y-098750
X137000Y-098750
X138500Y-107500
X138500Y-122000
X142500Y-097500
X142750Y-101250
X144000Y-127000
X144000Y-131250
X144250Y-054000
X144250Y-064500
X144250Y-075000
X144250Y-102250
X144250Y-104750
X144750Y-132750
X145500Y-094500
X146500Y-125250
X147500Y-049000
X147500Y-059500
X147500Y-070000
X147500Y-097500
X147500Y-127000
X150250Y-124750
X151750Y-112500
X155500Y-115500
X156701Y-118799
X157500Y-119750
X158500Y-104000
X158500Y-105000
X158500Y-106250
X158513Y-102987
X159000Y-097500
X159000Y-112500
X160500Y-048250
X160500Y-054000
X160500Y-058750
X160500Y-064500
X160500Y-069250
X160500Y-075000
X160500Y-099500
X160500Y-114500
X161500Y-122250
X161500Y-124250
X162500Y-112500
X163250Y-097500
X163250Y-127500
X164500Y-051540
X164500Y-062040
X164500Y-072540
X169050Y-054000
X169050Y-064500
X169050Y-075000
T2
X075250Y-065250
X075250Y-067750
X075750Y-097500
X075750Y-112500
X075750Y-127500
X076500Y-068250
X076500Y-064750
X077068Y-094318
X077068Y-100682
X077068Y-109318
X077068Y-115682
X077068Y-124318
X077068Y-130682
X077750Y-065250
X077750Y-067750
X078500Y-051500
X078500Y-081500
X079000Y-065250
X079000Y-050250
X079000Y-052750
X079000Y-067750
X079000Y-080250
X079000Y-082750
X080250Y-068250
X080250Y-083250
X080250Y-053250
X080250Y-064750
X080250Y-079750
X080250Y-093000
X080250Y-102000
X080250Y-108000
X080250Y-117000
X080250Y-123000
X080250Y-132000
X080250Y-049750
X081500Y-052750
X081500Y-065250
X081500Y-067750
X081500Y-080250
X081500Y-082750
X081500Y-050250
X082000Y-051500
X082000Y-081500
X082000Y-066500
X083432Y-094318
X083432Y-100682
X083432Y-109318
X083432Y-115682
X083432Y-124318
X083432Y-130682
X084750Y-097500
X084750Y-112500
X084750Y-127500
X090750Y-097500
X090750Y-127500
X092068Y-094318
X092068Y-100682
X092068Y-124318
X092068Y-130682
X093500Y-051500
X093500Y-081500
X094000Y-050250
X094000Y-052750
X094000Y-080250
X094000Y-082750
X095250Y-049750
X095250Y-053250
X095250Y-093000
X095250Y-102000
X095250Y-123000
X095250Y-132000
X095250Y-083250
X095250Y-079750
X096500Y-050250
X096500Y-052750
X096500Y-080250
X096500Y-082750
X097000Y-081500
X097000Y-051500
X098432Y-094318
X098432Y-100682
X098432Y-124318
X098432Y-130682
X099750Y-097500
X099750Y-127500
X105750Y-097500
X105750Y-112500
X105750Y-127500
X107068Y-094318
X107068Y-100682
X107068Y-109318
X107068Y-115682
X107068Y-124318
X107068Y-130682
X108500Y-066500
X108500Y-051500
X108500Y-081500
X109000Y-065250
X109000Y-050250
X109000Y-052750
X109000Y-067750
X109000Y-080250
X109000Y-082750
X110250Y-053250
X110250Y-064750
X110250Y-049750
X110250Y-068250
X110250Y-083250
X110250Y-093000
X110250Y-102000
X110250Y-108000
X110250Y-117000
X110250Y-123000
X110250Y-132000
X110250Y-079750
X111500Y-080250
X111500Y-050250
X111500Y-052750
X111500Y-065250
X111500Y-082750
X111500Y-067750
X112000Y-051500
X112000Y-066500
X112000Y-081500
X113432Y-094318
X113432Y-100682
X113432Y-109318
X113432Y-115682
X113432Y-124318
X113432Y-130682
X114750Y-097500
X114750Y-112500
X114750Y-127500
X137250Y-109750
X137250Y-114500
X139000Y-109750
X139750Y-114500
X140750Y-127000
X140750Y-130750
X152000Y-124250
X155000Y-124250
T3
X165500Y-103960
X165500Y-106500
X167000Y-095000
X167000Y-100500
X134920Y-089250
X137460Y-089250
X140000Y-089250
X124250Y-089460
X124250Y-092000
X126790Y-089460
X126790Y-092000
X129330Y-089460
X129330Y-092000
X168000Y-109670
X168000Y-112210
X168000Y-114750
X149500Y-135750
X152040Y-135750
X154580Y-135750
X149920Y-089250
X152460Y-089250
X155000Y-089250
X126000Y-104000
X126000Y-106540
X134500Y-135750
X137040Y-135750
X139580Y-135750
X162000Y-134500
X165889Y-130611
X126000Y-118500
X126000Y-121040
X168000Y-117670
X168000Y-120210
X168000Y-122750
X125600Y-133600
X128100Y-133600
X130600Y-133600
T4
X139750Y-085500
X149750Y-139500
X149750Y-085500
X139750Y-139500
T5
X144750Y-142500
X144750Y-082500
X144750Y-112500
X137000Y-072500
X137000Y-062000
X137000Y-051500
T6
X095250Y-066500
T0
M30
