G04 #@! TF.GenerationSoftware,KiCad,Pcbnew,(5.0.0-3-g5ebb6b6)*
G04 #@! TF.CreationDate,2019-01-04T13:26:37+03:00*
G04 #@! TF.ProjectId,uad,7561642E6B696361645F706362000000,rev?*
G04 #@! TF.SameCoordinates,Original*
G04 #@! TF.FileFunction,Legend,Bot*
G04 #@! TF.FilePolarity,Positive*
%FSLAX46Y46*%
G04 Gerber Fmt 4.6, Leading zero omitted, Abs format (unit mm)*
G04 Created by KiCad (PCBNEW (5.0.0-3-g5ebb6b6)) date *
%MOMM*%
%LPD*%
G01*
G04 APERTURE LIST*
%ADD10C,0.200000*%
%ADD11C,0.300000*%
%ADD12C,0.150000*%
G04 APERTURE END LIST*
D10*
X162750000Y-50952380D02*
X162559523Y-50952380D01*
X162464285Y-51000000D01*
X162369047Y-51095238D01*
X162321428Y-51285714D01*
X162321428Y-51619047D01*
X162369047Y-51809523D01*
X162464285Y-51904761D01*
X162559523Y-51952380D01*
X162750000Y-51952380D01*
X162845238Y-51904761D01*
X162940476Y-51809523D01*
X162988095Y-51619047D01*
X162988095Y-51285714D01*
X162940476Y-51095238D01*
X162845238Y-51000000D01*
X162750000Y-50952380D01*
X161892857Y-50952380D02*
X161892857Y-51761904D01*
X161845238Y-51857142D01*
X161797619Y-51904761D01*
X161702380Y-51952380D01*
X161511904Y-51952380D01*
X161416666Y-51904761D01*
X161369047Y-51857142D01*
X161321428Y-51761904D01*
X161321428Y-50952380D01*
X160988095Y-50952380D02*
X160416666Y-50952380D01*
X160702380Y-51952380D02*
X160702380Y-50952380D01*
X128750000Y-47988095D02*
X128702380Y-47892857D01*
X128702380Y-47750000D01*
X128750000Y-47607142D01*
X128845238Y-47511904D01*
X128940476Y-47464285D01*
X129130952Y-47416666D01*
X129273809Y-47416666D01*
X129464285Y-47464285D01*
X129559523Y-47511904D01*
X129654761Y-47607142D01*
X129702380Y-47750000D01*
X129702380Y-47845238D01*
X129654761Y-47988095D01*
X129607142Y-48035714D01*
X129273809Y-48035714D01*
X129273809Y-47845238D01*
X129702380Y-48464285D02*
X128702380Y-48464285D01*
X129702380Y-49035714D01*
X128702380Y-49035714D01*
X129702380Y-49511904D02*
X128702380Y-49511904D01*
X128702380Y-49750000D01*
X128750000Y-49892857D01*
X128845238Y-49988095D01*
X128940476Y-50035714D01*
X129130952Y-50083333D01*
X129273809Y-50083333D01*
X129464285Y-50035714D01*
X129559523Y-49988095D01*
X129654761Y-49892857D01*
X129702380Y-49750000D01*
X129702380Y-49511904D01*
X161702380Y-52916666D02*
X162702380Y-53250000D01*
X161702380Y-53583333D01*
X162607142Y-54488095D02*
X162654761Y-54440476D01*
X162702380Y-54297619D01*
X162702380Y-54202380D01*
X162654761Y-54059523D01*
X162559523Y-53964285D01*
X162464285Y-53916666D01*
X162273809Y-53869047D01*
X162130952Y-53869047D01*
X161940476Y-53916666D01*
X161845238Y-53964285D01*
X161750000Y-54059523D01*
X161702380Y-54202380D01*
X161702380Y-54297619D01*
X161750000Y-54440476D01*
X161797619Y-54488095D01*
X162607142Y-55488095D02*
X162654761Y-55440476D01*
X162702380Y-55297619D01*
X162702380Y-55202380D01*
X162654761Y-55059523D01*
X162559523Y-54964285D01*
X162464285Y-54916666D01*
X162273809Y-54869047D01*
X162130952Y-54869047D01*
X161940476Y-54916666D01*
X161845238Y-54964285D01*
X161750000Y-55059523D01*
X161702380Y-55202380D01*
X161702380Y-55297619D01*
X161750000Y-55440476D01*
X161797619Y-55488095D01*
X161750000Y-47988095D02*
X161702380Y-47892857D01*
X161702380Y-47750000D01*
X161750000Y-47607142D01*
X161845238Y-47511904D01*
X161940476Y-47464285D01*
X162130952Y-47416666D01*
X162273809Y-47416666D01*
X162464285Y-47464285D01*
X162559523Y-47511904D01*
X162654761Y-47607142D01*
X162702380Y-47750000D01*
X162702380Y-47845238D01*
X162654761Y-47988095D01*
X162607142Y-48035714D01*
X162273809Y-48035714D01*
X162273809Y-47845238D01*
X162702380Y-48464285D02*
X161702380Y-48464285D01*
X162702380Y-49035714D01*
X161702380Y-49035714D01*
X162702380Y-49511904D02*
X161702380Y-49511904D01*
X161702380Y-49750000D01*
X161750000Y-49892857D01*
X161845238Y-49988095D01*
X161940476Y-50035714D01*
X162130952Y-50083333D01*
X162273809Y-50083333D01*
X162464285Y-50035714D01*
X162559523Y-49988095D01*
X162654761Y-49892857D01*
X162702380Y-49750000D01*
X162702380Y-49511904D01*
X128702380Y-52916666D02*
X129702380Y-53250000D01*
X128702380Y-53583333D01*
X129607142Y-54488095D02*
X129654761Y-54440476D01*
X129702380Y-54297619D01*
X129702380Y-54202380D01*
X129654761Y-54059523D01*
X129559523Y-53964285D01*
X129464285Y-53916666D01*
X129273809Y-53869047D01*
X129130952Y-53869047D01*
X128940476Y-53916666D01*
X128845238Y-53964285D01*
X128750000Y-54059523D01*
X128702380Y-54202380D01*
X128702380Y-54297619D01*
X128750000Y-54440476D01*
X128797619Y-54488095D01*
X129607142Y-55488095D02*
X129654761Y-55440476D01*
X129702380Y-55297619D01*
X129702380Y-55202380D01*
X129654761Y-55059523D01*
X129559523Y-54964285D01*
X129464285Y-54916666D01*
X129273809Y-54869047D01*
X129130952Y-54869047D01*
X128940476Y-54916666D01*
X128845238Y-54964285D01*
X128750000Y-55059523D01*
X128702380Y-55202380D01*
X128702380Y-55297619D01*
X128750000Y-55440476D01*
X128797619Y-55488095D01*
X128726190Y-51047619D02*
X128726190Y-52047619D01*
X129202380Y-51047619D02*
X129202380Y-52047619D01*
X129773809Y-51047619D01*
X129773809Y-52047619D01*
X118714284Y-53761904D02*
X118047618Y-53761904D01*
X118714284Y-54190476D02*
X118190475Y-54190476D01*
X118095237Y-54142857D01*
X118047618Y-54047619D01*
X118047618Y-53904761D01*
X118095237Y-53809523D01*
X118142856Y-53761904D01*
X118047618Y-52857142D02*
X118571427Y-52857142D01*
X118666665Y-52904761D01*
X118714284Y-53000000D01*
X118714284Y-53190476D01*
X118666665Y-53285714D01*
X118095237Y-52857142D02*
X118047618Y-52952380D01*
X118047618Y-53190476D01*
X118095237Y-53285714D01*
X118190475Y-53333333D01*
X118285713Y-53333333D01*
X118380951Y-53285714D01*
X118428570Y-53190476D01*
X118428570Y-52952380D01*
X118476189Y-52857142D01*
X118047618Y-51952380D02*
X119047618Y-51952380D01*
X118095237Y-51952380D02*
X118047618Y-52047619D01*
X118047618Y-52238095D01*
X118095237Y-52333333D01*
X118142856Y-52380952D01*
X118238094Y-52428571D01*
X118523808Y-52428571D01*
X118619046Y-52380952D01*
X118666665Y-52333333D01*
X118714284Y-52238095D01*
X118714284Y-52047619D01*
X118666665Y-51952380D01*
X118142856Y-51476190D02*
X118095237Y-51428571D01*
X118047618Y-51476190D01*
X118095237Y-51523809D01*
X118142856Y-51476190D01*
X118047618Y-51476190D01*
X119047618Y-50809523D02*
X119047618Y-50714285D01*
X118999999Y-50619047D01*
X118952379Y-50571428D01*
X118857141Y-50523809D01*
X118666665Y-50476190D01*
X118428570Y-50476190D01*
X118238094Y-50523809D01*
X118142856Y-50571428D01*
X118095237Y-50619047D01*
X118047618Y-50714285D01*
X118047618Y-50809523D01*
X118095237Y-50904761D01*
X118142856Y-50952380D01*
X118238094Y-51000000D01*
X118428570Y-51047619D01*
X118666665Y-51047619D01*
X118857141Y-51000000D01*
X118952379Y-50952380D01*
X118999999Y-50904761D01*
X119047618Y-50809523D01*
X117952379Y-50285714D02*
X117952379Y-49523809D01*
X119047618Y-49380952D02*
X119047618Y-48761904D01*
X118666665Y-49095238D01*
X118666665Y-48952380D01*
X118619046Y-48857142D01*
X118571427Y-48809523D01*
X118476189Y-48761904D01*
X118238094Y-48761904D01*
X118142856Y-48809523D01*
X118095237Y-48857142D01*
X118047618Y-48952380D01*
X118047618Y-49238095D01*
X118095237Y-49333333D01*
X118142856Y-49380952D01*
X76511904Y-89035714D02*
X76511904Y-89702380D01*
X76940476Y-89035714D02*
X76940476Y-89559523D01*
X76892857Y-89654761D01*
X76797619Y-89702380D01*
X76654761Y-89702380D01*
X76559523Y-89654761D01*
X76511904Y-89607142D01*
X75607142Y-89702380D02*
X75607142Y-89178571D01*
X75654761Y-89083333D01*
X75750000Y-89035714D01*
X75940476Y-89035714D01*
X76035714Y-89083333D01*
X75607142Y-89654761D02*
X75702380Y-89702380D01*
X75940476Y-89702380D01*
X76035714Y-89654761D01*
X76083333Y-89559523D01*
X76083333Y-89464285D01*
X76035714Y-89369047D01*
X75940476Y-89321428D01*
X75702380Y-89321428D01*
X75607142Y-89273809D01*
X74702380Y-89702380D02*
X74702380Y-88702380D01*
X74702380Y-89654761D02*
X74797619Y-89702380D01*
X74988095Y-89702380D01*
X75083333Y-89654761D01*
X75130952Y-89607142D01*
X75178571Y-89511904D01*
X75178571Y-89226190D01*
X75130952Y-89130952D01*
X75083333Y-89083333D01*
X74988095Y-89035714D01*
X74797619Y-89035714D01*
X74702380Y-89083333D01*
X74226190Y-89607142D02*
X74178571Y-89654761D01*
X74226190Y-89702380D01*
X74273809Y-89654761D01*
X74226190Y-89607142D01*
X74226190Y-89702380D01*
X73559523Y-88702380D02*
X73464285Y-88702380D01*
X73369047Y-88750000D01*
X73321428Y-88797619D01*
X73273809Y-88892857D01*
X73226190Y-89083333D01*
X73226190Y-89321428D01*
X73273809Y-89511904D01*
X73321428Y-89607142D01*
X73369047Y-89654761D01*
X73464285Y-89702380D01*
X73559523Y-89702380D01*
X73654761Y-89654761D01*
X73702380Y-89607142D01*
X73750000Y-89511904D01*
X73797619Y-89321428D01*
X73797619Y-89083333D01*
X73750000Y-88892857D01*
X73702380Y-88797619D01*
X73654761Y-88750000D01*
X73559523Y-88702380D01*
X73035714Y-89797619D02*
X72273809Y-89797619D01*
X72083333Y-88797619D02*
X72035714Y-88750000D01*
X71940476Y-88702380D01*
X71702380Y-88702380D01*
X71607142Y-88750000D01*
X71559523Y-88797619D01*
X71511904Y-88892857D01*
X71511904Y-88988095D01*
X71559523Y-89130952D01*
X72130952Y-89702380D01*
X71511904Y-89702380D01*
X128702380Y-73916666D02*
X129702380Y-74250000D01*
X128702380Y-74583333D01*
X129607142Y-75488095D02*
X129654761Y-75440476D01*
X129702380Y-75297619D01*
X129702380Y-75202380D01*
X129654761Y-75059523D01*
X129559523Y-74964285D01*
X129464285Y-74916666D01*
X129273809Y-74869047D01*
X129130952Y-74869047D01*
X128940476Y-74916666D01*
X128845238Y-74964285D01*
X128750000Y-75059523D01*
X128702380Y-75202380D01*
X128702380Y-75297619D01*
X128750000Y-75440476D01*
X128797619Y-75488095D01*
X129607142Y-76488095D02*
X129654761Y-76440476D01*
X129702380Y-76297619D01*
X129702380Y-76202380D01*
X129654761Y-76059523D01*
X129559523Y-75964285D01*
X129464285Y-75916666D01*
X129273809Y-75869047D01*
X129130952Y-75869047D01*
X128940476Y-75916666D01*
X128845238Y-75964285D01*
X128750000Y-76059523D01*
X128702380Y-76202380D01*
X128702380Y-76297619D01*
X128750000Y-76440476D01*
X128797619Y-76488095D01*
X128750000Y-68988095D02*
X128702380Y-68892857D01*
X128702380Y-68750000D01*
X128750000Y-68607142D01*
X128845238Y-68511904D01*
X128940476Y-68464285D01*
X129130952Y-68416666D01*
X129273809Y-68416666D01*
X129464285Y-68464285D01*
X129559523Y-68511904D01*
X129654761Y-68607142D01*
X129702380Y-68750000D01*
X129702380Y-68845238D01*
X129654761Y-68988095D01*
X129607142Y-69035714D01*
X129273809Y-69035714D01*
X129273809Y-68845238D01*
X129702380Y-69464285D02*
X128702380Y-69464285D01*
X129702380Y-70035714D01*
X128702380Y-70035714D01*
X129702380Y-70511904D02*
X128702380Y-70511904D01*
X128702380Y-70750000D01*
X128750000Y-70892857D01*
X128845238Y-70988095D01*
X128940476Y-71035714D01*
X129130952Y-71083333D01*
X129273809Y-71083333D01*
X129464285Y-71035714D01*
X129559523Y-70988095D01*
X129654761Y-70892857D01*
X129702380Y-70750000D01*
X129702380Y-70511904D01*
X128726190Y-72047619D02*
X128726190Y-73047619D01*
X129202380Y-72047619D02*
X129202380Y-73047619D01*
X129773809Y-72047619D01*
X129773809Y-73047619D01*
X128702380Y-63416666D02*
X129702380Y-63750000D01*
X128702380Y-64083333D01*
X129607142Y-64988095D02*
X129654761Y-64940476D01*
X129702380Y-64797619D01*
X129702380Y-64702380D01*
X129654761Y-64559523D01*
X129559523Y-64464285D01*
X129464285Y-64416666D01*
X129273809Y-64369047D01*
X129130952Y-64369047D01*
X128940476Y-64416666D01*
X128845238Y-64464285D01*
X128750000Y-64559523D01*
X128702380Y-64702380D01*
X128702380Y-64797619D01*
X128750000Y-64940476D01*
X128797619Y-64988095D01*
X129607142Y-65988095D02*
X129654761Y-65940476D01*
X129702380Y-65797619D01*
X129702380Y-65702380D01*
X129654761Y-65559523D01*
X129559523Y-65464285D01*
X129464285Y-65416666D01*
X129273809Y-65369047D01*
X129130952Y-65369047D01*
X128940476Y-65416666D01*
X128845238Y-65464285D01*
X128750000Y-65559523D01*
X128702380Y-65702380D01*
X128702380Y-65797619D01*
X128750000Y-65940476D01*
X128797619Y-65988095D01*
X128750000Y-58488095D02*
X128702380Y-58392857D01*
X128702380Y-58250000D01*
X128750000Y-58107142D01*
X128845238Y-58011904D01*
X128940476Y-57964285D01*
X129130952Y-57916666D01*
X129273809Y-57916666D01*
X129464285Y-57964285D01*
X129559523Y-58011904D01*
X129654761Y-58107142D01*
X129702380Y-58250000D01*
X129702380Y-58345238D01*
X129654761Y-58488095D01*
X129607142Y-58535714D01*
X129273809Y-58535714D01*
X129273809Y-58345238D01*
X129702380Y-58964285D02*
X128702380Y-58964285D01*
X129702380Y-59535714D01*
X128702380Y-59535714D01*
X129702380Y-60011904D02*
X128702380Y-60011904D01*
X128702380Y-60250000D01*
X128750000Y-60392857D01*
X128845238Y-60488095D01*
X128940476Y-60535714D01*
X129130952Y-60583333D01*
X129273809Y-60583333D01*
X129464285Y-60535714D01*
X129559523Y-60488095D01*
X129654761Y-60392857D01*
X129702380Y-60250000D01*
X129702380Y-60011904D01*
X128726190Y-61547619D02*
X128726190Y-62547619D01*
X129202380Y-61547619D02*
X129202380Y-62547619D01*
X129773809Y-61547619D01*
X129773809Y-62547619D01*
X162750000Y-61412380D02*
X162559523Y-61412380D01*
X162464285Y-61460000D01*
X162369047Y-61555238D01*
X162321428Y-61745714D01*
X162321428Y-62079047D01*
X162369047Y-62269523D01*
X162464285Y-62364761D01*
X162559523Y-62412380D01*
X162750000Y-62412380D01*
X162845238Y-62364761D01*
X162940476Y-62269523D01*
X162988095Y-62079047D01*
X162988095Y-61745714D01*
X162940476Y-61555238D01*
X162845238Y-61460000D01*
X162750000Y-61412380D01*
X161892857Y-61412380D02*
X161892857Y-62221904D01*
X161845238Y-62317142D01*
X161797619Y-62364761D01*
X161702380Y-62412380D01*
X161511904Y-62412380D01*
X161416666Y-62364761D01*
X161369047Y-62317142D01*
X161321428Y-62221904D01*
X161321428Y-61412380D01*
X160988095Y-61412380D02*
X160416666Y-61412380D01*
X160702380Y-62412380D02*
X160702380Y-61412380D01*
X162750000Y-71912380D02*
X162559523Y-71912380D01*
X162464285Y-71960000D01*
X162369047Y-72055238D01*
X162321428Y-72245714D01*
X162321428Y-72579047D01*
X162369047Y-72769523D01*
X162464285Y-72864761D01*
X162559523Y-72912380D01*
X162750000Y-72912380D01*
X162845238Y-72864761D01*
X162940476Y-72769523D01*
X162988095Y-72579047D01*
X162988095Y-72245714D01*
X162940476Y-72055238D01*
X162845238Y-71960000D01*
X162750000Y-71912380D01*
X161892857Y-71912380D02*
X161892857Y-72721904D01*
X161845238Y-72817142D01*
X161797619Y-72864761D01*
X161702380Y-72912380D01*
X161511904Y-72912380D01*
X161416666Y-72864761D01*
X161369047Y-72817142D01*
X161321428Y-72721904D01*
X161321428Y-71912380D01*
X160988095Y-71912380D02*
X160416666Y-71912380D01*
X160702380Y-72912380D02*
X160702380Y-71912380D01*
X161750000Y-58488095D02*
X161702380Y-58392857D01*
X161702380Y-58250000D01*
X161750000Y-58107142D01*
X161845238Y-58011904D01*
X161940476Y-57964285D01*
X162130952Y-57916666D01*
X162273809Y-57916666D01*
X162464285Y-57964285D01*
X162559523Y-58011904D01*
X162654761Y-58107142D01*
X162702380Y-58250000D01*
X162702380Y-58345238D01*
X162654761Y-58488095D01*
X162607142Y-58535714D01*
X162273809Y-58535714D01*
X162273809Y-58345238D01*
X162702380Y-58964285D02*
X161702380Y-58964285D01*
X162702380Y-59535714D01*
X161702380Y-59535714D01*
X162702380Y-60011904D02*
X161702380Y-60011904D01*
X161702380Y-60250000D01*
X161750000Y-60392857D01*
X161845238Y-60488095D01*
X161940476Y-60535714D01*
X162130952Y-60583333D01*
X162273809Y-60583333D01*
X162464285Y-60535714D01*
X162559523Y-60488095D01*
X162654761Y-60392857D01*
X162702380Y-60250000D01*
X162702380Y-60011904D01*
X161702380Y-63416666D02*
X162702380Y-63750000D01*
X161702380Y-64083333D01*
X162607142Y-64988095D02*
X162654761Y-64940476D01*
X162702380Y-64797619D01*
X162702380Y-64702380D01*
X162654761Y-64559523D01*
X162559523Y-64464285D01*
X162464285Y-64416666D01*
X162273809Y-64369047D01*
X162130952Y-64369047D01*
X161940476Y-64416666D01*
X161845238Y-64464285D01*
X161750000Y-64559523D01*
X161702380Y-64702380D01*
X161702380Y-64797619D01*
X161750000Y-64940476D01*
X161797619Y-64988095D01*
X162607142Y-65988095D02*
X162654761Y-65940476D01*
X162702380Y-65797619D01*
X162702380Y-65702380D01*
X162654761Y-65559523D01*
X162559523Y-65464285D01*
X162464285Y-65416666D01*
X162273809Y-65369047D01*
X162130952Y-65369047D01*
X161940476Y-65416666D01*
X161845238Y-65464285D01*
X161750000Y-65559523D01*
X161702380Y-65702380D01*
X161702380Y-65797619D01*
X161750000Y-65940476D01*
X161797619Y-65988095D01*
X161750000Y-68988095D02*
X161702380Y-68892857D01*
X161702380Y-68750000D01*
X161750000Y-68607142D01*
X161845238Y-68511904D01*
X161940476Y-68464285D01*
X162130952Y-68416666D01*
X162273809Y-68416666D01*
X162464285Y-68464285D01*
X162559523Y-68511904D01*
X162654761Y-68607142D01*
X162702380Y-68750000D01*
X162702380Y-68845238D01*
X162654761Y-68988095D01*
X162607142Y-69035714D01*
X162273809Y-69035714D01*
X162273809Y-68845238D01*
X162702380Y-69464285D02*
X161702380Y-69464285D01*
X162702380Y-70035714D01*
X161702380Y-70035714D01*
X162702380Y-70511904D02*
X161702380Y-70511904D01*
X161702380Y-70750000D01*
X161750000Y-70892857D01*
X161845238Y-70988095D01*
X161940476Y-71035714D01*
X162130952Y-71083333D01*
X162273809Y-71083333D01*
X162464285Y-71035714D01*
X162559523Y-70988095D01*
X162654761Y-70892857D01*
X162702380Y-70750000D01*
X162702380Y-70511904D01*
X161702380Y-73916666D02*
X162702380Y-74250000D01*
X161702380Y-74583333D01*
X162607142Y-75488095D02*
X162654761Y-75440476D01*
X162702380Y-75297619D01*
X162702380Y-75202380D01*
X162654761Y-75059523D01*
X162559523Y-74964285D01*
X162464285Y-74916666D01*
X162273809Y-74869047D01*
X162130952Y-74869047D01*
X161940476Y-74916666D01*
X161845238Y-74964285D01*
X161750000Y-75059523D01*
X161702380Y-75202380D01*
X161702380Y-75297619D01*
X161750000Y-75440476D01*
X161797619Y-75488095D01*
X162607142Y-76488095D02*
X162654761Y-76440476D01*
X162702380Y-76297619D01*
X162702380Y-76202380D01*
X162654761Y-76059523D01*
X162559523Y-75964285D01*
X162464285Y-75916666D01*
X162273809Y-75869047D01*
X162130952Y-75869047D01*
X161940476Y-75916666D01*
X161845238Y-75964285D01*
X161750000Y-76059523D01*
X161702380Y-76202380D01*
X161702380Y-76297619D01*
X161750000Y-76440476D01*
X161797619Y-76488095D01*
D11*
G04 #@! TO.C,C22*
X158050000Y-53150000D02*
X159450000Y-53150000D01*
X158050000Y-49850000D02*
X159450000Y-49850000D01*
X157600000Y-49850000D02*
X157600000Y-50350000D01*
X157600000Y-49850000D02*
X158100000Y-49850000D01*
X159900000Y-49850000D02*
X159900000Y-50350000D01*
X159900000Y-49850000D02*
X159400000Y-49850000D01*
X157600000Y-53150000D02*
X158100000Y-53150000D01*
X157600000Y-53150000D02*
X157600000Y-52650000D01*
X159900000Y-53150000D02*
X159900000Y-52650000D01*
X159900000Y-53150000D02*
X159500000Y-53150000D01*
G04 #@! TO.C,C16*
X130800000Y-53150000D02*
X132200000Y-53150000D01*
X130800000Y-49850000D02*
X132200000Y-49850000D01*
X130350000Y-49850000D02*
X130350000Y-50350000D01*
X130350000Y-49850000D02*
X130850000Y-49850000D01*
X132650000Y-49850000D02*
X132650000Y-50350000D01*
X132650000Y-49850000D02*
X132150000Y-49850000D01*
X130350000Y-53150000D02*
X130850000Y-53150000D01*
X130350000Y-53150000D02*
X130350000Y-52650000D01*
X132650000Y-53150000D02*
X132650000Y-52650000D01*
X132650000Y-53150000D02*
X132250000Y-53150000D01*
G04 #@! TO.C,C19*
X146900000Y-53150000D02*
X146500000Y-53150000D01*
X146900000Y-53150000D02*
X146900000Y-52650000D01*
X144600000Y-53150000D02*
X144600000Y-52650000D01*
X144600000Y-53150000D02*
X145100000Y-53150000D01*
X146900000Y-49850000D02*
X146400000Y-49850000D01*
X146900000Y-49850000D02*
X146900000Y-50350000D01*
X144600000Y-49850000D02*
X145100000Y-49850000D01*
X144600000Y-49850000D02*
X144600000Y-50350000D01*
X145050000Y-49850000D02*
X146450000Y-49850000D01*
X145050000Y-53150000D02*
X146450000Y-53150000D01*
G04 #@! TO.C,XP12*
X128250000Y-55250000D02*
X128250000Y-54250000D01*
X126500000Y-55250000D02*
G75*
G03X127500000Y-55250000I500000J0D01*
G01*
X128250000Y-55250000D02*
X127500000Y-55250000D01*
X126500000Y-55250000D02*
X125750000Y-55250000D01*
X126500000Y-47576716D02*
X125750000Y-47576716D01*
X128250000Y-47576716D02*
X128250000Y-48576716D01*
X128250000Y-47576716D02*
X127500000Y-47576716D01*
X126500000Y-47576716D02*
G75*
G02X127500000Y-47576716I500000J0D01*
G01*
G04 #@! TO.C,XP15*
X165000000Y-55423284D02*
G75*
G02X164000000Y-55423284I-500000J0D01*
G01*
X163250000Y-55423284D02*
X164000000Y-55423284D01*
X163250000Y-55423284D02*
X163250000Y-54423284D01*
X165000000Y-55423284D02*
X165750000Y-55423284D01*
X165000000Y-47750000D02*
X165750000Y-47750000D01*
X163250000Y-47750000D02*
X164000000Y-47750000D01*
X165000000Y-47750000D02*
G75*
G03X164000000Y-47750000I-500000J0D01*
G01*
X163250000Y-47750000D02*
X163250000Y-48750000D01*
G04 #@! TO.C,C21*
X145050000Y-63650000D02*
X146450000Y-63650000D01*
X145050000Y-60350000D02*
X146450000Y-60350000D01*
X144600000Y-60350000D02*
X144600000Y-60850000D01*
X144600000Y-60350000D02*
X145100000Y-60350000D01*
X146900000Y-60350000D02*
X146900000Y-60850000D01*
X146900000Y-60350000D02*
X146400000Y-60350000D01*
X144600000Y-63650000D02*
X145100000Y-63650000D01*
X144600000Y-63650000D02*
X144600000Y-63150000D01*
X146900000Y-63650000D02*
X146900000Y-63150000D01*
X146900000Y-63650000D02*
X146500000Y-63650000D01*
G04 #@! TO.C,XP17*
X163250000Y-58250000D02*
X163250000Y-59250000D01*
X165000000Y-58250000D02*
G75*
G03X164000000Y-58250000I-500000J0D01*
G01*
X163250000Y-58250000D02*
X164000000Y-58250000D01*
X165000000Y-58250000D02*
X165750000Y-58250000D01*
X165000000Y-65923284D02*
X165750000Y-65923284D01*
X163250000Y-65923284D02*
X163250000Y-64923284D01*
X163250000Y-65923284D02*
X164000000Y-65923284D01*
X165000000Y-65923284D02*
G75*
G02X164000000Y-65923284I-500000J0D01*
G01*
G04 #@! TO.C,XP14*
X126500000Y-58076716D02*
G75*
G02X127500000Y-58076716I500000J0D01*
G01*
X128250000Y-58076716D02*
X127500000Y-58076716D01*
X128250000Y-58076716D02*
X128250000Y-59076716D01*
X126500000Y-58076716D02*
X125750000Y-58076716D01*
X126500000Y-65750000D02*
X125750000Y-65750000D01*
X128250000Y-65750000D02*
X127500000Y-65750000D01*
X126500000Y-65750000D02*
G75*
G03X127500000Y-65750000I500000J0D01*
G01*
X128250000Y-65750000D02*
X128250000Y-64750000D01*
G04 #@! TO.C,C24*
X159900000Y-63650000D02*
X159500000Y-63650000D01*
X159900000Y-63650000D02*
X159900000Y-63150000D01*
X157600000Y-63650000D02*
X157600000Y-63150000D01*
X157600000Y-63650000D02*
X158100000Y-63650000D01*
X159900000Y-60350000D02*
X159400000Y-60350000D01*
X159900000Y-60350000D02*
X159900000Y-60850000D01*
X157600000Y-60350000D02*
X158100000Y-60350000D01*
X157600000Y-60350000D02*
X157600000Y-60850000D01*
X158050000Y-60350000D02*
X159450000Y-60350000D01*
X158050000Y-63650000D02*
X159450000Y-63650000D01*
G04 #@! TO.C,C18*
X132650000Y-63650000D02*
X132250000Y-63650000D01*
X132650000Y-63650000D02*
X132650000Y-63150000D01*
X130350000Y-63650000D02*
X130350000Y-63150000D01*
X130350000Y-63650000D02*
X130850000Y-63650000D01*
X132650000Y-60350000D02*
X132150000Y-60350000D01*
X132650000Y-60350000D02*
X132650000Y-60850000D01*
X130350000Y-60350000D02*
X130850000Y-60350000D01*
X130350000Y-60350000D02*
X130350000Y-60850000D01*
X130800000Y-60350000D02*
X132200000Y-60350000D01*
X130800000Y-63650000D02*
X132200000Y-63650000D01*
G04 #@! TO.C,XP8*
X72500001Y-62673284D02*
G75*
G02X71500001Y-62673284I-500000J0D01*
G01*
X70750001Y-62673284D02*
X71500001Y-62673284D01*
X70750001Y-62673284D02*
X70750001Y-61673284D01*
X72500001Y-62673284D02*
X73250001Y-62673284D01*
X72500001Y-55000000D02*
X73250001Y-55000000D01*
X70750001Y-55000000D02*
X71500001Y-55000000D01*
X72500001Y-55000000D02*
G75*
G03X71500001Y-55000000I-500000J0D01*
G01*
X70750001Y-55000000D02*
X70750001Y-56000000D01*
G04 #@! TO.C,XP11*
X119750000Y-77999999D02*
X119750000Y-76999999D01*
X118000000Y-77999999D02*
G75*
G03X119000000Y-77999999I500000J0D01*
G01*
X119750000Y-77999999D02*
X119000000Y-77999999D01*
X118000000Y-77999999D02*
X117250000Y-77999999D01*
X118000000Y-70326715D02*
X117250000Y-70326715D01*
X119750000Y-70326715D02*
X119750000Y-71326715D01*
X119750000Y-70326715D02*
X119000000Y-70326715D01*
X118000000Y-70326715D02*
G75*
G02X119000000Y-70326715I500000J0D01*
G01*
G04 #@! TO.C,XP10*
X118000002Y-55326715D02*
G75*
G02X119000002Y-55326715I500000J0D01*
G01*
X119750002Y-55326715D02*
X119000002Y-55326715D01*
X119750002Y-55326715D02*
X119750002Y-56326715D01*
X118000002Y-55326715D02*
X117250002Y-55326715D01*
X118000002Y-62999999D02*
X117250002Y-62999999D01*
X119750002Y-62999999D02*
X119000002Y-62999999D01*
X118000002Y-62999999D02*
G75*
G03X119000002Y-62999999I500000J0D01*
G01*
X119750002Y-62999999D02*
X119750002Y-61999999D01*
G04 #@! TO.C,XP9*
X70750000Y-70000000D02*
X70750000Y-71000000D01*
X72500000Y-70000000D02*
G75*
G03X71500000Y-70000000I-500000J0D01*
G01*
X70750000Y-70000000D02*
X71500000Y-70000000D01*
X72500000Y-70000000D02*
X73250000Y-70000000D01*
X72500000Y-77673284D02*
X73250000Y-77673284D01*
X70750000Y-77673284D02*
X70750000Y-76673284D01*
X70750000Y-77673284D02*
X71500000Y-77673284D01*
X72500000Y-77673284D02*
G75*
G02X71500000Y-77673284I-500000J0D01*
G01*
G04 #@! TO.C,XP1*
X91423284Y-135250000D02*
G75*
G02X91423284Y-136250000I0J-500000D01*
G01*
X91423284Y-137000000D02*
X91423284Y-136250000D01*
X91423284Y-137000000D02*
X90423284Y-137000000D01*
X91423284Y-135250000D02*
X91423284Y-134500000D01*
X83750000Y-135250000D02*
X83750000Y-134500000D01*
X83750000Y-137000000D02*
X83750000Y-136250000D01*
X83750000Y-135250000D02*
G75*
G03X83750000Y-136250000I0J-500000D01*
G01*
X83750000Y-137000000D02*
X84750000Y-137000000D01*
G04 #@! TO.C,R15*
X130150000Y-112700000D02*
X129850000Y-112950000D01*
X130150000Y-112050000D02*
X129850000Y-112300000D01*
X131900000Y-113650000D02*
X131900000Y-111350000D01*
X128100000Y-111350000D02*
X128100000Y-113650000D01*
X131900000Y-113650000D02*
X130900000Y-113650000D01*
X128100000Y-113650000D02*
X129100000Y-113650000D01*
X128100000Y-111350000D02*
X129100000Y-111350000D01*
X131900000Y-111350000D02*
X130900000Y-111350000D01*
X128500000Y-113650000D02*
X129000000Y-113650000D01*
X131600000Y-113650000D02*
X131100000Y-113650000D01*
G04 #@! TO.C,C7*
X109100000Y-118350000D02*
X109500000Y-118350000D01*
X109100000Y-118350000D02*
X109100000Y-118850000D01*
X111400000Y-118350000D02*
X111400000Y-118850000D01*
X111400000Y-118350000D02*
X110900000Y-118350000D01*
X109100000Y-121650000D02*
X109600000Y-121650000D01*
X109100000Y-121650000D02*
X109100000Y-121150000D01*
X111400000Y-121650000D02*
X110900000Y-121650000D01*
X111400000Y-121650000D02*
X111400000Y-121150000D01*
X110950000Y-121650000D02*
X109550000Y-121650000D01*
X110950000Y-118350000D02*
X109550000Y-118350000D01*
G04 #@! TO.C,R9*
X153150000Y-114950000D02*
X152850000Y-115200000D01*
X153150000Y-114300000D02*
X152850000Y-114550000D01*
X154900000Y-115900000D02*
X154900000Y-113600000D01*
X151100000Y-113600000D02*
X151100000Y-115900000D01*
X154900000Y-115900000D02*
X153900000Y-115900000D01*
X151100000Y-115900000D02*
X152100000Y-115900000D01*
X151100000Y-113600000D02*
X152100000Y-113600000D01*
X154900000Y-113600000D02*
X153900000Y-113600000D01*
X151500000Y-115900000D02*
X152000000Y-115900000D01*
X154600000Y-115900000D02*
X154100000Y-115900000D01*
G04 #@! TO.C,R10*
X145150000Y-131450000D02*
X144850000Y-131700000D01*
X145150000Y-130800000D02*
X144850000Y-131050000D01*
X146900000Y-132400000D02*
X146900000Y-130100000D01*
X143100000Y-130100000D02*
X143100000Y-132400000D01*
X146900000Y-132400000D02*
X145900000Y-132400000D01*
X143100000Y-132400000D02*
X144100000Y-132400000D01*
X143100000Y-130100000D02*
X144100000Y-130100000D01*
X146900000Y-130100000D02*
X145900000Y-130100000D01*
X143500000Y-132400000D02*
X144000000Y-132400000D01*
X146600000Y-132400000D02*
X146100000Y-132400000D01*
G04 #@! TO.C,C1*
X95950000Y-133350000D02*
X94550000Y-133350000D01*
X95950000Y-136650000D02*
X94550000Y-136650000D01*
X96400000Y-136650000D02*
X96400000Y-136150000D01*
X96400000Y-136650000D02*
X95900000Y-136650000D01*
X94100000Y-136650000D02*
X94100000Y-136150000D01*
X94100000Y-136650000D02*
X94600000Y-136650000D01*
X96400000Y-133350000D02*
X95900000Y-133350000D01*
X96400000Y-133350000D02*
X96400000Y-133850000D01*
X94100000Y-133350000D02*
X94100000Y-133850000D01*
X94100000Y-133350000D02*
X94500000Y-133350000D01*
G04 #@! TO.C,C2*
X79100000Y-133350000D02*
X79500000Y-133350000D01*
X79100000Y-133350000D02*
X79100000Y-133850000D01*
X81400000Y-133350000D02*
X81400000Y-133850000D01*
X81400000Y-133350000D02*
X80900000Y-133350000D01*
X79100000Y-136650000D02*
X79600000Y-136650000D01*
X79100000Y-136650000D02*
X79100000Y-136150000D01*
X81400000Y-136650000D02*
X80900000Y-136650000D01*
X81400000Y-136650000D02*
X81400000Y-136150000D01*
X80950000Y-136650000D02*
X79550000Y-136650000D01*
X80950000Y-133350000D02*
X79550000Y-133350000D01*
G04 #@! TO.C,C3*
X80950000Y-118350000D02*
X79550000Y-118350000D01*
X80950000Y-121650000D02*
X79550000Y-121650000D01*
X81400000Y-121650000D02*
X81400000Y-121150000D01*
X81400000Y-121650000D02*
X80900000Y-121650000D01*
X79100000Y-121650000D02*
X79100000Y-121150000D01*
X79100000Y-121650000D02*
X79600000Y-121650000D01*
X81400000Y-118350000D02*
X80900000Y-118350000D01*
X81400000Y-118350000D02*
X81400000Y-118850000D01*
X79100000Y-118350000D02*
X79100000Y-118850000D01*
X79100000Y-118350000D02*
X79500000Y-118350000D01*
G04 #@! TO.C,C4*
X79100000Y-103350000D02*
X79500000Y-103350000D01*
X79100000Y-103350000D02*
X79100000Y-103850000D01*
X81400000Y-103350000D02*
X81400000Y-103850000D01*
X81400000Y-103350000D02*
X80900000Y-103350000D01*
X79100000Y-106650000D02*
X79600000Y-106650000D01*
X79100000Y-106650000D02*
X79100000Y-106150000D01*
X81400000Y-106650000D02*
X80900000Y-106650000D01*
X81400000Y-106650000D02*
X81400000Y-106150000D01*
X80950000Y-106650000D02*
X79550000Y-106650000D01*
X80950000Y-103350000D02*
X79550000Y-103350000D01*
G04 #@! TO.C,C5*
X95950000Y-103350000D02*
X94550000Y-103350000D01*
X95950000Y-106650000D02*
X94550000Y-106650000D01*
X96400000Y-106650000D02*
X96400000Y-106150000D01*
X96400000Y-106650000D02*
X95900000Y-106650000D01*
X94100000Y-106650000D02*
X94100000Y-106150000D01*
X94100000Y-106650000D02*
X94600000Y-106650000D01*
X96400000Y-103350000D02*
X95900000Y-103350000D01*
X96400000Y-103350000D02*
X96400000Y-103850000D01*
X94100000Y-103350000D02*
X94100000Y-103850000D01*
X94100000Y-103350000D02*
X94500000Y-103350000D01*
G04 #@! TO.C,C6*
X109100000Y-103350000D02*
X109500000Y-103350000D01*
X109100000Y-103350000D02*
X109100000Y-103850000D01*
X111400000Y-103350000D02*
X111400000Y-103850000D01*
X111400000Y-103350000D02*
X110900000Y-103350000D01*
X109100000Y-106650000D02*
X109600000Y-106650000D01*
X109100000Y-106650000D02*
X109100000Y-106150000D01*
X111400000Y-106650000D02*
X110900000Y-106650000D01*
X111400000Y-106650000D02*
X111400000Y-106150000D01*
X110950000Y-106650000D02*
X109550000Y-106650000D01*
X110950000Y-103350000D02*
X109550000Y-103350000D01*
G04 #@! TO.C,C8*
X109100000Y-133350000D02*
X109500000Y-133350000D01*
X109100000Y-133350000D02*
X109100000Y-133850000D01*
X111400000Y-133350000D02*
X111400000Y-133850000D01*
X111400000Y-133350000D02*
X110900000Y-133350000D01*
X109100000Y-136650000D02*
X109600000Y-136650000D01*
X109100000Y-136650000D02*
X109100000Y-136150000D01*
X111400000Y-136650000D02*
X110900000Y-136650000D01*
X111400000Y-136650000D02*
X111400000Y-136150000D01*
X110950000Y-136650000D02*
X109550000Y-136650000D01*
X110950000Y-133350000D02*
X109550000Y-133350000D01*
G04 #@! TO.C,C9*
X152500000Y-97750000D02*
X152500000Y-98850000D01*
X156500000Y-97750000D02*
X152500000Y-97750000D01*
X156500000Y-103750000D02*
X152500000Y-103750000D01*
X156500000Y-103750000D02*
X156500000Y-102650000D01*
X152500000Y-103750000D02*
X152500000Y-102650000D01*
X156500000Y-97750000D02*
X156500000Y-98850000D01*
X155500000Y-100500000D02*
X153500000Y-100500000D01*
X155500000Y-101000000D02*
X153500000Y-101000000D01*
X154500000Y-100500000D02*
X154500000Y-100250000D01*
X154500000Y-101000000D02*
X154500000Y-101250000D01*
G04 #@! TO.C,C10*
X155250000Y-109000000D02*
X155250000Y-109250000D01*
X155250000Y-108500000D02*
X155250000Y-108250000D01*
X156250000Y-109000000D02*
X154250000Y-109000000D01*
X156250000Y-108500000D02*
X154250000Y-108500000D01*
X157250000Y-105750000D02*
X157250000Y-106850000D01*
X153250000Y-111750000D02*
X153250000Y-110650000D01*
X157250000Y-111750000D02*
X157250000Y-110650000D01*
X157250000Y-111750000D02*
X153250000Y-111750000D01*
X157250000Y-105750000D02*
X153250000Y-105750000D01*
X153250000Y-105750000D02*
X153250000Y-106850000D01*
G04 #@! TO.C,C11*
X148000000Y-97750000D02*
X148000000Y-98850000D01*
X152000000Y-97750000D02*
X148000000Y-97750000D01*
X152000000Y-103750000D02*
X148000000Y-103750000D01*
X152000000Y-103750000D02*
X152000000Y-102650000D01*
X148000000Y-103750000D02*
X148000000Y-102650000D01*
X152000000Y-97750000D02*
X152000000Y-98850000D01*
X151000000Y-100500000D02*
X149000000Y-100500000D01*
X151000000Y-101000000D02*
X149000000Y-101000000D01*
X150000000Y-100500000D02*
X150000000Y-100250000D01*
X150000000Y-101000000D02*
X150000000Y-101250000D01*
G04 #@! TO.C,C12*
X150750000Y-109000000D02*
X150750000Y-109250000D01*
X150750000Y-108500000D02*
X150750000Y-108250000D01*
X151750000Y-109000000D02*
X149750000Y-109000000D01*
X151750000Y-108500000D02*
X149750000Y-108500000D01*
X152750000Y-105750000D02*
X152750000Y-106850000D01*
X148750000Y-111750000D02*
X148750000Y-110650000D01*
X152750000Y-111750000D02*
X152750000Y-110650000D01*
X152750000Y-111750000D02*
X148750000Y-111750000D01*
X152750000Y-105750000D02*
X148750000Y-105750000D01*
X148750000Y-105750000D02*
X148750000Y-106850000D01*
G04 #@! TO.C,R1*
X97300000Y-119900000D02*
X97050000Y-119600000D01*
X97950000Y-119900000D02*
X97700000Y-119600000D01*
X96350000Y-121650000D02*
X98650000Y-121650000D01*
X98650000Y-117850000D02*
X96350000Y-117850000D01*
X96350000Y-121650000D02*
X96350000Y-120650000D01*
X96350000Y-117850000D02*
X96350000Y-118850000D01*
X98650000Y-117850000D02*
X98650000Y-118850000D01*
X98650000Y-121650000D02*
X98650000Y-120650000D01*
X96350000Y-118250000D02*
X96350000Y-118750000D01*
X96350000Y-121350000D02*
X96350000Y-120850000D01*
G04 #@! TO.C,R2*
X85100000Y-121350000D02*
X85100000Y-120850000D01*
X85100000Y-118250000D02*
X85100000Y-118750000D01*
X87400000Y-121650000D02*
X87400000Y-120650000D01*
X87400000Y-117850000D02*
X87400000Y-118850000D01*
X85100000Y-117850000D02*
X85100000Y-118850000D01*
X85100000Y-121650000D02*
X85100000Y-120650000D01*
X87400000Y-117850000D02*
X85100000Y-117850000D01*
X85100000Y-121650000D02*
X87400000Y-121650000D01*
X86700000Y-119900000D02*
X86450000Y-119600000D01*
X86050000Y-119900000D02*
X85800000Y-119600000D01*
G04 #@! TO.C,R3*
X87850000Y-121350000D02*
X87850000Y-120850000D01*
X87850000Y-118250000D02*
X87850000Y-118750000D01*
X90150000Y-121650000D02*
X90150000Y-120650000D01*
X90150000Y-117850000D02*
X90150000Y-118850000D01*
X87850000Y-117850000D02*
X87850000Y-118850000D01*
X87850000Y-121650000D02*
X87850000Y-120650000D01*
X90150000Y-117850000D02*
X87850000Y-117850000D01*
X87850000Y-121650000D02*
X90150000Y-121650000D01*
X89450000Y-119900000D02*
X89200000Y-119600000D01*
X88800000Y-119900000D02*
X88550000Y-119600000D01*
G04 #@! TO.C,R4*
X91550000Y-119900000D02*
X91300000Y-119600000D01*
X92200000Y-119900000D02*
X91950000Y-119600000D01*
X90600000Y-121650000D02*
X92900000Y-121650000D01*
X92900000Y-117850000D02*
X90600000Y-117850000D01*
X90600000Y-121650000D02*
X90600000Y-120650000D01*
X90600000Y-117850000D02*
X90600000Y-118850000D01*
X92900000Y-117850000D02*
X92900000Y-118850000D01*
X92900000Y-121650000D02*
X92900000Y-120650000D01*
X90600000Y-118250000D02*
X90600000Y-118750000D01*
X90600000Y-121350000D02*
X90600000Y-120850000D01*
G04 #@! TO.C,R5*
X93350000Y-121350000D02*
X93350000Y-120850000D01*
X93350000Y-118250000D02*
X93350000Y-118750000D01*
X95650000Y-121650000D02*
X95650000Y-120650000D01*
X95650000Y-117850000D02*
X95650000Y-118850000D01*
X93350000Y-117850000D02*
X93350000Y-118850000D01*
X93350000Y-121650000D02*
X93350000Y-120650000D01*
X95650000Y-117850000D02*
X93350000Y-117850000D01*
X93350000Y-121650000D02*
X95650000Y-121650000D01*
X94950000Y-119900000D02*
X94700000Y-119600000D01*
X94300000Y-119900000D02*
X94050000Y-119600000D01*
G04 #@! TO.C,R6*
X99100000Y-121350000D02*
X99100000Y-120850000D01*
X99100000Y-118250000D02*
X99100000Y-118750000D01*
X101400000Y-121650000D02*
X101400000Y-120650000D01*
X101400000Y-117850000D02*
X101400000Y-118850000D01*
X99100000Y-117850000D02*
X99100000Y-118850000D01*
X99100000Y-121650000D02*
X99100000Y-120650000D01*
X101400000Y-117850000D02*
X99100000Y-117850000D01*
X99100000Y-121650000D02*
X101400000Y-121650000D01*
X100700000Y-119900000D02*
X100450000Y-119600000D01*
X100050000Y-119900000D02*
X99800000Y-119600000D01*
G04 #@! TO.C,R7*
X102800000Y-119900000D02*
X102550000Y-119600000D01*
X103450000Y-119900000D02*
X103200000Y-119600000D01*
X101850000Y-121650000D02*
X104150000Y-121650000D01*
X104150000Y-117850000D02*
X101850000Y-117850000D01*
X101850000Y-121650000D02*
X101850000Y-120650000D01*
X101850000Y-117850000D02*
X101850000Y-118850000D01*
X104150000Y-117850000D02*
X104150000Y-118850000D01*
X104150000Y-121650000D02*
X104150000Y-120650000D01*
X101850000Y-118250000D02*
X101850000Y-118750000D01*
X101850000Y-121350000D02*
X101850000Y-120850000D01*
G04 #@! TO.C,R8*
X104600000Y-121350000D02*
X104600000Y-120850000D01*
X104600000Y-118250000D02*
X104600000Y-118750000D01*
X106900000Y-121650000D02*
X106900000Y-120650000D01*
X106900000Y-117850000D02*
X106900000Y-118850000D01*
X104600000Y-117850000D02*
X104600000Y-118850000D01*
X104600000Y-121650000D02*
X104600000Y-120650000D01*
X106900000Y-117850000D02*
X104600000Y-117850000D01*
X104600000Y-121650000D02*
X106900000Y-121650000D01*
X106200000Y-119900000D02*
X105950000Y-119600000D01*
X105550000Y-119900000D02*
X105300000Y-119600000D01*
G04 #@! TO.C,XP2*
X98750000Y-137000000D02*
X99750000Y-137000000D01*
X98750000Y-135250000D02*
G75*
G03X98750000Y-136250000I0J-500000D01*
G01*
X98750000Y-137000000D02*
X98750000Y-136250000D01*
X98750000Y-135250000D02*
X98750000Y-134500000D01*
X106423284Y-135250000D02*
X106423284Y-134500000D01*
X106423284Y-137000000D02*
X105423284Y-137000000D01*
X106423284Y-137000000D02*
X106423284Y-136250000D01*
X106423284Y-135250000D02*
G75*
G02X106423284Y-136250000I0J-500000D01*
G01*
G04 #@! TO.C,XP3*
X84076716Y-89750000D02*
G75*
G02X84076716Y-88750000I0J500000D01*
G01*
X84076716Y-88000000D02*
X84076716Y-88750000D01*
X84076716Y-88000000D02*
X85076716Y-88000000D01*
X84076716Y-89750000D02*
X84076716Y-90500000D01*
X91750000Y-89750000D02*
X91750000Y-90500000D01*
X91750000Y-88000000D02*
X91750000Y-88750000D01*
X91750000Y-89750000D02*
G75*
G03X91750000Y-88750000I0J500000D01*
G01*
X91750000Y-88000000D02*
X90750000Y-88000000D01*
G04 #@! TO.C,XP4*
X106750000Y-88000000D02*
X105750000Y-88000000D01*
X106750000Y-89750000D02*
G75*
G03X106750000Y-88750000I0J500000D01*
G01*
X106750000Y-88000000D02*
X106750000Y-88750000D01*
X106750000Y-89750000D02*
X106750000Y-90500000D01*
X99076716Y-89750000D02*
X99076716Y-90500000D01*
X99076716Y-88000000D02*
X100076716Y-88000000D01*
X99076716Y-88000000D02*
X99076716Y-88750000D01*
X99076716Y-89750000D02*
G75*
G02X99076716Y-88750000I0J500000D01*
G01*
G04 #@! TO.C,XP5*
X119750000Y-124000000D02*
X119750000Y-123000000D01*
X118000000Y-124000000D02*
G75*
G03X119000000Y-124000000I500000J0D01*
G01*
X119750000Y-124000000D02*
X119000000Y-124000000D01*
X118000000Y-124000000D02*
X117250000Y-124000000D01*
X118000000Y-116326716D02*
X117250000Y-116326716D01*
X119750000Y-116326716D02*
X119750000Y-117326716D01*
X119750000Y-116326716D02*
X119000000Y-116326716D01*
X118000000Y-116326716D02*
G75*
G02X119000000Y-116326716I500000J0D01*
G01*
D10*
G04 #@! TO.C,VD1*
X127280000Y-98610000D02*
X126350000Y-98610000D01*
X124120000Y-98610000D02*
X125050000Y-98610000D01*
X127280000Y-98610000D02*
X127280000Y-97150000D01*
X124120000Y-98610000D02*
X124120000Y-97150000D01*
D11*
G04 #@! TO.C,R13*
X137650000Y-122200000D02*
X137350000Y-122450000D01*
X137650000Y-121550000D02*
X137350000Y-121800000D01*
X139400000Y-123150000D02*
X139400000Y-120850000D01*
X135600000Y-120850000D02*
X135600000Y-123150000D01*
X139400000Y-123150000D02*
X138400000Y-123150000D01*
X135600000Y-123150000D02*
X136600000Y-123150000D01*
X135600000Y-120850000D02*
X136600000Y-120850000D01*
X139400000Y-120850000D02*
X138400000Y-120850000D01*
X136000000Y-123150000D02*
X136500000Y-123150000D01*
X139100000Y-123150000D02*
X138600000Y-123150000D01*
G04 #@! TO.C,R12*
X139100000Y-108650000D02*
X138600000Y-108650000D01*
X136000000Y-108650000D02*
X136500000Y-108650000D01*
X139400000Y-106350000D02*
X138400000Y-106350000D01*
X135600000Y-106350000D02*
X136600000Y-106350000D01*
X135600000Y-108650000D02*
X136600000Y-108650000D01*
X139400000Y-108650000D02*
X138400000Y-108650000D01*
X135600000Y-106350000D02*
X135600000Y-108650000D01*
X139400000Y-108650000D02*
X139400000Y-106350000D01*
X137650000Y-107050000D02*
X137350000Y-107300000D01*
X137650000Y-107700000D02*
X137350000Y-107950000D01*
G04 #@! TO.C,R14*
X131600000Y-128650000D02*
X131100000Y-128650000D01*
X128500000Y-128650000D02*
X129000000Y-128650000D01*
X131900000Y-126350000D02*
X130900000Y-126350000D01*
X128100000Y-126350000D02*
X129100000Y-126350000D01*
X128100000Y-128650000D02*
X129100000Y-128650000D01*
X131900000Y-128650000D02*
X130900000Y-128650000D01*
X128100000Y-126350000D02*
X128100000Y-128650000D01*
X131900000Y-128650000D02*
X131900000Y-126350000D01*
X130150000Y-127050000D02*
X129850000Y-127300000D01*
X130150000Y-127700000D02*
X129850000Y-127950000D01*
G04 #@! TO.C,R16*
X131600000Y-98650000D02*
X131100000Y-98650000D01*
X128500000Y-98650000D02*
X129000000Y-98650000D01*
X131900000Y-96350000D02*
X130900000Y-96350000D01*
X128100000Y-96350000D02*
X129100000Y-96350000D01*
X128100000Y-98650000D02*
X129100000Y-98650000D01*
X131900000Y-98650000D02*
X130900000Y-98650000D01*
X128100000Y-96350000D02*
X128100000Y-98650000D01*
X131900000Y-98650000D02*
X131900000Y-96350000D01*
X130150000Y-97050000D02*
X129850000Y-97300000D01*
X130150000Y-97700000D02*
X129850000Y-97950000D01*
G04 #@! TO.C,R17*
X146600000Y-98650000D02*
X146100000Y-98650000D01*
X143500000Y-98650000D02*
X144000000Y-98650000D01*
X146900000Y-96350000D02*
X145900000Y-96350000D01*
X143100000Y-96350000D02*
X144100000Y-96350000D01*
X143100000Y-98650000D02*
X144100000Y-98650000D01*
X146900000Y-98650000D02*
X145900000Y-98650000D01*
X143100000Y-96350000D02*
X143100000Y-98650000D01*
X146900000Y-98650000D02*
X146900000Y-96350000D01*
X145150000Y-97050000D02*
X144850000Y-97300000D01*
X145150000Y-97700000D02*
X144850000Y-97950000D01*
G04 #@! TO.C,R18*
X160150000Y-97700000D02*
X159850000Y-97950000D01*
X160150000Y-97050000D02*
X159850000Y-97300000D01*
X161900000Y-98650000D02*
X161900000Y-96350000D01*
X158100000Y-96350000D02*
X158100000Y-98650000D01*
X161900000Y-98650000D02*
X160900000Y-98650000D01*
X158100000Y-98650000D02*
X159100000Y-98650000D01*
X158100000Y-96350000D02*
X159100000Y-96350000D01*
X161900000Y-96350000D02*
X160900000Y-96350000D01*
X158500000Y-98650000D02*
X159000000Y-98650000D01*
X161600000Y-98650000D02*
X161100000Y-98650000D01*
G04 #@! TO.C,R19*
X160150000Y-112700000D02*
X159850000Y-112950000D01*
X160150000Y-112050000D02*
X159850000Y-112300000D01*
X161900000Y-113650000D02*
X161900000Y-111350000D01*
X158100000Y-111350000D02*
X158100000Y-113650000D01*
X161900000Y-113650000D02*
X160900000Y-113650000D01*
X158100000Y-113650000D02*
X159100000Y-113650000D01*
X158100000Y-111350000D02*
X159100000Y-111350000D01*
X161900000Y-111350000D02*
X160900000Y-111350000D01*
X158500000Y-113650000D02*
X159000000Y-113650000D01*
X161600000Y-113650000D02*
X161100000Y-113650000D01*
G04 #@! TO.C,R20*
X161700000Y-123100000D02*
X161950000Y-123400000D01*
X161050000Y-123100000D02*
X161300000Y-123400000D01*
X162650000Y-121350000D02*
X160350000Y-121350000D01*
X160350000Y-125150000D02*
X162650000Y-125150000D01*
X162650000Y-121350000D02*
X162650000Y-122350000D01*
X162650000Y-125150000D02*
X162650000Y-124150000D01*
X160350000Y-125150000D02*
X160350000Y-124150000D01*
X160350000Y-121350000D02*
X160350000Y-122350000D01*
X162650000Y-124750000D02*
X162650000Y-124250000D01*
X162650000Y-121650000D02*
X162650000Y-122150000D01*
G04 #@! TO.C,R11*
X146600000Y-128150000D02*
X146100000Y-128150000D01*
X143500000Y-128150000D02*
X144000000Y-128150000D01*
X146900000Y-125850000D02*
X145900000Y-125850000D01*
X143100000Y-125850000D02*
X144100000Y-125850000D01*
X143100000Y-128150000D02*
X144100000Y-128150000D01*
X146900000Y-128150000D02*
X145900000Y-128150000D01*
X143100000Y-125850000D02*
X143100000Y-128150000D01*
X146900000Y-128150000D02*
X146900000Y-125850000D01*
X145150000Y-126550000D02*
X144850000Y-126800000D01*
X145150000Y-127200000D02*
X144850000Y-127450000D01*
G04 #@! TO.C,C13*
X127750000Y-116750000D02*
X127750000Y-117850000D01*
X131750000Y-116750000D02*
X127750000Y-116750000D01*
X131750000Y-122750000D02*
X127750000Y-122750000D01*
X131750000Y-122750000D02*
X131750000Y-121650000D01*
X127750000Y-122750000D02*
X127750000Y-121650000D01*
X131750000Y-116750000D02*
X131750000Y-117850000D01*
X130750000Y-119500000D02*
X128750000Y-119500000D01*
X130750000Y-120000000D02*
X128750000Y-120000000D01*
X129750000Y-119500000D02*
X129750000Y-119250000D01*
X129750000Y-120000000D02*
X129750000Y-120250000D01*
G04 #@! TO.C,C14*
X129750000Y-105500000D02*
X129750000Y-105750000D01*
X129750000Y-105000000D02*
X129750000Y-104750000D01*
X130750000Y-105500000D02*
X128750000Y-105500000D01*
X130750000Y-105000000D02*
X128750000Y-105000000D01*
X131750000Y-102250000D02*
X131750000Y-103350000D01*
X127750000Y-108250000D02*
X127750000Y-107150000D01*
X131750000Y-108250000D02*
X131750000Y-107150000D01*
X131750000Y-108250000D02*
X127750000Y-108250000D01*
X131750000Y-102250000D02*
X127750000Y-102250000D01*
X127750000Y-102250000D02*
X127750000Y-103350000D01*
G04 #@! TO.C,C15*
X135500000Y-131000000D02*
X135750000Y-131000000D01*
X135000000Y-131000000D02*
X134750000Y-131000000D01*
X135500000Y-130000000D02*
X135500000Y-132000000D01*
X135000000Y-130000000D02*
X135000000Y-132000000D01*
X132250000Y-129000000D02*
X133350000Y-129000000D01*
X138250000Y-133000000D02*
X137150000Y-133000000D01*
X138250000Y-129000000D02*
X137150000Y-129000000D01*
X138250000Y-129000000D02*
X138250000Y-133000000D01*
X132250000Y-129000000D02*
X132250000Y-133000000D01*
X132250000Y-133000000D02*
X133350000Y-133000000D01*
D10*
G04 #@! TO.C,VD2*
X151750000Y-130500000D02*
X151750000Y-129500000D01*
X151750000Y-129500000D02*
X151250000Y-130000000D01*
X151250000Y-130000000D02*
X151750000Y-130500000D01*
X151250000Y-128500000D02*
X151750000Y-128000000D01*
X151750000Y-128000000D02*
X151250000Y-127500000D01*
X151250000Y-127500000D02*
X151250000Y-128500000D01*
X161250000Y-128000000D02*
G75*
G03X161250000Y-129000000I0J-500000D01*
G01*
X161250000Y-130000000D02*
G75*
G03X161250000Y-129000000I0J500000D01*
G01*
X160000000Y-125250000D02*
X160000000Y-124250000D01*
X160000000Y-124250000D02*
X159000000Y-124250000D01*
X154000000Y-124250000D02*
X153000000Y-124250000D01*
X153000000Y-124250000D02*
X153000000Y-125250000D01*
X160000000Y-132750000D02*
X160000000Y-133750000D01*
X160000000Y-133750000D02*
X159000000Y-133750000D01*
X153000000Y-132750000D02*
X153000000Y-133750000D01*
X153000000Y-133750000D02*
X154000000Y-133750000D01*
G04 #@! TO.C,FU1*
X166500000Y-98500000D02*
X167500000Y-98500000D01*
X166500000Y-97000000D02*
X166500000Y-98500000D01*
X167500000Y-97000000D02*
X166500000Y-97000000D01*
X167500000Y-98500000D02*
X167500000Y-97000000D01*
X167000000Y-99000000D02*
X167000000Y-96500000D01*
G04 #@! TO.C,FU2*
X163060660Y-133439340D02*
X164828427Y-131671573D01*
X163767767Y-133439340D02*
X164828427Y-132378680D01*
X164828427Y-132378680D02*
X164121320Y-131671573D01*
X164121320Y-131671573D02*
X163060660Y-132732233D01*
X163060660Y-132732233D02*
X163767767Y-133439340D01*
G04 #@! TO.C,VD3*
X123120000Y-128640000D02*
X124050000Y-128640000D01*
X126280000Y-128640000D02*
X125350000Y-128640000D01*
X123120000Y-128640000D02*
X123120000Y-130100000D01*
X126280000Y-128640000D02*
X126280000Y-130100000D01*
D11*
G04 #@! TO.C,XP7*
X169250000Y-116000000D02*
X169250000Y-115250000D01*
X169250000Y-116000000D02*
X168500000Y-116000000D01*
X167500000Y-116000000D02*
X166750000Y-116000000D01*
X167500000Y-108350000D02*
X166750000Y-108350000D01*
X169250000Y-108350000D02*
X168500000Y-108350000D01*
X166750000Y-116000000D02*
X166750000Y-115250000D01*
X166750000Y-108350000D02*
X166750000Y-109100000D01*
X169250000Y-109100000D02*
X169250000Y-108350000D01*
G04 #@! TO.C,XP13*
X128250000Y-76250000D02*
X128250000Y-75250000D01*
X126500000Y-76250000D02*
G75*
G03X127500000Y-76250000I500000J0D01*
G01*
X128250000Y-76250000D02*
X127500000Y-76250000D01*
X126500000Y-76250000D02*
X125750000Y-76250000D01*
X126500000Y-68576716D02*
X125750000Y-68576716D01*
X128250000Y-68576716D02*
X128250000Y-69576716D01*
X128250000Y-68576716D02*
X127500000Y-68576716D01*
X126500000Y-68576716D02*
G75*
G02X127500000Y-68576716I500000J0D01*
G01*
G04 #@! TO.C,XP16*
X165000000Y-76423284D02*
G75*
G02X164000000Y-76423284I-500000J0D01*
G01*
X163250000Y-76423284D02*
X164000000Y-76423284D01*
X163250000Y-76423284D02*
X163250000Y-75423284D01*
X165000000Y-76423284D02*
X165750000Y-76423284D01*
X165000000Y-68750000D02*
X165750000Y-68750000D01*
X163250000Y-68750000D02*
X164000000Y-68750000D01*
X165000000Y-68750000D02*
G75*
G03X164000000Y-68750000I-500000J0D01*
G01*
X163250000Y-68750000D02*
X163250000Y-69750000D01*
G04 #@! TO.C,C17*
X130800000Y-74150000D02*
X132200000Y-74150000D01*
X130800000Y-70850000D02*
X132200000Y-70850000D01*
X130350000Y-70850000D02*
X130350000Y-71350000D01*
X130350000Y-70850000D02*
X130850000Y-70850000D01*
X132650000Y-70850000D02*
X132650000Y-71350000D01*
X132650000Y-70850000D02*
X132150000Y-70850000D01*
X130350000Y-74150000D02*
X130850000Y-74150000D01*
X130350000Y-74150000D02*
X130350000Y-73650000D01*
X132650000Y-74150000D02*
X132650000Y-73650000D01*
X132650000Y-74150000D02*
X132250000Y-74150000D01*
G04 #@! TO.C,C20*
X146900000Y-74150000D02*
X146500000Y-74150000D01*
X146900000Y-74150000D02*
X146900000Y-73650000D01*
X144600000Y-74150000D02*
X144600000Y-73650000D01*
X144600000Y-74150000D02*
X145100000Y-74150000D01*
X146900000Y-70850000D02*
X146400000Y-70850000D01*
X146900000Y-70850000D02*
X146900000Y-71350000D01*
X144600000Y-70850000D02*
X145100000Y-70850000D01*
X144600000Y-70850000D02*
X144600000Y-71350000D01*
X145050000Y-70850000D02*
X146450000Y-70850000D01*
X145050000Y-74150000D02*
X146450000Y-74150000D01*
G04 #@! TO.C,C23*
X158050000Y-74150000D02*
X159450000Y-74150000D01*
X158050000Y-70850000D02*
X159450000Y-70850000D01*
X157600000Y-70850000D02*
X157600000Y-71350000D01*
X157600000Y-70850000D02*
X158100000Y-70850000D01*
X159900000Y-70850000D02*
X159900000Y-71350000D01*
X159900000Y-70850000D02*
X159400000Y-70850000D01*
X157600000Y-74150000D02*
X158100000Y-74150000D01*
X157600000Y-74150000D02*
X157600000Y-73650000D01*
X159900000Y-74150000D02*
X159900000Y-73650000D01*
X159900000Y-74150000D02*
X159500000Y-74150000D01*
G04 #@! TO.C,C22*
D10*
X159392857Y-49107142D02*
X159440476Y-49154761D01*
X159583333Y-49202380D01*
X159678571Y-49202380D01*
X159821428Y-49154761D01*
X159916666Y-49059523D01*
X159964285Y-48964285D01*
X160011904Y-48773809D01*
X160011904Y-48630952D01*
X159964285Y-48440476D01*
X159916666Y-48345238D01*
X159821428Y-48250000D01*
X159678571Y-48202380D01*
X159583333Y-48202380D01*
X159440476Y-48250000D01*
X159392857Y-48297619D01*
X159011904Y-48297619D02*
X158964285Y-48250000D01*
X158869047Y-48202380D01*
X158630952Y-48202380D01*
X158535714Y-48250000D01*
X158488095Y-48297619D01*
X158440476Y-48392857D01*
X158440476Y-48488095D01*
X158488095Y-48630952D01*
X159059523Y-49202380D01*
X158440476Y-49202380D01*
X158059523Y-48297619D02*
X158011904Y-48250000D01*
X157916666Y-48202380D01*
X157678571Y-48202380D01*
X157583333Y-48250000D01*
X157535714Y-48297619D01*
X157488095Y-48392857D01*
X157488095Y-48488095D01*
X157535714Y-48630952D01*
X158107142Y-49202380D01*
X157488095Y-49202380D01*
G04 #@! TO.C,C16*
X132142857Y-49357142D02*
X132190476Y-49404761D01*
X132333333Y-49452380D01*
X132428571Y-49452380D01*
X132571428Y-49404761D01*
X132666666Y-49309523D01*
X132714285Y-49214285D01*
X132761904Y-49023809D01*
X132761904Y-48880952D01*
X132714285Y-48690476D01*
X132666666Y-48595238D01*
X132571428Y-48500000D01*
X132428571Y-48452380D01*
X132333333Y-48452380D01*
X132190476Y-48500000D01*
X132142857Y-48547619D01*
X131190476Y-49452380D02*
X131761904Y-49452380D01*
X131476190Y-49452380D02*
X131476190Y-48452380D01*
X131571428Y-48595238D01*
X131666666Y-48690476D01*
X131761904Y-48738095D01*
X130333333Y-48452380D02*
X130523809Y-48452380D01*
X130619047Y-48500000D01*
X130666666Y-48547619D01*
X130761904Y-48690476D01*
X130809523Y-48880952D01*
X130809523Y-49261904D01*
X130761904Y-49357142D01*
X130714285Y-49404761D01*
X130619047Y-49452380D01*
X130428571Y-49452380D01*
X130333333Y-49404761D01*
X130285714Y-49357142D01*
X130238095Y-49261904D01*
X130238095Y-49023809D01*
X130285714Y-48928571D01*
X130333333Y-48880952D01*
X130428571Y-48833333D01*
X130619047Y-48833333D01*
X130714285Y-48880952D01*
X130761904Y-48928571D01*
X130809523Y-49023809D01*
G04 #@! TO.C,C19*
X146392857Y-49357142D02*
X146440476Y-49404761D01*
X146583333Y-49452380D01*
X146678571Y-49452380D01*
X146821428Y-49404761D01*
X146916666Y-49309523D01*
X146964285Y-49214285D01*
X147011904Y-49023809D01*
X147011904Y-48880952D01*
X146964285Y-48690476D01*
X146916666Y-48595238D01*
X146821428Y-48500000D01*
X146678571Y-48452380D01*
X146583333Y-48452380D01*
X146440476Y-48500000D01*
X146392857Y-48547619D01*
X145440476Y-49452380D02*
X146011904Y-49452380D01*
X145726190Y-49452380D02*
X145726190Y-48452380D01*
X145821428Y-48595238D01*
X145916666Y-48690476D01*
X146011904Y-48738095D01*
X144964285Y-49452380D02*
X144773809Y-49452380D01*
X144678571Y-49404761D01*
X144630952Y-49357142D01*
X144535714Y-49214285D01*
X144488095Y-49023809D01*
X144488095Y-48642857D01*
X144535714Y-48547619D01*
X144583333Y-48500000D01*
X144678571Y-48452380D01*
X144869047Y-48452380D01*
X144964285Y-48500000D01*
X145011904Y-48547619D01*
X145059523Y-48642857D01*
X145059523Y-48880952D01*
X145011904Y-48976190D01*
X144964285Y-49023809D01*
X144869047Y-49071428D01*
X144678571Y-49071428D01*
X144583333Y-49023809D01*
X144535714Y-48976190D01*
X144488095Y-48880952D01*
G04 #@! TO.C,C21*
X146392857Y-59857142D02*
X146440476Y-59904761D01*
X146583333Y-59952380D01*
X146678571Y-59952380D01*
X146821428Y-59904761D01*
X146916666Y-59809523D01*
X146964285Y-59714285D01*
X147011904Y-59523809D01*
X147011904Y-59380952D01*
X146964285Y-59190476D01*
X146916666Y-59095238D01*
X146821428Y-59000000D01*
X146678571Y-58952380D01*
X146583333Y-58952380D01*
X146440476Y-59000000D01*
X146392857Y-59047619D01*
X146011904Y-59047619D02*
X145964285Y-59000000D01*
X145869047Y-58952380D01*
X145630952Y-58952380D01*
X145535714Y-59000000D01*
X145488095Y-59047619D01*
X145440476Y-59142857D01*
X145440476Y-59238095D01*
X145488095Y-59380952D01*
X146059523Y-59952380D01*
X145440476Y-59952380D01*
X144488095Y-59952380D02*
X145059523Y-59952380D01*
X144773809Y-59952380D02*
X144773809Y-58952380D01*
X144869047Y-59095238D01*
X144964285Y-59190476D01*
X145059523Y-59238095D01*
G04 #@! TO.C,C24*
X159392857Y-59607142D02*
X159440476Y-59654761D01*
X159583333Y-59702380D01*
X159678571Y-59702380D01*
X159821428Y-59654761D01*
X159916666Y-59559523D01*
X159964285Y-59464285D01*
X160011904Y-59273809D01*
X160011904Y-59130952D01*
X159964285Y-58940476D01*
X159916666Y-58845238D01*
X159821428Y-58750000D01*
X159678571Y-58702380D01*
X159583333Y-58702380D01*
X159440476Y-58750000D01*
X159392857Y-58797619D01*
X159011904Y-58797619D02*
X158964285Y-58750000D01*
X158869047Y-58702380D01*
X158630952Y-58702380D01*
X158535714Y-58750000D01*
X158488095Y-58797619D01*
X158440476Y-58892857D01*
X158440476Y-58988095D01*
X158488095Y-59130952D01*
X159059523Y-59702380D01*
X158440476Y-59702380D01*
X157583333Y-59035714D02*
X157583333Y-59702380D01*
X157821428Y-58654761D02*
X158059523Y-59369047D01*
X157440476Y-59369047D01*
G04 #@! TO.C,C18*
X132142857Y-59857142D02*
X132190476Y-59904761D01*
X132333333Y-59952380D01*
X132428571Y-59952380D01*
X132571428Y-59904761D01*
X132666666Y-59809523D01*
X132714285Y-59714285D01*
X132761904Y-59523809D01*
X132761904Y-59380952D01*
X132714285Y-59190476D01*
X132666666Y-59095238D01*
X132571428Y-59000000D01*
X132428571Y-58952380D01*
X132333333Y-58952380D01*
X132190476Y-59000000D01*
X132142857Y-59047619D01*
X131190476Y-59952380D02*
X131761904Y-59952380D01*
X131476190Y-59952380D02*
X131476190Y-58952380D01*
X131571428Y-59095238D01*
X131666666Y-59190476D01*
X131761904Y-59238095D01*
X130619047Y-59380952D02*
X130714285Y-59333333D01*
X130761904Y-59285714D01*
X130809523Y-59190476D01*
X130809523Y-59142857D01*
X130761904Y-59047619D01*
X130714285Y-59000000D01*
X130619047Y-58952380D01*
X130428571Y-58952380D01*
X130333333Y-59000000D01*
X130285714Y-59047619D01*
X130238095Y-59142857D01*
X130238095Y-59190476D01*
X130285714Y-59285714D01*
X130333333Y-59333333D01*
X130428571Y-59380952D01*
X130619047Y-59380952D01*
X130714285Y-59428571D01*
X130761904Y-59476190D01*
X130809523Y-59571428D01*
X130809523Y-59761904D01*
X130761904Y-59857142D01*
X130714285Y-59904761D01*
X130619047Y-59952380D01*
X130428571Y-59952380D01*
X130333333Y-59904761D01*
X130285714Y-59857142D01*
X130238095Y-59761904D01*
X130238095Y-59571428D01*
X130285714Y-59476190D01*
X130333333Y-59428571D01*
X130428571Y-59380952D01*
G04 #@! TO.C,XP8*
D12*
X77452381Y-57440476D02*
X78452381Y-58107142D01*
X77452381Y-58107142D02*
X78452381Y-57440476D01*
X78452381Y-58488095D02*
X77452381Y-58488095D01*
X77452381Y-58869047D01*
X77500001Y-58964285D01*
X77547620Y-59011904D01*
X77642858Y-59059523D01*
X77785715Y-59059523D01*
X77880953Y-59011904D01*
X77928572Y-58964285D01*
X77976191Y-58869047D01*
X77976191Y-58488095D01*
X77880953Y-59630952D02*
X77833334Y-59535714D01*
X77785715Y-59488095D01*
X77690477Y-59440476D01*
X77642858Y-59440476D01*
X77547620Y-59488095D01*
X77500001Y-59535714D01*
X77452381Y-59630952D01*
X77452381Y-59821428D01*
X77500001Y-59916666D01*
X77547620Y-59964285D01*
X77642858Y-60011904D01*
X77690477Y-60011904D01*
X77785715Y-59964285D01*
X77833334Y-59916666D01*
X77880953Y-59821428D01*
X77880953Y-59630952D01*
X77928572Y-59535714D01*
X77976191Y-59488095D01*
X78071429Y-59440476D01*
X78261905Y-59440476D01*
X78357143Y-59488095D01*
X78404762Y-59535714D01*
X78452381Y-59630952D01*
X78452381Y-59821428D01*
X78404762Y-59916666D01*
X78357143Y-59964285D01*
X78261905Y-60011904D01*
X78071429Y-60011904D01*
X77976191Y-59964285D01*
X77928572Y-59916666D01*
X77880953Y-59821428D01*
G04 #@! TO.C,XP11*
X111952380Y-72464284D02*
X112952380Y-73130951D01*
X111952380Y-73130951D02*
X112952380Y-72464284D01*
X112952380Y-73511903D02*
X111952380Y-73511903D01*
X111952380Y-73892856D01*
X112000000Y-73988094D01*
X112047619Y-74035713D01*
X112142857Y-74083332D01*
X112285714Y-74083332D01*
X112380952Y-74035713D01*
X112428571Y-73988094D01*
X112476190Y-73892856D01*
X112476190Y-73511903D01*
X112952380Y-75035713D02*
X112952380Y-74464284D01*
X112952380Y-74749999D02*
X111952380Y-74749999D01*
X112095238Y-74654760D01*
X112190476Y-74559522D01*
X112238095Y-74464284D01*
X112952380Y-75988094D02*
X112952380Y-75416665D01*
X112952380Y-75702379D02*
X111952380Y-75702379D01*
X112095238Y-75607141D01*
X112190476Y-75511903D01*
X112238095Y-75416665D01*
G04 #@! TO.C,XP10*
X111952382Y-57464284D02*
X112952382Y-58130951D01*
X111952382Y-58130951D02*
X112952382Y-57464284D01*
X112952382Y-58511903D02*
X111952382Y-58511903D01*
X111952382Y-58892856D01*
X112000002Y-58988094D01*
X112047621Y-59035713D01*
X112142859Y-59083332D01*
X112285716Y-59083332D01*
X112380954Y-59035713D01*
X112428573Y-58988094D01*
X112476192Y-58892856D01*
X112476192Y-58511903D01*
X112952382Y-60035713D02*
X112952382Y-59464284D01*
X112952382Y-59749999D02*
X111952382Y-59749999D01*
X112095240Y-59654760D01*
X112190478Y-59559522D01*
X112238097Y-59464284D01*
X111952382Y-60654760D02*
X111952382Y-60749999D01*
X112000002Y-60845237D01*
X112047621Y-60892856D01*
X112142859Y-60940475D01*
X112333335Y-60988094D01*
X112571430Y-60988094D01*
X112761906Y-60940475D01*
X112857144Y-60892856D01*
X112904763Y-60845237D01*
X112952382Y-60749999D01*
X112952382Y-60654760D01*
X112904763Y-60559522D01*
X112857144Y-60511903D01*
X112761906Y-60464284D01*
X112571430Y-60416665D01*
X112333335Y-60416665D01*
X112142859Y-60464284D01*
X112047621Y-60511903D01*
X112000002Y-60559522D01*
X111952382Y-60654760D01*
G04 #@! TO.C,XP9*
X77452380Y-72440476D02*
X78452380Y-73107142D01*
X77452380Y-73107142D02*
X78452380Y-72440476D01*
X78452380Y-73488095D02*
X77452380Y-73488095D01*
X77452380Y-73869047D01*
X77500000Y-73964285D01*
X77547619Y-74011904D01*
X77642857Y-74059523D01*
X77785714Y-74059523D01*
X77880952Y-74011904D01*
X77928571Y-73964285D01*
X77976190Y-73869047D01*
X77976190Y-73488095D01*
X78452380Y-74535714D02*
X78452380Y-74726190D01*
X78404761Y-74821428D01*
X78357142Y-74869047D01*
X78214285Y-74964285D01*
X78023809Y-75011904D01*
X77642857Y-75011904D01*
X77547619Y-74964285D01*
X77500000Y-74916666D01*
X77452380Y-74821428D01*
X77452380Y-74630952D01*
X77500000Y-74535714D01*
X77547619Y-74488095D01*
X77642857Y-74440476D01*
X77880952Y-74440476D01*
X77976190Y-74488095D01*
X78023809Y-74535714D01*
X78071428Y-74630952D01*
X78071428Y-74821428D01*
X78023809Y-74916666D01*
X77976190Y-74964285D01*
X77880952Y-75011904D01*
G04 #@! TO.C,XP1*
X88809523Y-129202380D02*
X88142857Y-130202380D01*
X88142857Y-129202380D02*
X88809523Y-130202380D01*
X87761904Y-130202380D02*
X87761904Y-129202380D01*
X87380952Y-129202380D01*
X87285714Y-129250000D01*
X87238095Y-129297619D01*
X87190476Y-129392857D01*
X87190476Y-129535714D01*
X87238095Y-129630952D01*
X87285714Y-129678571D01*
X87380952Y-129726190D01*
X87761904Y-129726190D01*
X86238095Y-130202380D02*
X86809523Y-130202380D01*
X86523809Y-130202380D02*
X86523809Y-129202380D01*
X86619047Y-129345238D01*
X86714285Y-129440476D01*
X86809523Y-129488095D01*
G04 #@! TO.C,R15*
D10*
X130642857Y-110952380D02*
X130976190Y-110476190D01*
X131214285Y-110952380D02*
X131214285Y-109952380D01*
X130833333Y-109952380D01*
X130738095Y-110000000D01*
X130690476Y-110047619D01*
X130642857Y-110142857D01*
X130642857Y-110285714D01*
X130690476Y-110380952D01*
X130738095Y-110428571D01*
X130833333Y-110476190D01*
X131214285Y-110476190D01*
X129690476Y-110952380D02*
X130261904Y-110952380D01*
X129976190Y-110952380D02*
X129976190Y-109952380D01*
X130071428Y-110095238D01*
X130166666Y-110190476D01*
X130261904Y-110238095D01*
X128785714Y-109952380D02*
X129261904Y-109952380D01*
X129309523Y-110428571D01*
X129261904Y-110380952D01*
X129166666Y-110333333D01*
X128928571Y-110333333D01*
X128833333Y-110380952D01*
X128785714Y-110428571D01*
X128738095Y-110523809D01*
X128738095Y-110761904D01*
X128785714Y-110857142D01*
X128833333Y-110904761D01*
X128928571Y-110952380D01*
X129166666Y-110952380D01*
X129261904Y-110904761D01*
X129309523Y-110857142D01*
G04 #@! TO.C,C7*
X108607142Y-119083333D02*
X108654761Y-119035714D01*
X108702380Y-118892857D01*
X108702380Y-118797619D01*
X108654761Y-118654761D01*
X108559523Y-118559523D01*
X108464285Y-118511904D01*
X108273809Y-118464285D01*
X108130952Y-118464285D01*
X107940476Y-118511904D01*
X107845238Y-118559523D01*
X107750000Y-118654761D01*
X107702380Y-118797619D01*
X107702380Y-118892857D01*
X107750000Y-119035714D01*
X107797619Y-119083333D01*
X107702380Y-119416666D02*
X107702380Y-120083333D01*
X108702380Y-119654761D01*
G04 #@! TO.C,R9*
X153666666Y-113202380D02*
X154000000Y-112726190D01*
X154238095Y-113202380D02*
X154238095Y-112202380D01*
X153857142Y-112202380D01*
X153761904Y-112250000D01*
X153714285Y-112297619D01*
X153666666Y-112392857D01*
X153666666Y-112535714D01*
X153714285Y-112630952D01*
X153761904Y-112678571D01*
X153857142Y-112726190D01*
X154238095Y-112726190D01*
X153190476Y-113202380D02*
X153000000Y-113202380D01*
X152904761Y-113154761D01*
X152857142Y-113107142D01*
X152761904Y-112964285D01*
X152714285Y-112773809D01*
X152714285Y-112392857D01*
X152761904Y-112297619D01*
X152809523Y-112250000D01*
X152904761Y-112202380D01*
X153095238Y-112202380D01*
X153190476Y-112250000D01*
X153238095Y-112297619D01*
X153285714Y-112392857D01*
X153285714Y-112630952D01*
X153238095Y-112726190D01*
X153190476Y-112773809D01*
X153095238Y-112821428D01*
X152904761Y-112821428D01*
X152809523Y-112773809D01*
X152761904Y-112726190D01*
X152714285Y-112630952D01*
G04 #@! TO.C,R10*
X145642857Y-129702380D02*
X145976190Y-129226190D01*
X146214285Y-129702380D02*
X146214285Y-128702380D01*
X145833333Y-128702380D01*
X145738095Y-128750000D01*
X145690476Y-128797619D01*
X145642857Y-128892857D01*
X145642857Y-129035714D01*
X145690476Y-129130952D01*
X145738095Y-129178571D01*
X145833333Y-129226190D01*
X146214285Y-129226190D01*
X144690476Y-129702380D02*
X145261904Y-129702380D01*
X144976190Y-129702380D02*
X144976190Y-128702380D01*
X145071428Y-128845238D01*
X145166666Y-128940476D01*
X145261904Y-128988095D01*
X144071428Y-128702380D02*
X143976190Y-128702380D01*
X143880952Y-128750000D01*
X143833333Y-128797619D01*
X143785714Y-128892857D01*
X143738095Y-129083333D01*
X143738095Y-129321428D01*
X143785714Y-129511904D01*
X143833333Y-129607142D01*
X143880952Y-129654761D01*
X143976190Y-129702380D01*
X144071428Y-129702380D01*
X144166666Y-129654761D01*
X144214285Y-129607142D01*
X144261904Y-129511904D01*
X144309523Y-129321428D01*
X144309523Y-129083333D01*
X144261904Y-128892857D01*
X144214285Y-128797619D01*
X144166666Y-128750000D01*
X144071428Y-128702380D01*
G04 #@! TO.C,C1*
X93607142Y-134083333D02*
X93654761Y-134035714D01*
X93702380Y-133892857D01*
X93702380Y-133797619D01*
X93654761Y-133654761D01*
X93559523Y-133559523D01*
X93464285Y-133511904D01*
X93273809Y-133464285D01*
X93130952Y-133464285D01*
X92940476Y-133511904D01*
X92845238Y-133559523D01*
X92750000Y-133654761D01*
X92702380Y-133797619D01*
X92702380Y-133892857D01*
X92750000Y-134035714D01*
X92797619Y-134083333D01*
X93702380Y-135035714D02*
X93702380Y-134464285D01*
X93702380Y-134750000D02*
X92702380Y-134750000D01*
X92845238Y-134654761D01*
X92940476Y-134559523D01*
X92988095Y-134464285D01*
G04 #@! TO.C,C2*
X78607142Y-134083333D02*
X78654761Y-134035714D01*
X78702380Y-133892857D01*
X78702380Y-133797619D01*
X78654761Y-133654761D01*
X78559523Y-133559523D01*
X78464285Y-133511904D01*
X78273809Y-133464285D01*
X78130952Y-133464285D01*
X77940476Y-133511904D01*
X77845238Y-133559523D01*
X77750000Y-133654761D01*
X77702380Y-133797619D01*
X77702380Y-133892857D01*
X77750000Y-134035714D01*
X77797619Y-134083333D01*
X77797619Y-134464285D02*
X77750000Y-134511904D01*
X77702380Y-134607142D01*
X77702380Y-134845238D01*
X77750000Y-134940476D01*
X77797619Y-134988095D01*
X77892857Y-135035714D01*
X77988095Y-135035714D01*
X78130952Y-134988095D01*
X78702380Y-134416666D01*
X78702380Y-135035714D01*
G04 #@! TO.C,C3*
X78607142Y-119083333D02*
X78654761Y-119035714D01*
X78702380Y-118892857D01*
X78702380Y-118797619D01*
X78654761Y-118654761D01*
X78559523Y-118559523D01*
X78464285Y-118511904D01*
X78273809Y-118464285D01*
X78130952Y-118464285D01*
X77940476Y-118511904D01*
X77845238Y-118559523D01*
X77750000Y-118654761D01*
X77702380Y-118797619D01*
X77702380Y-118892857D01*
X77750000Y-119035714D01*
X77797619Y-119083333D01*
X77702380Y-119416666D02*
X77702380Y-120035714D01*
X78083333Y-119702380D01*
X78083333Y-119845238D01*
X78130952Y-119940476D01*
X78178571Y-119988095D01*
X78273809Y-120035714D01*
X78511904Y-120035714D01*
X78607142Y-119988095D01*
X78654761Y-119940476D01*
X78702380Y-119845238D01*
X78702380Y-119559523D01*
X78654761Y-119464285D01*
X78607142Y-119416666D01*
G04 #@! TO.C,C4*
X78607142Y-104083333D02*
X78654761Y-104035714D01*
X78702380Y-103892857D01*
X78702380Y-103797619D01*
X78654761Y-103654761D01*
X78559523Y-103559523D01*
X78464285Y-103511904D01*
X78273809Y-103464285D01*
X78130952Y-103464285D01*
X77940476Y-103511904D01*
X77845238Y-103559523D01*
X77750000Y-103654761D01*
X77702380Y-103797619D01*
X77702380Y-103892857D01*
X77750000Y-104035714D01*
X77797619Y-104083333D01*
X78035714Y-104940476D02*
X78702380Y-104940476D01*
X77654761Y-104702380D02*
X78369047Y-104464285D01*
X78369047Y-105083333D01*
G04 #@! TO.C,C5*
X93607142Y-104083333D02*
X93654761Y-104035714D01*
X93702380Y-103892857D01*
X93702380Y-103797619D01*
X93654761Y-103654761D01*
X93559523Y-103559523D01*
X93464285Y-103511904D01*
X93273809Y-103464285D01*
X93130952Y-103464285D01*
X92940476Y-103511904D01*
X92845238Y-103559523D01*
X92750000Y-103654761D01*
X92702380Y-103797619D01*
X92702380Y-103892857D01*
X92750000Y-104035714D01*
X92797619Y-104083333D01*
X92702380Y-104988095D02*
X92702380Y-104511904D01*
X93178571Y-104464285D01*
X93130952Y-104511904D01*
X93083333Y-104607142D01*
X93083333Y-104845238D01*
X93130952Y-104940476D01*
X93178571Y-104988095D01*
X93273809Y-105035714D01*
X93511904Y-105035714D01*
X93607142Y-104988095D01*
X93654761Y-104940476D01*
X93702380Y-104845238D01*
X93702380Y-104607142D01*
X93654761Y-104511904D01*
X93607142Y-104464285D01*
G04 #@! TO.C,C6*
X108607142Y-104083333D02*
X108654761Y-104035714D01*
X108702380Y-103892857D01*
X108702380Y-103797619D01*
X108654761Y-103654761D01*
X108559523Y-103559523D01*
X108464285Y-103511904D01*
X108273809Y-103464285D01*
X108130952Y-103464285D01*
X107940476Y-103511904D01*
X107845238Y-103559523D01*
X107750000Y-103654761D01*
X107702380Y-103797619D01*
X107702380Y-103892857D01*
X107750000Y-104035714D01*
X107797619Y-104083333D01*
X107702380Y-104940476D02*
X107702380Y-104750000D01*
X107750000Y-104654761D01*
X107797619Y-104607142D01*
X107940476Y-104511904D01*
X108130952Y-104464285D01*
X108511904Y-104464285D01*
X108607142Y-104511904D01*
X108654761Y-104559523D01*
X108702380Y-104654761D01*
X108702380Y-104845238D01*
X108654761Y-104940476D01*
X108607142Y-104988095D01*
X108511904Y-105035714D01*
X108273809Y-105035714D01*
X108178571Y-104988095D01*
X108130952Y-104940476D01*
X108083333Y-104845238D01*
X108083333Y-104654761D01*
X108130952Y-104559523D01*
X108178571Y-104511904D01*
X108273809Y-104464285D01*
G04 #@! TO.C,C8*
X108607142Y-134083333D02*
X108654761Y-134035714D01*
X108702380Y-133892857D01*
X108702380Y-133797619D01*
X108654761Y-133654761D01*
X108559523Y-133559523D01*
X108464285Y-133511904D01*
X108273809Y-133464285D01*
X108130952Y-133464285D01*
X107940476Y-133511904D01*
X107845238Y-133559523D01*
X107750000Y-133654761D01*
X107702380Y-133797619D01*
X107702380Y-133892857D01*
X107750000Y-134035714D01*
X107797619Y-134083333D01*
X108130952Y-134654761D02*
X108083333Y-134559523D01*
X108035714Y-134511904D01*
X107940476Y-134464285D01*
X107892857Y-134464285D01*
X107797619Y-134511904D01*
X107750000Y-134559523D01*
X107702380Y-134654761D01*
X107702380Y-134845238D01*
X107750000Y-134940476D01*
X107797619Y-134988095D01*
X107892857Y-135035714D01*
X107940476Y-135035714D01*
X108035714Y-134988095D01*
X108083333Y-134940476D01*
X108130952Y-134845238D01*
X108130952Y-134654761D01*
X108178571Y-134559523D01*
X108226190Y-134511904D01*
X108321428Y-134464285D01*
X108511904Y-134464285D01*
X108607142Y-134511904D01*
X108654761Y-134559523D01*
X108702380Y-134654761D01*
X108702380Y-134845238D01*
X108654761Y-134940476D01*
X108607142Y-134988095D01*
X108511904Y-135035714D01*
X108321428Y-135035714D01*
X108226190Y-134988095D01*
X108178571Y-134940476D01*
X108130952Y-134845238D01*
G04 #@! TO.C,C9*
X155416666Y-97107142D02*
X155464285Y-97154761D01*
X155607142Y-97202380D01*
X155702380Y-97202380D01*
X155845238Y-97154761D01*
X155940476Y-97059523D01*
X155988095Y-96964285D01*
X156035714Y-96773809D01*
X156035714Y-96630952D01*
X155988095Y-96440476D01*
X155940476Y-96345238D01*
X155845238Y-96250000D01*
X155702380Y-96202380D01*
X155607142Y-96202380D01*
X155464285Y-96250000D01*
X155416666Y-96297619D01*
X154940476Y-97202380D02*
X154750000Y-97202380D01*
X154654761Y-97154761D01*
X154607142Y-97107142D01*
X154511904Y-96964285D01*
X154464285Y-96773809D01*
X154464285Y-96392857D01*
X154511904Y-96297619D01*
X154559523Y-96250000D01*
X154654761Y-96202380D01*
X154845238Y-96202380D01*
X154940476Y-96250000D01*
X154988095Y-96297619D01*
X155035714Y-96392857D01*
X155035714Y-96630952D01*
X154988095Y-96726190D01*
X154940476Y-96773809D01*
X154845238Y-96821428D01*
X154654761Y-96821428D01*
X154559523Y-96773809D01*
X154511904Y-96726190D01*
X154464285Y-96630952D01*
G04 #@! TO.C,C10*
X156142857Y-105107142D02*
X156190476Y-105154761D01*
X156333333Y-105202380D01*
X156428571Y-105202380D01*
X156571428Y-105154761D01*
X156666666Y-105059523D01*
X156714285Y-104964285D01*
X156761904Y-104773809D01*
X156761904Y-104630952D01*
X156714285Y-104440476D01*
X156666666Y-104345238D01*
X156571428Y-104250000D01*
X156428571Y-104202380D01*
X156333333Y-104202380D01*
X156190476Y-104250000D01*
X156142857Y-104297619D01*
X155190476Y-105202380D02*
X155761904Y-105202380D01*
X155476190Y-105202380D02*
X155476190Y-104202380D01*
X155571428Y-104345238D01*
X155666666Y-104440476D01*
X155761904Y-104488095D01*
X154571428Y-104202380D02*
X154476190Y-104202380D01*
X154380952Y-104250000D01*
X154333333Y-104297619D01*
X154285714Y-104392857D01*
X154238095Y-104583333D01*
X154238095Y-104821428D01*
X154285714Y-105011904D01*
X154333333Y-105107142D01*
X154380952Y-105154761D01*
X154476190Y-105202380D01*
X154571428Y-105202380D01*
X154666666Y-105154761D01*
X154714285Y-105107142D01*
X154761904Y-105011904D01*
X154809523Y-104821428D01*
X154809523Y-104583333D01*
X154761904Y-104392857D01*
X154714285Y-104297619D01*
X154666666Y-104250000D01*
X154571428Y-104202380D01*
G04 #@! TO.C,C11*
X150892857Y-97107142D02*
X150940476Y-97154761D01*
X151083333Y-97202380D01*
X151178571Y-97202380D01*
X151321428Y-97154761D01*
X151416666Y-97059523D01*
X151464285Y-96964285D01*
X151511904Y-96773809D01*
X151511904Y-96630952D01*
X151464285Y-96440476D01*
X151416666Y-96345238D01*
X151321428Y-96250000D01*
X151178571Y-96202380D01*
X151083333Y-96202380D01*
X150940476Y-96250000D01*
X150892857Y-96297619D01*
X149940476Y-97202380D02*
X150511904Y-97202380D01*
X150226190Y-97202380D02*
X150226190Y-96202380D01*
X150321428Y-96345238D01*
X150416666Y-96440476D01*
X150511904Y-96488095D01*
X148988095Y-97202380D02*
X149559523Y-97202380D01*
X149273809Y-97202380D02*
X149273809Y-96202380D01*
X149369047Y-96345238D01*
X149464285Y-96440476D01*
X149559523Y-96488095D01*
G04 #@! TO.C,C12*
X151642857Y-105107142D02*
X151690476Y-105154761D01*
X151833333Y-105202380D01*
X151928571Y-105202380D01*
X152071428Y-105154761D01*
X152166666Y-105059523D01*
X152214285Y-104964285D01*
X152261904Y-104773809D01*
X152261904Y-104630952D01*
X152214285Y-104440476D01*
X152166666Y-104345238D01*
X152071428Y-104250000D01*
X151928571Y-104202380D01*
X151833333Y-104202380D01*
X151690476Y-104250000D01*
X151642857Y-104297619D01*
X150690476Y-105202380D02*
X151261904Y-105202380D01*
X150976190Y-105202380D02*
X150976190Y-104202380D01*
X151071428Y-104345238D01*
X151166666Y-104440476D01*
X151261904Y-104488095D01*
X150309523Y-104297619D02*
X150261904Y-104250000D01*
X150166666Y-104202380D01*
X149928571Y-104202380D01*
X149833333Y-104250000D01*
X149785714Y-104297619D01*
X149738095Y-104392857D01*
X149738095Y-104488095D01*
X149785714Y-104630952D01*
X150357142Y-105202380D01*
X149738095Y-105202380D01*
G04 #@! TO.C,R1*
X97916666Y-117452380D02*
X98250000Y-116976190D01*
X98488095Y-117452380D02*
X98488095Y-116452380D01*
X98107142Y-116452380D01*
X98011904Y-116500000D01*
X97964285Y-116547619D01*
X97916666Y-116642857D01*
X97916666Y-116785714D01*
X97964285Y-116880952D01*
X98011904Y-116928571D01*
X98107142Y-116976190D01*
X98488095Y-116976190D01*
X96964285Y-117452380D02*
X97535714Y-117452380D01*
X97250000Y-117452380D02*
X97250000Y-116452380D01*
X97345238Y-116595238D01*
X97440476Y-116690476D01*
X97535714Y-116738095D01*
G04 #@! TO.C,R2*
X86666666Y-117452380D02*
X87000000Y-116976190D01*
X87238095Y-117452380D02*
X87238095Y-116452380D01*
X86857142Y-116452380D01*
X86761904Y-116500000D01*
X86714285Y-116547619D01*
X86666666Y-116642857D01*
X86666666Y-116785714D01*
X86714285Y-116880952D01*
X86761904Y-116928571D01*
X86857142Y-116976190D01*
X87238095Y-116976190D01*
X86285714Y-116547619D02*
X86238095Y-116500000D01*
X86142857Y-116452380D01*
X85904761Y-116452380D01*
X85809523Y-116500000D01*
X85761904Y-116547619D01*
X85714285Y-116642857D01*
X85714285Y-116738095D01*
X85761904Y-116880952D01*
X86333333Y-117452380D01*
X85714285Y-117452380D01*
G04 #@! TO.C,R3*
X89416666Y-117452380D02*
X89750000Y-116976190D01*
X89988095Y-117452380D02*
X89988095Y-116452380D01*
X89607142Y-116452380D01*
X89511904Y-116500000D01*
X89464285Y-116547619D01*
X89416666Y-116642857D01*
X89416666Y-116785714D01*
X89464285Y-116880952D01*
X89511904Y-116928571D01*
X89607142Y-116976190D01*
X89988095Y-116976190D01*
X89083333Y-116452380D02*
X88464285Y-116452380D01*
X88797619Y-116833333D01*
X88654761Y-116833333D01*
X88559523Y-116880952D01*
X88511904Y-116928571D01*
X88464285Y-117023809D01*
X88464285Y-117261904D01*
X88511904Y-117357142D01*
X88559523Y-117404761D01*
X88654761Y-117452380D01*
X88940476Y-117452380D01*
X89035714Y-117404761D01*
X89083333Y-117357142D01*
G04 #@! TO.C,R4*
X92166666Y-117452380D02*
X92500000Y-116976190D01*
X92738095Y-117452380D02*
X92738095Y-116452380D01*
X92357142Y-116452380D01*
X92261904Y-116500000D01*
X92214285Y-116547619D01*
X92166666Y-116642857D01*
X92166666Y-116785714D01*
X92214285Y-116880952D01*
X92261904Y-116928571D01*
X92357142Y-116976190D01*
X92738095Y-116976190D01*
X91309523Y-116785714D02*
X91309523Y-117452380D01*
X91547619Y-116404761D02*
X91785714Y-117119047D01*
X91166666Y-117119047D01*
G04 #@! TO.C,R5*
X94916666Y-117452380D02*
X95250000Y-116976190D01*
X95488095Y-117452380D02*
X95488095Y-116452380D01*
X95107142Y-116452380D01*
X95011904Y-116500000D01*
X94964285Y-116547619D01*
X94916666Y-116642857D01*
X94916666Y-116785714D01*
X94964285Y-116880952D01*
X95011904Y-116928571D01*
X95107142Y-116976190D01*
X95488095Y-116976190D01*
X94011904Y-116452380D02*
X94488095Y-116452380D01*
X94535714Y-116928571D01*
X94488095Y-116880952D01*
X94392857Y-116833333D01*
X94154761Y-116833333D01*
X94059523Y-116880952D01*
X94011904Y-116928571D01*
X93964285Y-117023809D01*
X93964285Y-117261904D01*
X94011904Y-117357142D01*
X94059523Y-117404761D01*
X94154761Y-117452380D01*
X94392857Y-117452380D01*
X94488095Y-117404761D01*
X94535714Y-117357142D01*
G04 #@! TO.C,R6*
X100416666Y-117452380D02*
X100750000Y-116976190D01*
X100988095Y-117452380D02*
X100988095Y-116452380D01*
X100607142Y-116452380D01*
X100511904Y-116500000D01*
X100464285Y-116547619D01*
X100416666Y-116642857D01*
X100416666Y-116785714D01*
X100464285Y-116880952D01*
X100511904Y-116928571D01*
X100607142Y-116976190D01*
X100988095Y-116976190D01*
X99559523Y-116452380D02*
X99750000Y-116452380D01*
X99845238Y-116500000D01*
X99892857Y-116547619D01*
X99988095Y-116690476D01*
X100035714Y-116880952D01*
X100035714Y-117261904D01*
X99988095Y-117357142D01*
X99940476Y-117404761D01*
X99845238Y-117452380D01*
X99654761Y-117452380D01*
X99559523Y-117404761D01*
X99511904Y-117357142D01*
X99464285Y-117261904D01*
X99464285Y-117023809D01*
X99511904Y-116928571D01*
X99559523Y-116880952D01*
X99654761Y-116833333D01*
X99845238Y-116833333D01*
X99940476Y-116880952D01*
X99988095Y-116928571D01*
X100035714Y-117023809D01*
G04 #@! TO.C,R7*
X103166666Y-117452380D02*
X103500000Y-116976190D01*
X103738095Y-117452380D02*
X103738095Y-116452380D01*
X103357142Y-116452380D01*
X103261904Y-116500000D01*
X103214285Y-116547619D01*
X103166666Y-116642857D01*
X103166666Y-116785714D01*
X103214285Y-116880952D01*
X103261904Y-116928571D01*
X103357142Y-116976190D01*
X103738095Y-116976190D01*
X102833333Y-116452380D02*
X102166666Y-116452380D01*
X102595238Y-117452380D01*
G04 #@! TO.C,R8*
X105916666Y-117452380D02*
X106250000Y-116976190D01*
X106488095Y-117452380D02*
X106488095Y-116452380D01*
X106107142Y-116452380D01*
X106011904Y-116500000D01*
X105964285Y-116547619D01*
X105916666Y-116642857D01*
X105916666Y-116785714D01*
X105964285Y-116880952D01*
X106011904Y-116928571D01*
X106107142Y-116976190D01*
X106488095Y-116976190D01*
X105345238Y-116880952D02*
X105440476Y-116833333D01*
X105488095Y-116785714D01*
X105535714Y-116690476D01*
X105535714Y-116642857D01*
X105488095Y-116547619D01*
X105440476Y-116500000D01*
X105345238Y-116452380D01*
X105154761Y-116452380D01*
X105059523Y-116500000D01*
X105011904Y-116547619D01*
X104964285Y-116642857D01*
X104964285Y-116690476D01*
X105011904Y-116785714D01*
X105059523Y-116833333D01*
X105154761Y-116880952D01*
X105345238Y-116880952D01*
X105440476Y-116928571D01*
X105488095Y-116976190D01*
X105535714Y-117071428D01*
X105535714Y-117261904D01*
X105488095Y-117357142D01*
X105440476Y-117404761D01*
X105345238Y-117452380D01*
X105154761Y-117452380D01*
X105059523Y-117404761D01*
X105011904Y-117357142D01*
X104964285Y-117261904D01*
X104964285Y-117071428D01*
X105011904Y-116976190D01*
X105059523Y-116928571D01*
X105154761Y-116880952D01*
G04 #@! TO.C,XP2*
D12*
X103809523Y-129202380D02*
X103142857Y-130202380D01*
X103142857Y-129202380D02*
X103809523Y-130202380D01*
X102761904Y-130202380D02*
X102761904Y-129202380D01*
X102380952Y-129202380D01*
X102285714Y-129250000D01*
X102238095Y-129297619D01*
X102190476Y-129392857D01*
X102190476Y-129535714D01*
X102238095Y-129630952D01*
X102285714Y-129678571D01*
X102380952Y-129726190D01*
X102761904Y-129726190D01*
X101809523Y-129297619D02*
X101761904Y-129250000D01*
X101666666Y-129202380D01*
X101428571Y-129202380D01*
X101333333Y-129250000D01*
X101285714Y-129297619D01*
X101238095Y-129392857D01*
X101238095Y-129488095D01*
X101285714Y-129630952D01*
X101857142Y-130202380D01*
X101238095Y-130202380D01*
G04 #@! TO.C,XP3*
X89309523Y-94702380D02*
X88642857Y-95702380D01*
X88642857Y-94702380D02*
X89309523Y-95702380D01*
X88261904Y-95702380D02*
X88261904Y-94702380D01*
X87880952Y-94702380D01*
X87785714Y-94750000D01*
X87738095Y-94797619D01*
X87690476Y-94892857D01*
X87690476Y-95035714D01*
X87738095Y-95130952D01*
X87785714Y-95178571D01*
X87880952Y-95226190D01*
X88261904Y-95226190D01*
X87357142Y-94702380D02*
X86738095Y-94702380D01*
X87071428Y-95083333D01*
X86928571Y-95083333D01*
X86833333Y-95130952D01*
X86785714Y-95178571D01*
X86738095Y-95273809D01*
X86738095Y-95511904D01*
X86785714Y-95607142D01*
X86833333Y-95654761D01*
X86928571Y-95702380D01*
X87214285Y-95702380D01*
X87309523Y-95654761D01*
X87357142Y-95607142D01*
G04 #@! TO.C,XP4*
X104309523Y-94702380D02*
X103642857Y-95702380D01*
X103642857Y-94702380D02*
X104309523Y-95702380D01*
X103261904Y-95702380D02*
X103261904Y-94702380D01*
X102880952Y-94702380D01*
X102785714Y-94750000D01*
X102738095Y-94797619D01*
X102690476Y-94892857D01*
X102690476Y-95035714D01*
X102738095Y-95130952D01*
X102785714Y-95178571D01*
X102880952Y-95226190D01*
X103261904Y-95226190D01*
X101833333Y-95035714D02*
X101833333Y-95702380D01*
X102071428Y-94654761D02*
X102309523Y-95369047D01*
X101690476Y-95369047D01*
G04 #@! TO.C,XP5*
X111952380Y-118690476D02*
X112952380Y-119357142D01*
X111952380Y-119357142D02*
X112952380Y-118690476D01*
X112952380Y-119738095D02*
X111952380Y-119738095D01*
X111952380Y-120119047D01*
X112000000Y-120214285D01*
X112047619Y-120261904D01*
X112142857Y-120309523D01*
X112285714Y-120309523D01*
X112380952Y-120261904D01*
X112428571Y-120214285D01*
X112476190Y-120119047D01*
X112476190Y-119738095D01*
X111952380Y-121214285D02*
X111952380Y-120738095D01*
X112428571Y-120690476D01*
X112380952Y-120738095D01*
X112333333Y-120833333D01*
X112333333Y-121071428D01*
X112380952Y-121166666D01*
X112428571Y-121214285D01*
X112523809Y-121261904D01*
X112761904Y-121261904D01*
X112857142Y-121214285D01*
X112904761Y-121166666D01*
X112952380Y-121071428D01*
X112952380Y-120833333D01*
X112904761Y-120738095D01*
X112857142Y-120690476D01*
G04 #@! TO.C,VD1*
D10*
X122652380Y-96540476D02*
X123652380Y-96873809D01*
X122652380Y-97207142D01*
X123652380Y-97540476D02*
X122652380Y-97540476D01*
X122652380Y-97778571D01*
X122700000Y-97921428D01*
X122795238Y-98016666D01*
X122890476Y-98064285D01*
X123080952Y-98111904D01*
X123223809Y-98111904D01*
X123414285Y-98064285D01*
X123509523Y-98016666D01*
X123604761Y-97921428D01*
X123652380Y-97778571D01*
X123652380Y-97540476D01*
X123652380Y-99064285D02*
X123652380Y-98492857D01*
X123652380Y-98778571D02*
X122652380Y-98778571D01*
X122795238Y-98683333D01*
X122890476Y-98588095D01*
X122938095Y-98492857D01*
G04 #@! TO.C,R13*
X138642857Y-120452380D02*
X138976190Y-119976190D01*
X139214285Y-120452380D02*
X139214285Y-119452380D01*
X138833333Y-119452380D01*
X138738095Y-119500000D01*
X138690476Y-119547619D01*
X138642857Y-119642857D01*
X138642857Y-119785714D01*
X138690476Y-119880952D01*
X138738095Y-119928571D01*
X138833333Y-119976190D01*
X139214285Y-119976190D01*
X137690476Y-120452380D02*
X138261904Y-120452380D01*
X137976190Y-120452380D02*
X137976190Y-119452380D01*
X138071428Y-119595238D01*
X138166666Y-119690476D01*
X138261904Y-119738095D01*
X137357142Y-119452380D02*
X136738095Y-119452380D01*
X137071428Y-119833333D01*
X136928571Y-119833333D01*
X136833333Y-119880952D01*
X136785714Y-119928571D01*
X136738095Y-120023809D01*
X136738095Y-120261904D01*
X136785714Y-120357142D01*
X136833333Y-120404761D01*
X136928571Y-120452380D01*
X137214285Y-120452380D01*
X137309523Y-120404761D01*
X137357142Y-120357142D01*
G04 #@! TO.C,R12*
X138642857Y-105952380D02*
X138976190Y-105476190D01*
X139214285Y-105952380D02*
X139214285Y-104952380D01*
X138833333Y-104952380D01*
X138738095Y-105000000D01*
X138690476Y-105047619D01*
X138642857Y-105142857D01*
X138642857Y-105285714D01*
X138690476Y-105380952D01*
X138738095Y-105428571D01*
X138833333Y-105476190D01*
X139214285Y-105476190D01*
X137690476Y-105952380D02*
X138261904Y-105952380D01*
X137976190Y-105952380D02*
X137976190Y-104952380D01*
X138071428Y-105095238D01*
X138166666Y-105190476D01*
X138261904Y-105238095D01*
X137309523Y-105047619D02*
X137261904Y-105000000D01*
X137166666Y-104952380D01*
X136928571Y-104952380D01*
X136833333Y-105000000D01*
X136785714Y-105047619D01*
X136738095Y-105142857D01*
X136738095Y-105238095D01*
X136785714Y-105380952D01*
X137357142Y-105952380D01*
X136738095Y-105952380D01*
G04 #@! TO.C,R14*
X130642857Y-125952380D02*
X130976190Y-125476190D01*
X131214285Y-125952380D02*
X131214285Y-124952380D01*
X130833333Y-124952380D01*
X130738095Y-125000000D01*
X130690476Y-125047619D01*
X130642857Y-125142857D01*
X130642857Y-125285714D01*
X130690476Y-125380952D01*
X130738095Y-125428571D01*
X130833333Y-125476190D01*
X131214285Y-125476190D01*
X129690476Y-125952380D02*
X130261904Y-125952380D01*
X129976190Y-125952380D02*
X129976190Y-124952380D01*
X130071428Y-125095238D01*
X130166666Y-125190476D01*
X130261904Y-125238095D01*
X128833333Y-125285714D02*
X128833333Y-125952380D01*
X129071428Y-124904761D02*
X129309523Y-125619047D01*
X128690476Y-125619047D01*
G04 #@! TO.C,R16*
X130642857Y-95952380D02*
X130976190Y-95476190D01*
X131214285Y-95952380D02*
X131214285Y-94952380D01*
X130833333Y-94952380D01*
X130738095Y-95000000D01*
X130690476Y-95047619D01*
X130642857Y-95142857D01*
X130642857Y-95285714D01*
X130690476Y-95380952D01*
X130738095Y-95428571D01*
X130833333Y-95476190D01*
X131214285Y-95476190D01*
X129690476Y-95952380D02*
X130261904Y-95952380D01*
X129976190Y-95952380D02*
X129976190Y-94952380D01*
X130071428Y-95095238D01*
X130166666Y-95190476D01*
X130261904Y-95238095D01*
X128833333Y-94952380D02*
X129023809Y-94952380D01*
X129119047Y-95000000D01*
X129166666Y-95047619D01*
X129261904Y-95190476D01*
X129309523Y-95380952D01*
X129309523Y-95761904D01*
X129261904Y-95857142D01*
X129214285Y-95904761D01*
X129119047Y-95952380D01*
X128928571Y-95952380D01*
X128833333Y-95904761D01*
X128785714Y-95857142D01*
X128738095Y-95761904D01*
X128738095Y-95523809D01*
X128785714Y-95428571D01*
X128833333Y-95380952D01*
X128928571Y-95333333D01*
X129119047Y-95333333D01*
X129214285Y-95380952D01*
X129261904Y-95428571D01*
X129309523Y-95523809D01*
G04 #@! TO.C,R17*
X145642857Y-95952380D02*
X145976190Y-95476190D01*
X146214285Y-95952380D02*
X146214285Y-94952380D01*
X145833333Y-94952380D01*
X145738095Y-95000000D01*
X145690476Y-95047619D01*
X145642857Y-95142857D01*
X145642857Y-95285714D01*
X145690476Y-95380952D01*
X145738095Y-95428571D01*
X145833333Y-95476190D01*
X146214285Y-95476190D01*
X144690476Y-95952380D02*
X145261904Y-95952380D01*
X144976190Y-95952380D02*
X144976190Y-94952380D01*
X145071428Y-95095238D01*
X145166666Y-95190476D01*
X145261904Y-95238095D01*
X144357142Y-94952380D02*
X143690476Y-94952380D01*
X144119047Y-95952380D01*
G04 #@! TO.C,R18*
X160642857Y-95952380D02*
X160976190Y-95476190D01*
X161214285Y-95952380D02*
X161214285Y-94952380D01*
X160833333Y-94952380D01*
X160738095Y-95000000D01*
X160690476Y-95047619D01*
X160642857Y-95142857D01*
X160642857Y-95285714D01*
X160690476Y-95380952D01*
X160738095Y-95428571D01*
X160833333Y-95476190D01*
X161214285Y-95476190D01*
X159690476Y-95952380D02*
X160261904Y-95952380D01*
X159976190Y-95952380D02*
X159976190Y-94952380D01*
X160071428Y-95095238D01*
X160166666Y-95190476D01*
X160261904Y-95238095D01*
X159119047Y-95380952D02*
X159214285Y-95333333D01*
X159261904Y-95285714D01*
X159309523Y-95190476D01*
X159309523Y-95142857D01*
X159261904Y-95047619D01*
X159214285Y-95000000D01*
X159119047Y-94952380D01*
X158928571Y-94952380D01*
X158833333Y-95000000D01*
X158785714Y-95047619D01*
X158738095Y-95142857D01*
X158738095Y-95190476D01*
X158785714Y-95285714D01*
X158833333Y-95333333D01*
X158928571Y-95380952D01*
X159119047Y-95380952D01*
X159214285Y-95428571D01*
X159261904Y-95476190D01*
X159309523Y-95571428D01*
X159309523Y-95761904D01*
X159261904Y-95857142D01*
X159214285Y-95904761D01*
X159119047Y-95952380D01*
X158928571Y-95952380D01*
X158833333Y-95904761D01*
X158785714Y-95857142D01*
X158738095Y-95761904D01*
X158738095Y-95571428D01*
X158785714Y-95476190D01*
X158833333Y-95428571D01*
X158928571Y-95380952D01*
G04 #@! TO.C,R19*
X160642857Y-110952380D02*
X160976190Y-110476190D01*
X161214285Y-110952380D02*
X161214285Y-109952380D01*
X160833333Y-109952380D01*
X160738095Y-110000000D01*
X160690476Y-110047619D01*
X160642857Y-110142857D01*
X160642857Y-110285714D01*
X160690476Y-110380952D01*
X160738095Y-110428571D01*
X160833333Y-110476190D01*
X161214285Y-110476190D01*
X159690476Y-110952380D02*
X160261904Y-110952380D01*
X159976190Y-110952380D02*
X159976190Y-109952380D01*
X160071428Y-110095238D01*
X160166666Y-110190476D01*
X160261904Y-110238095D01*
X159214285Y-110952380D02*
X159023809Y-110952380D01*
X158928571Y-110904761D01*
X158880952Y-110857142D01*
X158785714Y-110714285D01*
X158738095Y-110523809D01*
X158738095Y-110142857D01*
X158785714Y-110047619D01*
X158833333Y-110000000D01*
X158928571Y-109952380D01*
X159119047Y-109952380D01*
X159214285Y-110000000D01*
X159261904Y-110047619D01*
X159309523Y-110142857D01*
X159309523Y-110380952D01*
X159261904Y-110476190D01*
X159214285Y-110523809D01*
X159119047Y-110571428D01*
X158928571Y-110571428D01*
X158833333Y-110523809D01*
X158785714Y-110476190D01*
X158738095Y-110380952D01*
G04 #@! TO.C,R20*
X162142857Y-120952380D02*
X162476190Y-120476190D01*
X162714285Y-120952380D02*
X162714285Y-119952380D01*
X162333333Y-119952380D01*
X162238095Y-120000000D01*
X162190476Y-120047619D01*
X162142857Y-120142857D01*
X162142857Y-120285714D01*
X162190476Y-120380952D01*
X162238095Y-120428571D01*
X162333333Y-120476190D01*
X162714285Y-120476190D01*
X161761904Y-120047619D02*
X161714285Y-120000000D01*
X161619047Y-119952380D01*
X161380952Y-119952380D01*
X161285714Y-120000000D01*
X161238095Y-120047619D01*
X161190476Y-120142857D01*
X161190476Y-120238095D01*
X161238095Y-120380952D01*
X161809523Y-120952380D01*
X161190476Y-120952380D01*
X160571428Y-119952380D02*
X160476190Y-119952380D01*
X160380952Y-120000000D01*
X160333333Y-120047619D01*
X160285714Y-120142857D01*
X160238095Y-120333333D01*
X160238095Y-120571428D01*
X160285714Y-120761904D01*
X160333333Y-120857142D01*
X160380952Y-120904761D01*
X160476190Y-120952380D01*
X160571428Y-120952380D01*
X160666666Y-120904761D01*
X160714285Y-120857142D01*
X160761904Y-120761904D01*
X160809523Y-120571428D01*
X160809523Y-120333333D01*
X160761904Y-120142857D01*
X160714285Y-120047619D01*
X160666666Y-120000000D01*
X160571428Y-119952380D01*
G04 #@! TO.C,R11*
X145642857Y-125452380D02*
X145976190Y-124976190D01*
X146214285Y-125452380D02*
X146214285Y-124452380D01*
X145833333Y-124452380D01*
X145738095Y-124500000D01*
X145690476Y-124547619D01*
X145642857Y-124642857D01*
X145642857Y-124785714D01*
X145690476Y-124880952D01*
X145738095Y-124928571D01*
X145833333Y-124976190D01*
X146214285Y-124976190D01*
X144690476Y-125452380D02*
X145261904Y-125452380D01*
X144976190Y-125452380D02*
X144976190Y-124452380D01*
X145071428Y-124595238D01*
X145166666Y-124690476D01*
X145261904Y-124738095D01*
X143738095Y-125452380D02*
X144309523Y-125452380D01*
X144023809Y-125452380D02*
X144023809Y-124452380D01*
X144119047Y-124595238D01*
X144214285Y-124690476D01*
X144309523Y-124738095D01*
G04 #@! TO.C,C13*
X130892857Y-116107142D02*
X130940476Y-116154761D01*
X131083333Y-116202380D01*
X131178571Y-116202380D01*
X131321428Y-116154761D01*
X131416666Y-116059523D01*
X131464285Y-115964285D01*
X131511904Y-115773809D01*
X131511904Y-115630952D01*
X131464285Y-115440476D01*
X131416666Y-115345238D01*
X131321428Y-115250000D01*
X131178571Y-115202380D01*
X131083333Y-115202380D01*
X130940476Y-115250000D01*
X130892857Y-115297619D01*
X129940476Y-116202380D02*
X130511904Y-116202380D01*
X130226190Y-116202380D02*
X130226190Y-115202380D01*
X130321428Y-115345238D01*
X130416666Y-115440476D01*
X130511904Y-115488095D01*
X129607142Y-115202380D02*
X128988095Y-115202380D01*
X129321428Y-115583333D01*
X129178571Y-115583333D01*
X129083333Y-115630952D01*
X129035714Y-115678571D01*
X128988095Y-115773809D01*
X128988095Y-116011904D01*
X129035714Y-116107142D01*
X129083333Y-116154761D01*
X129178571Y-116202380D01*
X129464285Y-116202380D01*
X129559523Y-116154761D01*
X129607142Y-116107142D01*
G04 #@! TO.C,C14*
X130642857Y-101607142D02*
X130690476Y-101654761D01*
X130833333Y-101702380D01*
X130928571Y-101702380D01*
X131071428Y-101654761D01*
X131166666Y-101559523D01*
X131214285Y-101464285D01*
X131261904Y-101273809D01*
X131261904Y-101130952D01*
X131214285Y-100940476D01*
X131166666Y-100845238D01*
X131071428Y-100750000D01*
X130928571Y-100702380D01*
X130833333Y-100702380D01*
X130690476Y-100750000D01*
X130642857Y-100797619D01*
X129690476Y-101702380D02*
X130261904Y-101702380D01*
X129976190Y-101702380D02*
X129976190Y-100702380D01*
X130071428Y-100845238D01*
X130166666Y-100940476D01*
X130261904Y-100988095D01*
X128833333Y-101035714D02*
X128833333Y-101702380D01*
X129071428Y-100654761D02*
X129309523Y-101369047D01*
X128690476Y-101369047D01*
G04 #@! TO.C,C15*
X136142857Y-128607142D02*
X136190476Y-128654761D01*
X136333333Y-128702380D01*
X136428571Y-128702380D01*
X136571428Y-128654761D01*
X136666666Y-128559523D01*
X136714285Y-128464285D01*
X136761904Y-128273809D01*
X136761904Y-128130952D01*
X136714285Y-127940476D01*
X136666666Y-127845238D01*
X136571428Y-127750000D01*
X136428571Y-127702380D01*
X136333333Y-127702380D01*
X136190476Y-127750000D01*
X136142857Y-127797619D01*
X135190476Y-128702380D02*
X135761904Y-128702380D01*
X135476190Y-128702380D02*
X135476190Y-127702380D01*
X135571428Y-127845238D01*
X135666666Y-127940476D01*
X135761904Y-127988095D01*
X134285714Y-127702380D02*
X134761904Y-127702380D01*
X134809523Y-128178571D01*
X134761904Y-128130952D01*
X134666666Y-128083333D01*
X134428571Y-128083333D01*
X134333333Y-128130952D01*
X134285714Y-128178571D01*
X134238095Y-128273809D01*
X134238095Y-128511904D01*
X134285714Y-128607142D01*
X134333333Y-128654761D01*
X134428571Y-128702380D01*
X134666666Y-128702380D01*
X134761904Y-128654761D01*
X134809523Y-128607142D01*
G04 #@! TO.C,VD2*
D12*
X158059523Y-122952380D02*
X157726190Y-123952380D01*
X157392857Y-122952380D01*
X157059523Y-123952380D02*
X157059523Y-122952380D01*
X156821428Y-122952380D01*
X156678571Y-123000000D01*
X156583333Y-123095238D01*
X156535714Y-123190476D01*
X156488095Y-123380952D01*
X156488095Y-123523809D01*
X156535714Y-123714285D01*
X156583333Y-123809523D01*
X156678571Y-123904761D01*
X156821428Y-123952380D01*
X157059523Y-123952380D01*
X156107142Y-123047619D02*
X156059523Y-123000000D01*
X155964285Y-122952380D01*
X155726190Y-122952380D01*
X155630952Y-123000000D01*
X155583333Y-123047619D01*
X155535714Y-123142857D01*
X155535714Y-123238095D01*
X155583333Y-123380952D01*
X156154761Y-123952380D01*
X155535714Y-123952380D01*
G04 #@! TO.C,FU1*
X168678571Y-96892857D02*
X168678571Y-96559523D01*
X169202380Y-96559523D02*
X168202380Y-96559523D01*
X168202380Y-97035714D01*
X168202380Y-97416666D02*
X169011904Y-97416666D01*
X169107142Y-97464285D01*
X169154761Y-97511904D01*
X169202380Y-97607142D01*
X169202380Y-97797619D01*
X169154761Y-97892857D01*
X169107142Y-97940476D01*
X169011904Y-97988095D01*
X168202380Y-97988095D01*
X169202380Y-98988095D02*
X169202380Y-98416666D01*
X169202380Y-98702380D02*
X168202380Y-98702380D01*
X168345238Y-98607142D01*
X168440476Y-98511904D01*
X168488095Y-98416666D01*
G04 #@! TO.C,FU2*
X166857142Y-133678571D02*
X167190476Y-133678571D01*
X167190476Y-134202380D02*
X167190476Y-133202380D01*
X166714285Y-133202380D01*
X166333333Y-133202380D02*
X166333333Y-134011904D01*
X166285714Y-134107142D01*
X166238095Y-134154761D01*
X166142857Y-134202380D01*
X165952380Y-134202380D01*
X165857142Y-134154761D01*
X165809523Y-134107142D01*
X165761904Y-134011904D01*
X165761904Y-133202380D01*
X165333333Y-133297619D02*
X165285714Y-133250000D01*
X165190476Y-133202380D01*
X164952380Y-133202380D01*
X164857142Y-133250000D01*
X164809523Y-133297619D01*
X164761904Y-133392857D01*
X164761904Y-133488095D01*
X164809523Y-133630952D01*
X165380952Y-134202380D01*
X164761904Y-134202380D01*
G04 #@! TO.C,VD3*
X126509523Y-126252380D02*
X126176190Y-127252380D01*
X125842857Y-126252380D01*
X125509523Y-127252380D02*
X125509523Y-126252380D01*
X125271428Y-126252380D01*
X125128571Y-126300000D01*
X125033333Y-126395238D01*
X124985714Y-126490476D01*
X124938095Y-126680952D01*
X124938095Y-126823809D01*
X124985714Y-127014285D01*
X125033333Y-127109523D01*
X125128571Y-127204761D01*
X125271428Y-127252380D01*
X125509523Y-127252380D01*
X124604761Y-126252380D02*
X123985714Y-126252380D01*
X124319047Y-126633333D01*
X124176190Y-126633333D01*
X124080952Y-126680952D01*
X124033333Y-126728571D01*
X123985714Y-126823809D01*
X123985714Y-127061904D01*
X124033333Y-127157142D01*
X124080952Y-127204761D01*
X124176190Y-127252380D01*
X124461904Y-127252380D01*
X124557142Y-127204761D01*
X124604761Y-127157142D01*
G04 #@! TO.C,XP7*
D10*
X165202380Y-109440476D02*
X166202380Y-110107142D01*
X165202380Y-110107142D02*
X166202380Y-109440476D01*
X166202380Y-110488095D02*
X165202380Y-110488095D01*
X165202380Y-110869047D01*
X165250000Y-110964285D01*
X165297619Y-111011904D01*
X165392857Y-111059523D01*
X165535714Y-111059523D01*
X165630952Y-111011904D01*
X165678571Y-110964285D01*
X165726190Y-110869047D01*
X165726190Y-110488095D01*
X165202380Y-111392857D02*
X165202380Y-112059523D01*
X166202380Y-111630952D01*
G04 #@! TO.C,C17*
X132142857Y-70357142D02*
X132190476Y-70404761D01*
X132333333Y-70452380D01*
X132428571Y-70452380D01*
X132571428Y-70404761D01*
X132666666Y-70309523D01*
X132714285Y-70214285D01*
X132761904Y-70023809D01*
X132761904Y-69880952D01*
X132714285Y-69690476D01*
X132666666Y-69595238D01*
X132571428Y-69500000D01*
X132428571Y-69452380D01*
X132333333Y-69452380D01*
X132190476Y-69500000D01*
X132142857Y-69547619D01*
X131190476Y-70452380D02*
X131761904Y-70452380D01*
X131476190Y-70452380D02*
X131476190Y-69452380D01*
X131571428Y-69595238D01*
X131666666Y-69690476D01*
X131761904Y-69738095D01*
X130857142Y-69452380D02*
X130190476Y-69452380D01*
X130619047Y-70452380D01*
G04 #@! TO.C,C20*
X146392857Y-70357142D02*
X146440476Y-70404761D01*
X146583333Y-70452380D01*
X146678571Y-70452380D01*
X146821428Y-70404761D01*
X146916666Y-70309523D01*
X146964285Y-70214285D01*
X147011904Y-70023809D01*
X147011904Y-69880952D01*
X146964285Y-69690476D01*
X146916666Y-69595238D01*
X146821428Y-69500000D01*
X146678571Y-69452380D01*
X146583333Y-69452380D01*
X146440476Y-69500000D01*
X146392857Y-69547619D01*
X146011904Y-69547619D02*
X145964285Y-69500000D01*
X145869047Y-69452380D01*
X145630952Y-69452380D01*
X145535714Y-69500000D01*
X145488095Y-69547619D01*
X145440476Y-69642857D01*
X145440476Y-69738095D01*
X145488095Y-69880952D01*
X146059523Y-70452380D01*
X145440476Y-70452380D01*
X144821428Y-69452380D02*
X144726190Y-69452380D01*
X144630952Y-69500000D01*
X144583333Y-69547619D01*
X144535714Y-69642857D01*
X144488095Y-69833333D01*
X144488095Y-70071428D01*
X144535714Y-70261904D01*
X144583333Y-70357142D01*
X144630952Y-70404761D01*
X144726190Y-70452380D01*
X144821428Y-70452380D01*
X144916666Y-70404761D01*
X144964285Y-70357142D01*
X145011904Y-70261904D01*
X145059523Y-70071428D01*
X145059523Y-69833333D01*
X145011904Y-69642857D01*
X144964285Y-69547619D01*
X144916666Y-69500000D01*
X144821428Y-69452380D01*
G04 #@! TO.C,C23*
X159392857Y-70107142D02*
X159440476Y-70154761D01*
X159583333Y-70202380D01*
X159678571Y-70202380D01*
X159821428Y-70154761D01*
X159916666Y-70059523D01*
X159964285Y-69964285D01*
X160011904Y-69773809D01*
X160011904Y-69630952D01*
X159964285Y-69440476D01*
X159916666Y-69345238D01*
X159821428Y-69250000D01*
X159678571Y-69202380D01*
X159583333Y-69202380D01*
X159440476Y-69250000D01*
X159392857Y-69297619D01*
X159011904Y-69297619D02*
X158964285Y-69250000D01*
X158869047Y-69202380D01*
X158630952Y-69202380D01*
X158535714Y-69250000D01*
X158488095Y-69297619D01*
X158440476Y-69392857D01*
X158440476Y-69488095D01*
X158488095Y-69630952D01*
X159059523Y-70202380D01*
X158440476Y-70202380D01*
X158107142Y-69202380D02*
X157488095Y-69202380D01*
X157821428Y-69583333D01*
X157678571Y-69583333D01*
X157583333Y-69630952D01*
X157535714Y-69678571D01*
X157488095Y-69773809D01*
X157488095Y-70011904D01*
X157535714Y-70107142D01*
X157583333Y-70154761D01*
X157678571Y-70202380D01*
X157964285Y-70202380D01*
X158059523Y-70154761D01*
X158107142Y-70107142D01*
G04 #@! TD*
M02*
