solid 
   facet normal -1.000000e+000 0.000000e+000 0.000000e+000
      outer loop
         vertex -3.000000e+000 -2.683282e+001 4.760000e+001
         vertex -3.000000e+000 -2.700000e+001 4.760000e+001
         vertex -3.000000e+000 -2.700000e+001 5.100000e+001
      endloop
   endfacet
   facet normal -1.000000e+000 0.000000e+000 0.000000e+000
      outer loop
         vertex -3.000000e+000 -2.683282e+001 4.760000e+001
         vertex -3.000000e+000 -1.952787e+001 4.460000e+001
         vertex -3.000000e+000 -2.683282e+001 4.460000e+001
      endloop
   endfacet
   facet normal -1.000000e+000 0.000000e+000 0.000000e+000
      outer loop
         vertex -3.000000e+000 -2.683282e+001 4.760000e+001
         vertex -3.000000e+000 -2.700000e+001 5.100000e+001
         vertex -3.000000e+000 -2.540000e+001 5.260000e+001
      endloop
   endfacet
   facet normal -1.000000e+000 0.000000e+000 0.000000e+000
      outer loop
         vertex -3.000000e+000 -1.952787e+001 5.260000e+001
         vertex -3.000000e+000 -2.683282e+001 4.760000e+001
         vertex -3.000000e+000 -2.540000e+001 5.260000e+001
      endloop
   endfacet
   facet normal -1.000000e+000 0.000000e+000 -0.000000e+000
      outer loop
         vertex -3.000000e+000 -2.683282e+001 4.760000e+001
         vertex -3.000000e+000 -1.952787e+001 5.260000e+001
         vertex -3.000000e+000 -1.952787e+001 4.460000e+001
      endloop
   endfacet
   facet normal -1.000000e+000 0.000000e+000 0.000000e+000
      outer loop
         vertex -3.000000e+000 2.683282e+001 4.760000e+001
         vertex -3.000000e+000 1.987213e+001 5.260000e+001
         vertex -3.000000e+000 2.523281e+001 5.260000e+001
      endloop
   endfacet
   facet normal -1.000000e+000 0.000000e+000 0.000000e+000
      outer loop
         vertex -3.000000e+000 2.683282e+001 4.760000e+001
         vertex -3.000000e+000 2.683282e+001 4.460000e+001
         vertex -3.000000e+000 1.987213e+001 4.460000e+001
      endloop
   endfacet
   facet normal -1.000000e+000 0.000000e+000 0.000000e+000
      outer loop
         vertex -3.000000e+000 2.683282e+001 4.760000e+001
         vertex -3.000000e+000 2.523281e+001 5.260000e+001
         vertex -3.000000e+000 2.683282e+001 5.100000e+001
      endloop
   endfacet
   facet normal -1.000000e+000 0.000000e+000 0.000000e+000
      outer loop
         vertex -3.000000e+000 2.683282e+001 4.760000e+001
         vertex -3.000000e+000 1.987213e+001 4.460000e+001
         vertex -3.000000e+000 1.987213e+001 5.260000e+001
      endloop
   endfacet
   facet normal 1.000000e+000 0.000000e+000 0.000000e+000
      outer loop
         vertex 3.000000e+000 -2.683282e+001 4.760000e+001
         vertex 3.000000e+000 -1.952787e+001 5.260000e+001
         vertex 3.000000e+000 -2.540000e+001 5.260000e+001
      endloop
   endfacet
   facet normal 1.000000e+000 0.000000e+000 0.000000e+000
      outer loop
         vertex 3.000000e+000 -2.683282e+001 4.760000e+001
         vertex 3.000000e+000 -2.683282e+001 4.460000e+001
         vertex 3.000000e+000 -1.952787e+001 4.460000e+001
      endloop
   endfacet
   facet normal 1.000000e+000 0.000000e+000 0.000000e+000
      outer loop
         vertex 3.000000e+000 -2.683282e+001 4.760000e+001
         vertex 3.000000e+000 -2.700000e+001 5.100000e+001
         vertex 3.000000e+000 -2.700000e+001 4.760000e+001
      endloop
   endfacet
   facet normal 1.000000e+000 0.000000e+000 0.000000e+000
      outer loop
         vertex 3.000000e+000 -1.952787e+001 4.460000e+001
         vertex 3.000000e+000 -1.952787e+001 5.260000e+001
         vertex 3.000000e+000 -2.683282e+001 4.760000e+001
      endloop
   endfacet
   facet normal 1.000000e+000 0.000000e+000 0.000000e+000
      outer loop
         vertex 3.000000e+000 -2.683282e+001 4.760000e+001
         vertex 3.000000e+000 -2.540000e+001 5.260000e+001
         vertex 3.000000e+000 -2.700000e+001 5.100000e+001
      endloop
   endfacet
   facet normal 1.000000e+000 0.000000e+000 -0.000000e+000
      outer loop
         vertex 3.000000e+000 2.683282e+001 4.760000e+001
         vertex 3.000000e+000 2.700000e+001 4.760000e+001
         vertex 3.000000e+000 2.700000e+001 5.100000e+001
      endloop
   endfacet
   facet normal 1.000000e+000 0.000000e+000 0.000000e+000
      outer loop
         vertex 3.000000e+000 2.683282e+001 4.760000e+001
         vertex 3.000000e+000 1.987213e+001 4.460000e+001
         vertex 3.000000e+000 2.683282e+001 4.460000e+001
      endloop
   endfacet
   facet normal 1.000000e+000 0.000000e+000 0.000000e+000
      outer loop
         vertex 3.000000e+000 2.683282e+001 4.760000e+001
         vertex 3.000000e+000 2.700000e+001 5.100000e+001
         vertex 3.000000e+000 2.540000e+001 5.260000e+001
      endloop
   endfacet
   facet normal 1.000000e+000 0.000000e+000 0.000000e+000
      outer loop
         vertex 3.000000e+000 1.987213e+001 5.260000e+001
         vertex 3.000000e+000 2.683282e+001 4.760000e+001
         vertex 3.000000e+000 2.540000e+001 5.260000e+001
      endloop
   endfacet
   facet normal 1.000000e+000 0.000000e+000 0.000000e+000
      outer loop
         vertex 3.000000e+000 2.683282e+001 4.760000e+001
         vertex 3.000000e+000 1.987213e+001 5.260000e+001
         vertex 3.000000e+000 1.987213e+001 4.460000e+001
      endloop
   endfacet
   facet normal 0.000000e+000 0.000000e+000 -1.000000e+000
      outer loop
         vertex -2.502000e+001 -1.682787e+001 5.260000e+001
         vertex -2.540000e+001 -2.540000e+001 5.260000e+001
         vertex -2.540000e+001 2.523281e+001 5.260000e+001
      endloop
   endfacet
   facet normal 0.000000e+000 -0.000000e+000 -1.000000e+000
      outer loop
         vertex -2.540000e+001 -2.540000e+001 5.260000e+001
         vertex -3.000000e+000 -1.952787e+001 5.260000e+001
         vertex -3.000000e+000 -2.540000e+001 5.260000e+001
      endloop
   endfacet
   facet normal 0.000000e+000 0.000000e+000 -1.000000e+000
      outer loop
         vertex 3.000000e+000 -1.952787e+001 5.260000e+001
         vertex 2.540000e+001 -2.540000e+001 5.260000e+001
         vertex 3.000000e+000 -2.540000e+001 5.260000e+001
      endloop
   endfacet
   facet normal 0.000000e+000 0.000000e+000 -1.000000e+000
      outer loop
         vertex 2.540000e+001 2.540000e+001 5.260000e+001
         vertex 3.000000e+000 1.987213e+001 5.260000e+001
         vertex 3.000000e+000 2.540000e+001 5.260000e+001
      endloop
   endfacet
   facet normal 0.000000e+000 0.000000e+000 -1.000000e+000
      outer loop
         vertex -3.000000e+000 1.987213e+001 5.260000e+001
         vertex -2.540000e+001 2.523281e+001 5.260000e+001
         vertex -3.000000e+000 2.523281e+001 5.260000e+001
      endloop
   endfacet
   facet normal 0.000000e+000 0.000000e+000 -1.000000e+000
      outer loop
         vertex 2.540000e+001 2.540000e+001 5.260000e+001
         vertex 2.538000e+001 -1.682787e+001 5.260000e+001
         vertex 2.538000e+001 1.717213e+001 5.260000e+001
      endloop
   endfacet
   facet normal 0.000000e+000 0.000000e+000 -1.000000e+000
      outer loop
         vertex -2.502000e+001 1.717213e+001 5.260000e+001
         vertex -2.502000e+001 -1.682787e+001 5.260000e+001
         vertex -2.540000e+001 2.523281e+001 5.260000e+001
      endloop
   endfacet
   facet normal 0.000000e+000 0.000000e+000 -1.000000e+000
      outer loop
         vertex 2.538000e+001 -1.682787e+001 5.260000e+001
         vertex 2.540000e+001 -2.540000e+001 5.260000e+001
         vertex 3.000000e+000 -1.952787e+001 5.260000e+001
      endloop
   endfacet
   facet normal 0.000000e+000 0.000000e+000 -1.000000e+000
      outer loop
         vertex -2.502000e+001 1.717213e+001 5.260000e+001
         vertex -2.540000e+001 2.523281e+001 5.260000e+001
         vertex -3.000000e+000 1.987213e+001 5.260000e+001
      endloop
   endfacet
   facet normal 0.000000e+000 0.000000e+000 -1.000000e+000
      outer loop
         vertex 2.540000e+001 -2.540000e+001 5.260000e+001
         vertex 2.538000e+001 -1.682787e+001 5.260000e+001
         vertex 2.540000e+001 2.540000e+001 5.260000e+001
      endloop
   endfacet
   facet normal 0.000000e+000 0.000000e+000 -1.000000e+000
      outer loop
         vertex 3.000000e+000 1.987213e+001 5.260000e+001
         vertex 2.538000e+001 1.717213e+001 5.260000e+001
         vertex -2.502000e+001 1.717213e+001 5.260000e+001
      endloop
   endfacet
   facet normal 0.000000e+000 0.000000e+000 -1.000000e+000
      outer loop
         vertex -3.000000e+000 -1.952787e+001 5.260000e+001
         vertex -2.540000e+001 -2.540000e+001 5.260000e+001
         vertex -2.502000e+001 -1.682787e+001 5.260000e+001
      endloop
   endfacet
   facet normal 0.000000e+000 0.000000e+000 -1.000000e+000
      outer loop
         vertex 3.000000e+000 1.987213e+001 5.260000e+001
         vertex 2.540000e+001 2.540000e+001 5.260000e+001
         vertex 2.538000e+001 1.717213e+001 5.260000e+001
      endloop
   endfacet
   facet normal -0.000000e+000 0.000000e+000 -1.000000e+000
      outer loop
         vertex -3.000000e+000 1.987213e+001 5.260000e+001
         vertex 3.000000e+000 1.987213e+001 5.260000e+001
         vertex -2.502000e+001 1.717213e+001 5.260000e+001
      endloop
   endfacet
   facet normal 0.000000e+000 0.000000e+000 -1.000000e+000
      outer loop
         vertex -2.502000e+001 -1.682787e+001 5.260000e+001
         vertex 3.000000e+000 -1.952787e+001 5.260000e+001
         vertex -3.000000e+000 -1.952787e+001 5.260000e+001
      endloop
   endfacet
   facet normal -0.000000e+000 0.000000e+000 -1.000000e+000
      outer loop
         vertex -2.502000e+001 -1.682787e+001 5.260000e+001
         vertex 2.538000e+001 -1.682787e+001 5.260000e+001
         vertex 3.000000e+000 -1.952787e+001 5.260000e+001
      endloop
   endfacet
   facet normal 0.000000e+000 1.000000e+000 0.000000e+000
      outer loop
         vertex -3.000000e+000 -1.952787e+001 5.260000e+001
         vertex 3.000000e+000 -1.952787e+001 4.460000e+001
         vertex -3.000000e+000 -1.952787e+001 4.460000e+001
      endloop
   endfacet
   facet normal -0.000000e+000 1.000000e+000 0.000000e+000
      outer loop
         vertex 3.000000e+000 -1.952787e+001 4.460000e+001
         vertex -3.000000e+000 -1.952787e+001 5.260000e+001
         vertex 3.000000e+000 -1.952787e+001 5.260000e+001
      endloop
   endfacet
   facet normal 1.000000e+000 -0.000000e+000 0.000000e+000
      outer loop
         vertex -2.502000e+001 1.717213e+001 5.460000e+001
         vertex -2.502000e+001 -1.682787e+001 5.460000e+001
         vertex -2.502000e+001 -1.682787e+001 5.260000e+001
      endloop
   endfacet
   facet normal 1.000000e+000 0.000000e+000 0.000000e+000
      outer loop
         vertex -2.502000e+001 -1.682787e+001 5.460000e+001
         vertex -2.502000e+001 -1.952787e+001 5.580000e+001
         vertex -2.502000e+001 -1.952787e+001 5.460000e+001
      endloop
   endfacet
   facet normal 1.000000e+000 0.000000e+000 0.000000e+000
      outer loop
         vertex -2.502000e+001 1.987213e+001 5.580000e+001
         vertex -2.502000e+001 1.717213e+001 5.460000e+001
         vertex -2.502000e+001 1.987213e+001 5.460000e+001
      endloop
   endfacet
   facet normal 1.000000e+000 0.000000e+000 0.000000e+000
      outer loop
         vertex -2.502000e+001 1.717213e+001 5.260000e+001
         vertex -2.502000e+001 1.717213e+001 5.460000e+001
         vertex -2.502000e+001 -1.682787e+001 5.260000e+001
      endloop
   endfacet
   facet normal 1.000000e+000 0.000000e+000 0.000000e+000
      outer loop
         vertex -2.502000e+001 -1.682787e+001 5.460000e+001
         vertex -2.502000e+001 1.987213e+001 5.580000e+001
         vertex -2.502000e+001 -1.952787e+001 5.580000e+001
      endloop
   endfacet
   facet normal 1.000000e+000 0.000000e+000 -0.000000e+000
      outer loop
         vertex -2.502000e+001 -1.682787e+001 5.460000e+001
         vertex -2.502000e+001 1.717213e+001 5.460000e+001
         vertex -2.502000e+001 1.987213e+001 5.580000e+001
      endloop
   endfacet
   facet normal -0.000000e+000 -1.000000e+000 -0.000000e+000
      outer loop
         vertex 3.000000e+000 1.987213e+001 4.460000e+001
         vertex 3.000000e+000 1.987213e+001 5.260000e+001
         vertex -3.000000e+000 1.987213e+001 5.260000e+001
      endloop
   endfacet
   facet normal 0.000000e+000 -1.000000e+000 0.000000e+000
      outer loop
         vertex 3.000000e+000 1.987213e+001 4.460000e+001
         vertex -3.000000e+000 1.987213e+001 5.260000e+001
         vertex -3.000000e+000 1.987213e+001 4.460000e+001
      endloop
   endfacet
   facet normal -1.000000e+000 -0.000000e+000 -0.000000e+000
      outer loop
         vertex 2.538000e+001 -1.682787e+001 5.460000e+001
         vertex 2.538000e+001 1.717213e+001 5.460000e+001
         vertex 2.538000e+001 1.717213e+001 5.260000e+001
      endloop
   endfacet
   facet normal -1.000000e+000 0.000000e+000 -0.000000e+000
      outer loop
         vertex 2.538000e+001 1.717213e+001 5.460000e+001
         vertex 2.538000e+001 1.987213e+001 5.580000e+001
         vertex 2.538000e+001 1.987213e+001 5.460000e+001
      endloop
   endfacet
   facet normal -1.000000e+000 0.000000e+000 0.000000e+000
      outer loop
         vertex 2.538000e+001 -1.952787e+001 5.580000e+001
         vertex 2.538000e+001 -1.682787e+001 5.460000e+001
         vertex 2.538000e+001 -1.952787e+001 5.460000e+001
      endloop
   endfacet
   facet normal -1.000000e+000 0.000000e+000 0.000000e+000
      outer loop
         vertex 2.538000e+001 -1.682787e+001 5.260000e+001
         vertex 2.538000e+001 -1.682787e+001 5.460000e+001
         vertex 2.538000e+001 1.717213e+001 5.260000e+001
      endloop
   endfacet
   facet normal -1.000000e+000 0.000000e+000 0.000000e+000
      outer loop
         vertex 2.538000e+001 -1.682787e+001 5.460000e+001
         vertex 2.538000e+001 -1.952787e+001 5.580000e+001
         vertex 2.538000e+001 1.987213e+001 5.580000e+001
      endloop
   endfacet
   facet normal -1.000000e+000 0.000000e+000 0.000000e+000
      outer loop
         vertex 2.538000e+001 -1.682787e+001 5.460000e+001
         vertex 2.538000e+001 1.987213e+001 5.580000e+001
         vertex 2.538000e+001 1.717213e+001 5.460000e+001
      endloop
   endfacet
   facet normal 0.000000e+000 0.000000e+000 -1.000000e+000
      outer loop
         vertex -3.100000e+001 -3.100000e+001 4.760000e+001
         vertex -3.100000e+001 3.100000e+001 4.760000e+001
         vertex -2.700000e+001 2.683282e+001 4.760000e+001
      endloop
   endfacet
   facet normal 0.000000e+000 0.000000e+000 -1.000000e+000
      outer loop
         vertex 3.100000e+001 3.100000e+001 4.760000e+001
         vertex 3.100000e+001 -3.100000e+001 4.760000e+001
         vertex 2.700000e+001 2.700000e+001 4.760000e+001
      endloop
   endfacet
   facet normal -0.000000e+000 0.000000e+000 -1.000000e+000
      outer loop
         vertex -2.700000e+001 -2.700000e+001 4.760000e+001
         vertex -3.000000e+000 -2.700000e+001 4.760000e+001
         vertex -3.100000e+001 -3.100000e+001 4.760000e+001
      endloop
   endfacet
   facet normal 0.000000e+000 0.000000e+000 -1.000000e+000
      outer loop
         vertex -3.000000e+000 -2.683282e+001 4.760000e+001
         vertex 8.216784e-015 -2.700000e+001 4.760000e+001
         vertex -3.000000e+000 -2.700000e+001 4.760000e+001
      endloop
   endfacet
   facet normal -0.000000e+000 -0.000000e+000 -1.000000e+000
      outer loop
         vertex 3.000000e+000 -2.700000e+001 4.760000e+001
         vertex 2.700000e+001 -2.700000e+001 4.760000e+001
         vertex 3.100000e+001 -3.100000e+001 4.760000e+001
      endloop
   endfacet
   facet normal 0.000000e+000 0.000000e+000 -1.000000e+000
      outer loop
         vertex 2.700000e+001 2.700000e+001 4.760000e+001
         vertex 3.000000e+000 2.700000e+001 4.760000e+001
         vertex 3.100000e+001 3.100000e+001 4.760000e+001
      endloop
   endfacet
   facet normal 0.000000e+000 0.000000e+000 -1.000000e+000
      outer loop
         vertex 3.000000e+000 2.683282e+001 4.760000e+001
         vertex 4.601293e-015 2.700000e+001 4.760000e+001
         vertex 3.000000e+000 2.700000e+001 4.760000e+001
      endloop
   endfacet
   facet normal -0.000000e+000 0.000000e+000 -1.000000e+000
      outer loop
         vertex -2.700000e+001 2.683282e+001 4.760000e+001
         vertex -2.700000e+001 -2.700000e+001 4.760000e+001
         vertex -3.100000e+001 -3.100000e+001 4.760000e+001
      endloop
   endfacet
   facet normal 0.000000e+000 0.000000e+000 -1.000000e+000
      outer loop
         vertex 2.700000e+001 2.700000e+001 4.760000e+001
         vertex 3.100000e+001 -3.100000e+001 4.760000e+001
         vertex 2.700000e+001 -2.700000e+001 4.760000e+001
      endloop
   endfacet
   facet normal 0.000000e+000 0.000000e+000 -1.000000e+000
      outer loop
         vertex 3.000000e+000 -2.700000e+001 4.760000e+001
         vertex 3.100000e+001 -3.100000e+001 4.760000e+001
         vertex 8.216784e-015 -2.700000e+001 4.760000e+001
      endloop
   endfacet
   facet normal 0.000000e+000 0.000000e+000 -1.000000e+000
      outer loop
         vertex 3.000000e+000 2.700000e+001 4.760000e+001
         vertex 4.601293e-015 2.700000e+001 4.760000e+001
         vertex 3.100000e+001 3.100000e+001 4.760000e+001
      endloop
   endfacet
   facet normal 0.000000e+000 0.000000e+000 -1.000000e+000
      outer loop
         vertex 3.100000e+001 3.100000e+001 4.760000e+001
         vertex 4.601293e-015 2.700000e+001 4.760000e+001
         vertex -3.100000e+001 3.100000e+001 4.760000e+001
      endloop
   endfacet
   facet normal 0.000000e+000 0.000000e+000 -1.000000e+000
      outer loop
         vertex 3.100000e+001 -3.100000e+001 4.760000e+001
         vertex -3.100000e+001 -3.100000e+001 4.760000e+001
         vertex 8.216784e-015 -2.700000e+001 4.760000e+001
      endloop
   endfacet
   facet normal 0.000000e+000 0.000000e+000 -1.000000e+000
      outer loop
         vertex 3.000000e+000 -2.683282e+001 4.760000e+001
         vertex 3.000000e+000 -2.700000e+001 4.760000e+001
         vertex 8.216784e-015 -2.700000e+001 4.760000e+001
      endloop
   endfacet
   facet normal 0.000000e+000 0.000000e+000 -1.000000e+000
      outer loop
         vertex -2.700000e+001 2.683282e+001 4.760000e+001
         vertex -3.100000e+001 3.100000e+001 4.760000e+001
         vertex -3.000000e+000 2.683282e+001 4.760000e+001
      endloop
   endfacet
   facet normal -0.000000e+000 0.000000e+000 -1.000000e+000
      outer loop
         vertex -3.100000e+001 3.100000e+001 4.760000e+001
         vertex 4.601293e-015 2.700000e+001 4.760000e+001
         vertex -3.000000e+000 2.683282e+001 4.760000e+001
      endloop
   endfacet
   facet normal 0.000000e+000 -0.000000e+000 -1.000000e+000
      outer loop
         vertex -3.100000e+001 -3.100000e+001 4.760000e+001
         vertex -3.000000e+000 -2.700000e+001 4.760000e+001
         vertex 8.216784e-015 -2.700000e+001 4.760000e+001
      endloop
   endfacet
   facet normal -1.000000e+000 0.000000e+000 0.000000e+000
      outer loop
         vertex 2.700000e+001 2.700000e+001 4.760000e+001
         vertex 2.700000e+001 -2.700000e+001 4.760000e+001
         vertex 2.700000e+001 -2.700000e+001 5.100000e+001
      endloop
   endfacet
   facet normal -1.000000e+000 0.000000e+000 0.000000e+000
      outer loop
         vertex 2.700000e+001 2.700000e+001 4.760000e+001
         vertex 2.700000e+001 -2.700000e+001 5.100000e+001
         vertex 2.700000e+001 2.700000e+001 5.100000e+001
      endloop
   endfacet
   facet normal 0.000000e+000 1.000000e+000 0.000000e+000
      outer loop
         vertex 2.700000e+001 -2.700000e+001 5.100000e+001
         vertex 3.000000e+000 -2.700000e+001 4.760000e+001
         vertex 3.000000e+000 -2.700000e+001 5.100000e+001
      endloop
   endfacet
   facet normal 0.000000e+000 1.000000e+000 0.000000e+000
      outer loop
         vertex 3.000000e+000 -2.700000e+001 4.760000e+001
         vertex 2.700000e+001 -2.700000e+001 5.100000e+001
         vertex 2.700000e+001 -2.700000e+001 4.760000e+001
      endloop
   endfacet
   facet normal 0.000000e+000 -1.000000e+000 0.000000e+000
      outer loop
         vertex 3.000000e+000 2.700000e+001 4.760000e+001
         vertex 2.700000e+001 2.700000e+001 4.760000e+001
         vertex 2.700000e+001 2.700000e+001 5.100000e+001
      endloop
   endfacet
   facet normal -0.000000e+000 -1.000000e+000 0.000000e+000
      outer loop
         vertex 3.000000e+000 2.700000e+001 4.760000e+001
         vertex 2.700000e+001 2.700000e+001 5.100000e+001
         vertex 3.000000e+000 2.700000e+001 5.100000e+001
      endloop
   endfacet
   facet normal 0.000000e+000 1.000000e+000 0.000000e+000
      outer loop
         vertex -3.000000e+000 -2.700000e+001 5.100000e+001
         vertex -2.700000e+001 -2.700000e+001 4.760000e+001
         vertex -2.700000e+001 -2.700000e+001 5.100000e+001
      endloop
   endfacet
   facet normal 0.000000e+000 1.000000e+000 0.000000e+000
      outer loop
         vertex -2.700000e+001 -2.700000e+001 4.760000e+001
         vertex -3.000000e+000 -2.700000e+001 5.100000e+001
         vertex -3.000000e+000 -2.700000e+001 4.760000e+001
      endloop
   endfacet
   facet normal 1.000000e+000 0.000000e+000 -0.000000e+000
      outer loop
         vertex -2.700000e+001 -2.700000e+001 4.760000e+001
         vertex -2.700000e+001 2.683282e+001 4.760000e+001
         vertex -2.700000e+001 2.683282e+001 5.100000e+001
      endloop
   endfacet
   facet normal 1.000000e+000 0.000000e+000 0.000000e+000
      outer loop
         vertex -2.700000e+001 -2.700000e+001 4.760000e+001
         vertex -2.700000e+001 2.683282e+001 5.100000e+001
         vertex -2.700000e+001 -2.700000e+001 5.100000e+001
      endloop
   endfacet
   facet normal 0.000000e+000 -1.000000e+000 0.000000e+000
      outer loop
         vertex -2.700000e+001 2.683282e+001 5.100000e+001
         vertex -3.000000e+000 2.683282e+001 4.760000e+001
         vertex -3.000000e+000 2.683282e+001 5.100000e+001
      endloop
   endfacet
   facet normal 0.000000e+000 -1.000000e+000 0.000000e+000
      outer loop
         vertex -3.000000e+000 2.683282e+001 4.760000e+001
         vertex -2.700000e+001 2.683282e+001 5.100000e+001
         vertex -2.700000e+001 2.683282e+001 4.760000e+001
      endloop
   endfacet
   facet normal -5.564194e-002 -9.984508e-001 0.000000e+000
      outer loop
         vertex -3.000000e+000 -2.683282e+001 4.760000e+001
         vertex -3.000000e+000 -2.683282e+001 4.460000e+001
         vertex 8.011512e-015 -2.700000e+001 4.460000e+001
      endloop
   endfacet
   facet normal 5.564194e-002 -9.984508e-001 0.000000e+000
      outer loop
         vertex 3.000000e+000 -2.683282e+001 4.460000e+001
         vertex 3.000000e+000 -2.683282e+001 4.760000e+001
         vertex 8.011512e-015 -2.700000e+001 4.460000e+001
      endloop
   endfacet
   facet normal -5.564194e-002 -9.984508e-001 3.807238e-018
      outer loop
         vertex -3.000000e+000 -2.683282e+001 4.760000e+001
         vertex 8.011512e-015 -2.700000e+001 4.460000e+001
         vertex 8.216784e-015 -2.700000e+001 4.760000e+001
      endloop
   endfacet
   facet normal 5.564194e-002 -9.984508e-001 -3.807238e-018
      outer loop
         vertex 3.000000e+000 -2.683282e+001 4.760000e+001
         vertex 8.216784e-015 -2.700000e+001 4.760000e+001
         vertex 8.011512e-015 -2.700000e+001 4.460000e+001
      endloop
   endfacet
   facet normal 0.000000e+000 -0.000000e+000 -1.000000e+000
      outer loop
         vertex 8.011512e-015 -2.700000e+001 4.460000e+001
         vertex 3.000000e+000 -1.952787e+001 4.460000e+001
         vertex 3.000000e+000 -2.683282e+001 4.460000e+001
      endloop
   endfacet
   facet normal 0.000000e+000 0.000000e+000 -1.000000e+000
      outer loop
         vertex 8.011512e-015 -2.700000e+001 4.460000e+001
         vertex -3.000000e+000 -2.683282e+001 4.460000e+001
         vertex -3.000000e+000 -1.952787e+001 4.460000e+001
      endloop
   endfacet
   facet normal 0.000000e+000 0.000000e+000 -1.000000e+000
      outer loop
         vertex 3.000000e+000 -1.952787e+001 4.460000e+001
         vertex 8.011512e-015 -2.700000e+001 4.460000e+001
         vertex -3.000000e+000 -1.952787e+001 4.460000e+001
      endloop
   endfacet
   facet normal 5.564194e-002 9.984508e-001 -0.000000e+000
      outer loop
         vertex 3.000000e+000 2.683282e+001 4.760000e+001
         vertex 3.000000e+000 2.683282e+001 4.460000e+001
         vertex 4.601293e-015 2.700000e+001 4.760000e+001
      endloop
   endfacet
   facet normal -5.564194e-002 9.984508e-001 0.000000e+000
      outer loop
         vertex 1.398420e-015 2.700000e+001 4.460000e+001
         vertex -3.000000e+000 2.683282e+001 4.460000e+001
         vertex -3.000000e+000 2.683282e+001 4.760000e+001
      endloop
   endfacet
   facet normal 5.564194e-002 9.984508e-001 -6.158350e-017
      outer loop
         vertex 4.601293e-015 2.700000e+001 4.760000e+001
         vertex 3.000000e+000 2.683282e+001 4.460000e+001
         vertex 1.398420e-015 2.700000e+001 4.460000e+001
      endloop
   endfacet
   facet normal -5.564194e-002 9.984508e-001 5.940469e-017
      outer loop
         vertex -3.000000e+000 2.683282e+001 4.760000e+001
         vertex 4.601293e-015 2.700000e+001 4.760000e+001
         vertex 1.398420e-015 2.700000e+001 4.460000e+001
      endloop
   endfacet
   facet normal 0.000000e+000 0.000000e+000 -1.000000e+000
      outer loop
         vertex 1.398420e-015 2.700000e+001 4.460000e+001
         vertex -3.000000e+000 1.987213e+001 4.460000e+001
         vertex -3.000000e+000 2.683282e+001 4.460000e+001
      endloop
   endfacet
   facet normal -0.000000e+000 -0.000000e+000 -1.000000e+000
      outer loop
         vertex 1.398420e-015 2.700000e+001 4.460000e+001
         vertex 3.000000e+000 2.683282e+001 4.460000e+001
         vertex 3.000000e+000 1.987213e+001 4.460000e+001
      endloop
   endfacet
   facet normal 0.000000e+000 -0.000000e+000 -1.000000e+000
      outer loop
         vertex -3.000000e+000 1.987213e+001 4.460000e+001
         vertex 1.398420e-015 2.700000e+001 4.460000e+001
         vertex 3.000000e+000 1.987213e+001 4.460000e+001
      endloop
   endfacet
   facet normal 0.000000e+000 1.000000e+000 0.000000e+000
      outer loop
         vertex 2.538000e+001 -1.682787e+001 5.260000e+001
         vertex -2.502000e+001 -1.682787e+001 5.260000e+001
         vertex -2.502000e+001 -1.682787e+001 5.460000e+001
      endloop
   endfacet
   facet normal -0.000000e+000 1.000000e+000 0.000000e+000
      outer loop
         vertex 2.538000e+001 -1.682787e+001 5.260000e+001
         vertex -2.502000e+001 -1.682787e+001 5.460000e+001
         vertex 2.538000e+001 -1.682787e+001 5.460000e+001
      endloop
   endfacet
   facet normal 0.000000e+000 -1.000000e+000 0.000000e+000
      outer loop
         vertex -2.502000e+001 1.717213e+001 5.260000e+001
         vertex 2.538000e+001 1.717213e+001 5.260000e+001
         vertex 2.538000e+001 1.717213e+001 5.460000e+001
      endloop
   endfacet
   facet normal -0.000000e+000 -1.000000e+000 0.000000e+000
      outer loop
         vertex -2.502000e+001 1.717213e+001 5.260000e+001
         vertex 2.538000e+001 1.717213e+001 5.460000e+001
         vertex -2.502000e+001 1.717213e+001 5.460000e+001
      endloop
   endfacet
   facet normal -0.000000e+000 0.000000e+000 1.000000e+000
      outer loop
         vertex 2.538000e+001 1.987213e+001 5.460000e+001
         vertex -2.502000e+001 1.987213e+001 5.460000e+001
         vertex -2.502000e+001 1.717213e+001 5.460000e+001
      endloop
   endfacet
   facet normal 0.000000e+000 0.000000e+000 1.000000e+000
      outer loop
         vertex 2.538000e+001 1.717213e+001 5.460000e+001
         vertex 2.538000e+001 1.987213e+001 5.460000e+001
         vertex -2.502000e+001 1.717213e+001 5.460000e+001
      endloop
   endfacet
   facet normal 0.000000e+000 -1.000000e+000 0.000000e+000
      outer loop
         vertex 2.538000e+001 1.987213e+001 5.460000e+001
         vertex -2.502000e+001 1.987213e+001 5.580000e+001
         vertex -2.502000e+001 1.987213e+001 5.460000e+001
      endloop
   endfacet
   facet normal 0.000000e+000 -1.000000e+000 0.000000e+000
      outer loop
         vertex -2.502000e+001 1.987213e+001 5.580000e+001
         vertex 2.538000e+001 1.987213e+001 5.460000e+001
         vertex 2.538000e+001 1.987213e+001 5.580000e+001
      endloop
   endfacet
   facet normal 0.000000e+000 0.000000e+000 1.000000e+000
      outer loop
         vertex 2.700000e+001 -2.700000e+001 5.580000e+001
         vertex 2.700000e+001 2.700000e+001 5.580000e+001
         vertex 2.538000e+001 -1.952787e+001 5.580000e+001
      endloop
   endfacet
   facet normal 0.000000e+000 0.000000e+000 1.000000e+000
      outer loop
         vertex -2.700000e+001 2.700000e+001 5.580000e+001
         vertex -2.700000e+001 -2.700000e+001 5.580000e+001
         vertex -2.502000e+001 -1.952787e+001 5.580000e+001
      endloop
   endfacet
   facet normal 0.000000e+000 0.000000e+000 1.000000e+000
      outer loop
         vertex 2.538000e+001 1.987213e+001 5.580000e+001
         vertex 2.538000e+001 -1.952787e+001 5.580000e+001
         vertex 2.700000e+001 2.700000e+001 5.580000e+001
      endloop
   endfacet
   facet normal 0.000000e+000 0.000000e+000 1.000000e+000
      outer loop
         vertex -2.502000e+001 -1.952787e+001 5.580000e+001
         vertex -2.502000e+001 1.987213e+001 5.580000e+001
         vertex -2.700000e+001 2.700000e+001 5.580000e+001
      endloop
   endfacet
   facet normal 0.000000e+000 0.000000e+000 1.000000e+000
      outer loop
         vertex 2.700000e+001 -2.700000e+001 5.580000e+001
         vertex 2.538000e+001 -1.952787e+001 5.580000e+001
         vertex -2.502000e+001 -1.952787e+001 5.580000e+001
      endloop
   endfacet
   facet normal 0.000000e+000 -0.000000e+000 1.000000e+000
      outer loop
         vertex -2.700000e+001 2.700000e+001 5.580000e+001
         vertex -2.502000e+001 1.987213e+001 5.580000e+001
         vertex 2.700000e+001 2.700000e+001 5.580000e+001
      endloop
   endfacet
   facet normal 0.000000e+000 0.000000e+000 1.000000e+000
      outer loop
         vertex -2.700000e+001 -2.700000e+001 5.580000e+001
         vertex 2.700000e+001 -2.700000e+001 5.580000e+001
         vertex -2.502000e+001 -1.952787e+001 5.580000e+001
      endloop
   endfacet
   facet normal 0.000000e+000 0.000000e+000 1.000000e+000
      outer loop
         vertex 2.538000e+001 1.987213e+001 5.580000e+001
         vertex 2.700000e+001 2.700000e+001 5.580000e+001
         vertex -2.502000e+001 1.987213e+001 5.580000e+001
      endloop
   endfacet
   facet normal 0.000000e+000 1.000000e+000 0.000000e+000
      outer loop
         vertex -2.502000e+001 -1.952787e+001 5.460000e+001
         vertex 2.538000e+001 -1.952787e+001 5.580000e+001
         vertex 2.538000e+001 -1.952787e+001 5.460000e+001
      endloop
   endfacet
   facet normal 0.000000e+000 1.000000e+000 0.000000e+000
      outer loop
         vertex 2.538000e+001 -1.952787e+001 5.580000e+001
         vertex -2.502000e+001 -1.952787e+001 5.460000e+001
         vertex -2.502000e+001 -1.952787e+001 5.580000e+001
      endloop
   endfacet
   facet normal -0.000000e+000 0.000000e+000 1.000000e+000
      outer loop
         vertex 2.538000e+001 -1.682787e+001 5.460000e+001
         vertex -2.502000e+001 -1.682787e+001 5.460000e+001
         vertex -2.502000e+001 -1.952787e+001 5.460000e+001
      endloop
   endfacet
   facet normal 0.000000e+000 0.000000e+000 1.000000e+000
      outer loop
         vertex 2.538000e+001 -1.952787e+001 5.460000e+001
         vertex 2.538000e+001 -1.682787e+001 5.460000e+001
         vertex -2.502000e+001 -1.952787e+001 5.460000e+001
      endloop
   endfacet
   facet normal -0.000000e+000 1.000000e+000 0.000000e+000
      outer loop
         vertex -3.100000e+001 3.100000e+001 4.760000e+001
         vertex -3.100000e+001 3.100000e+001 5.180000e+001
         vertex 3.100000e+001 3.100000e+001 5.180000e+001
      endloop
   endfacet
   facet normal 0.000000e+000 1.000000e+000 0.000000e+000
      outer loop
         vertex 3.100000e+001 3.100000e+001 4.760000e+001
         vertex -3.100000e+001 3.100000e+001 4.760000e+001
         vertex 3.100000e+001 3.100000e+001 5.180000e+001
      endloop
   endfacet
   facet normal 1.000000e+000 0.000000e+000 0.000000e+000
      outer loop
         vertex 3.100000e+001 3.100000e+001 4.760000e+001
         vertex 3.100000e+001 3.100000e+001 5.180000e+001
         vertex 3.100000e+001 -3.100000e+001 5.180000e+001
      endloop
   endfacet
   facet normal 1.000000e+000 0.000000e+000 0.000000e+000
      outer loop
         vertex 3.100000e+001 -3.100000e+001 4.760000e+001
         vertex 3.100000e+001 3.100000e+001 4.760000e+001
         vertex 3.100000e+001 -3.100000e+001 5.180000e+001
      endloop
   endfacet
   facet normal 0.000000e+000 -1.000000e+000 -0.000000e+000
      outer loop
         vertex 3.100000e+001 -3.100000e+001 4.760000e+001
         vertex 3.100000e+001 -3.100000e+001 5.180000e+001
         vertex -3.100000e+001 -3.100000e+001 4.760000e+001
      endloop
   endfacet
   facet normal 0.000000e+000 -1.000000e+000 0.000000e+000
      outer loop
         vertex -3.100000e+001 -3.100000e+001 5.180000e+001
         vertex -3.100000e+001 -3.100000e+001 4.760000e+001
         vertex 3.100000e+001 -3.100000e+001 5.180000e+001
      endloop
   endfacet
   facet normal -1.000000e+000 0.000000e+000 0.000000e+000
      outer loop
         vertex -3.100000e+001 -3.100000e+001 4.760000e+001
         vertex -3.100000e+001 -3.100000e+001 5.180000e+001
         vertex -3.100000e+001 3.100000e+001 4.760000e+001
      endloop
   endfacet
   facet normal -1.000000e+000 0.000000e+000 0.000000e+000
      outer loop
         vertex -3.100000e+001 3.100000e+001 5.180000e+001
         vertex -3.100000e+001 3.100000e+001 4.760000e+001
         vertex -3.100000e+001 -3.100000e+001 5.180000e+001
      endloop
   endfacet
   facet normal 0.000000e+000 7.071064e-001 -7.071072e-001
      outer loop
         vertex 3.000000e+000 -2.700000e+001 5.100000e+001
         vertex 3.000000e+000 -2.540000e+001 5.260000e+001
         vertex 2.540000e+001 -2.540000e+001 5.260000e+001
      endloop
   endfacet
   facet normal 0.000000e+000 7.071064e-001 -7.071072e-001
      outer loop
         vertex 2.700000e+001 -2.700000e+001 5.100000e+001
         vertex 3.000000e+000 -2.700000e+001 5.100000e+001
         vertex 2.540000e+001 -2.540000e+001 5.260000e+001
      endloop
   endfacet
   facet normal -7.071064e-001 0.000000e+000 -7.071072e-001
      outer loop
         vertex 2.700000e+001 -2.700000e+001 5.100000e+001
         vertex 2.540000e+001 -2.540000e+001 5.260000e+001
         vertex 2.700000e+001 2.700000e+001 5.100000e+001
      endloop
   endfacet
   facet normal -7.071064e-001 0.000000e+000 -7.071072e-001
      outer loop
         vertex 2.540000e+001 2.540000e+001 5.260000e+001
         vertex 2.700000e+001 2.700000e+001 5.100000e+001
         vertex 2.540000e+001 -2.540000e+001 5.260000e+001
      endloop
   endfacet
   facet normal 0.000000e+000 -7.071064e-001 -7.071072e-001
      outer loop
         vertex 2.700000e+001 2.700000e+001 5.100000e+001
         vertex 2.540000e+001 2.540000e+001 5.260000e+001
         vertex 3.000000e+000 2.700000e+001 5.100000e+001
      endloop
   endfacet
   facet normal 0.000000e+000 -7.071064e-001 -7.071072e-001
      outer loop
         vertex 3.000000e+000 2.540000e+001 5.260000e+001
         vertex 3.000000e+000 2.700000e+001 5.100000e+001
         vertex 2.540000e+001 2.540000e+001 5.260000e+001
      endloop
   endfacet
   facet normal -0.000000e+000 -7.071064e-001 -7.071072e-001
      outer loop
         vertex -3.000000e+000 2.683282e+001 5.100000e+001
         vertex -3.000000e+000 2.523281e+001 5.260000e+001
         vertex -2.540000e+001 2.523281e+001 5.260000e+001
      endloop
   endfacet
   facet normal -0.000000e+000 -7.071064e-001 -7.071072e-001
      outer loop
         vertex -2.700000e+001 2.683282e+001 5.100000e+001
         vertex -3.000000e+000 2.683282e+001 5.100000e+001
         vertex -2.540000e+001 2.523281e+001 5.260000e+001
      endloop
   endfacet
   facet normal 7.071064e-001 0.000000e+000 -7.071072e-001
      outer loop
         vertex -2.700000e+001 2.683282e+001 5.100000e+001
         vertex -2.540000e+001 2.523281e+001 5.260000e+001
         vertex -2.540000e+001 -2.540000e+001 5.260000e+001
      endloop
   endfacet
   facet normal 7.071064e-001 0.000000e+000 -7.071072e-001
      outer loop
         vertex -2.700000e+001 -2.700000e+001 5.100000e+001
         vertex -2.700000e+001 2.683282e+001 5.100000e+001
         vertex -2.540000e+001 -2.540000e+001 5.260000e+001
      endloop
   endfacet
   facet normal 0.000000e+000 7.071064e-001 -7.071072e-001
      outer loop
         vertex -2.700000e+001 -2.700000e+001 5.100000e+001
         vertex -2.540000e+001 -2.540000e+001 5.260000e+001
         vertex -3.000000e+000 -2.700000e+001 5.100000e+001
      endloop
   endfacet
   facet normal 0.000000e+000 7.071064e-001 -7.071072e-001
      outer loop
         vertex -3.000000e+000 -2.540000e+001 5.260000e+001
         vertex -3.000000e+000 -2.700000e+001 5.100000e+001
         vertex -2.540000e+001 -2.540000e+001 5.260000e+001
      endloop
   endfacet
   facet normal 0.000000e+000 7.071068e-001 7.071068e-001
      outer loop
         vertex 2.700000e+001 2.700000e+001 5.580000e+001
         vertex 3.100000e+001 3.100000e+001 5.180000e+001
         vertex -2.700000e+001 2.700000e+001 5.580000e+001
      endloop
   endfacet
   facet normal 0.000000e+000 7.071068e-001 7.071068e-001
      outer loop
         vertex -3.100000e+001 3.100000e+001 5.180000e+001
         vertex -2.700000e+001 2.700000e+001 5.580000e+001
         vertex 3.100000e+001 3.100000e+001 5.180000e+001
      endloop
   endfacet
   facet normal -7.071068e-001 0.000000e+000 7.071068e-001
      outer loop
         vertex -2.700000e+001 2.700000e+001 5.580000e+001
         vertex -3.100000e+001 3.100000e+001 5.180000e+001
         vertex -3.100000e+001 -3.100000e+001 5.180000e+001
      endloop
   endfacet
   facet normal -7.071068e-001 0.000000e+000 7.071068e-001
      outer loop
         vertex -2.700000e+001 -2.700000e+001 5.580000e+001
         vertex -2.700000e+001 2.700000e+001 5.580000e+001
         vertex -3.100000e+001 -3.100000e+001 5.180000e+001
      endloop
   endfacet
   facet normal 0.000000e+000 -7.071068e-001 7.071068e-001
      outer loop
         vertex -2.700000e+001 -2.700000e+001 5.580000e+001
         vertex -3.100000e+001 -3.100000e+001 5.180000e+001
         vertex 2.700000e+001 -2.700000e+001 5.580000e+001
      endloop
   endfacet
   facet normal 0.000000e+000 -7.071068e-001 7.071068e-001
      outer loop
         vertex 3.100000e+001 -3.100000e+001 5.180000e+001
         vertex 2.700000e+001 -2.700000e+001 5.580000e+001
         vertex -3.100000e+001 -3.100000e+001 5.180000e+001
      endloop
   endfacet
   facet normal 7.071068e-001 -0.000000e+000 7.071068e-001
      outer loop
         vertex 2.700000e+001 -2.700000e+001 5.580000e+001
         vertex 3.100000e+001 -3.100000e+001 5.180000e+001
         vertex 3.100000e+001 3.100000e+001 5.180000e+001
      endloop
   endfacet
   facet normal 7.071068e-001 -0.000000e+000 7.071068e-001
      outer loop
         vertex 2.700000e+001 2.700000e+001 5.580000e+001
         vertex 2.700000e+001 -2.700000e+001 5.580000e+001
         vertex 3.100000e+001 3.100000e+001 5.180000e+001
      endloop
   endfacet
endsolid
