solid 
   facet normal 0.000000e+000 0.000000e+000 -1.000000e+000
      outer loop
         vertex 3.100000e+001 3.100000e+001 4.610000e+001
         vertex 3.100000e+001 -3.100000e+001 4.610000e+001
         vertex 2.700000e+001 3.306546e-015 4.610000e+001
      endloop
   endfacet
   facet normal 0.000000e+000 0.000000e+000 -1.000000e+000
      outer loop
         vertex -3.100000e+001 -3.100000e+001 4.610000e+001
         vertex -3.100000e+001 3.100000e+001 4.610000e+001
         vertex -2.700000e+001 -3.089442e-016 4.610000e+001
      endloop
   endfacet
   facet normal -0.000000e+000 -0.000000e+000 -1.000000e+000
      outer loop
         vertex -2.683282e+001 -3.000000e+000 4.610000e+001
         vertex -2.502000e+001 -3.000000e+000 4.610000e+001
         vertex -2.502000e+001 -1.902787e+001 4.610000e+001
      endloop
   endfacet
   facet normal 0.000000e+000 0.000000e+000 -1.000000e+000
      outer loop
         vertex -3.000000e+000 -1.902787e+001 4.610000e+001
         vertex -3.000000e+000 -2.683282e+001 4.610000e+001
         vertex -2.502000e+001 -1.902787e+001 4.610000e+001
      endloop
   endfacet
   facet normal 0.000000e+000 0.000000e+000 -1.000000e+000
      outer loop
         vertex 3.000000e+000 -2.683282e+001 4.610000e+001
         vertex 3.000000e+000 -1.902787e+001 4.610000e+001
         vertex 2.538000e+001 -1.902787e+001 4.610000e+001
      endloop
   endfacet
   facet normal -0.000000e+000 0.000000e+000 -1.000000e+000
      outer loop
         vertex 2.538000e+001 -3.000000e+000 4.610000e+001
         vertex 2.683282e+001 -3.000000e+000 4.610000e+001
         vertex 2.538000e+001 -1.902787e+001 4.610000e+001
      endloop
   endfacet
   facet normal 0.000000e+000 0.000000e+000 -1.000000e+000
      outer loop
         vertex 2.683282e+001 3.000000e+000 4.610000e+001
         vertex 2.538000e+001 3.000000e+000 4.610000e+001
         vertex 2.538000e+001 1.937213e+001 4.610000e+001
      endloop
   endfacet
   facet normal 0.000000e+000 0.000000e+000 -1.000000e+000
      outer loop
         vertex 5.000000e+000 1.937213e+001 4.610000e+001
         vertex 5.000000e+000 2.653300e+001 4.610000e+001
         vertex 2.538000e+001 1.937213e+001 4.610000e+001
      endloop
   endfacet
   facet normal 0.000000e+000 0.000000e+000 -1.000000e+000
      outer loop
         vertex -3.000000e+000 2.683282e+001 4.610000e+001
         vertex -3.000000e+000 1.937213e+001 4.610000e+001
         vertex -2.502000e+001 1.937213e+001 4.610000e+001
      endloop
   endfacet
   facet normal 0.000000e+000 0.000000e+000 -1.000000e+000
      outer loop
         vertex -2.502000e+001 3.000000e+000 4.610000e+001
         vertex -2.683282e+001 3.000000e+000 4.610000e+001
         vertex -2.502000e+001 1.937213e+001 4.610000e+001
      endloop
   endfacet
   facet normal 0.000000e+000 0.000000e+000 -1.000000e+000
      outer loop
         vertex 3.100000e+001 3.100000e+001 4.610000e+001
         vertex 2.700000e+001 3.306546e-015 4.610000e+001
         vertex 2.683282e+001 3.000000e+000 4.610000e+001
      endloop
   endfacet
   facet normal 0.000000e+000 0.000000e+000 -1.000000e+000
      outer loop
         vertex -2.700000e+001 -3.089442e-016 4.610000e+001
         vertex -3.100000e+001 3.100000e+001 4.610000e+001
         vertex -2.683282e+001 3.000000e+000 4.610000e+001
      endloop
   endfacet
   facet normal 0.000000e+000 -0.000000e+000 -1.000000e+000
      outer loop
         vertex 3.000000e+000 -2.683282e+001 4.610000e+001
         vertex 2.538000e+001 -1.902787e+001 4.610000e+001
         vertex 3.100000e+001 -3.100000e+001 4.610000e+001
      endloop
   endfacet
   facet normal 0.000000e+000 0.000000e+000 -1.000000e+000
      outer loop
         vertex 2.683282e+001 3.000000e+000 4.610000e+001
         vertex 2.538000e+001 1.937213e+001 4.610000e+001
         vertex 3.100000e+001 3.100000e+001 4.610000e+001
      endloop
   endfacet
   facet normal 0.000000e+000 0.000000e+000 -1.000000e+000
      outer loop
         vertex -3.000000e+000 2.683282e+001 4.610000e+001
         vertex -2.502000e+001 1.937213e+001 4.610000e+001
         vertex -3.100000e+001 3.100000e+001 4.610000e+001
      endloop
   endfacet
   facet normal 0.000000e+000 0.000000e+000 -1.000000e+000
      outer loop
         vertex -2.683282e+001 3.000000e+000 4.610000e+001
         vertex -3.100000e+001 3.100000e+001 4.610000e+001
         vertex -2.502000e+001 1.937213e+001 4.610000e+001
      endloop
   endfacet
   facet normal 0.000000e+000 0.000000e+000 -1.000000e+000
      outer loop
         vertex 3.100000e+001 3.100000e+001 4.610000e+001
         vertex 2.538000e+001 1.937213e+001 4.610000e+001
         vertex 5.000000e+000 2.653300e+001 4.610000e+001
      endloop
   endfacet
   facet normal 0.000000e+000 0.000000e+000 -1.000000e+000
      outer loop
         vertex 3.100000e+001 -3.100000e+001 4.610000e+001
         vertex -3.100000e+001 -3.100000e+001 4.610000e+001
         vertex 8.114148e-015 -2.700000e+001 4.610000e+001
      endloop
   endfacet
   facet normal -0.000000e+000 0.000000e+000 -1.000000e+000
      outer loop
         vertex -3.000000e+000 -2.683282e+001 4.610000e+001
         vertex 8.114148e-015 -2.700000e+001 4.610000e+001
         vertex -3.100000e+001 -3.100000e+001 4.610000e+001
      endloop
   endfacet
   facet normal 0.000000e+000 -0.000000e+000 -1.000000e+000
      outer loop
         vertex 2.683282e+001 -3.000000e+000 4.610000e+001
         vertex 2.700000e+001 3.306546e-015 4.610000e+001
         vertex 3.100000e+001 -3.100000e+001 4.610000e+001
      endloop
   endfacet
   facet normal 0.000000e+000 0.000000e+000 -1.000000e+000
      outer loop
         vertex 1.011174e+000 2.698106e+001 4.610000e+001
         vertex -3.000000e+000 2.683282e+001 4.610000e+001
         vertex -3.100000e+001 3.100000e+001 4.610000e+001
      endloop
   endfacet
   facet normal 0.000000e+000 -0.000000e+000 -1.000000e+000
      outer loop
         vertex -3.100000e+001 -3.100000e+001 4.610000e+001
         vertex -2.700000e+001 -3.089442e-016 4.610000e+001
         vertex -2.683282e+001 -3.000000e+000 4.610000e+001
      endloop
   endfacet
   facet normal 0.000000e+000 -0.000000e+000 -1.000000e+000
      outer loop
         vertex 2.538000e+001 -1.902787e+001 4.610000e+001
         vertex 2.683282e+001 -3.000000e+000 4.610000e+001
         vertex 3.100000e+001 -3.100000e+001 4.610000e+001
      endloop
   endfacet
   facet normal 0.000000e+000 0.000000e+000 -1.000000e+000
      outer loop
         vertex 3.100000e+001 3.100000e+001 4.610000e+001
         vertex 5.000000e+000 2.653300e+001 4.610000e+001
         vertex 1.011174e+000 2.698106e+001 4.610000e+001
      endloop
   endfacet
   facet normal 0.000000e+000 0.000000e+000 -1.000000e+000
      outer loop
         vertex 1.011174e+000 2.698106e+001 4.610000e+001
         vertex -3.100000e+001 3.100000e+001 4.610000e+001
         vertex 3.100000e+001 3.100000e+001 4.610000e+001
      endloop
   endfacet
   facet normal 0.000000e+000 -0.000000e+000 -1.000000e+000
      outer loop
         vertex 8.114148e-015 -2.700000e+001 4.610000e+001
         vertex 3.000000e+000 -2.683282e+001 4.610000e+001
         vertex 3.100000e+001 -3.100000e+001 4.610000e+001
      endloop
   endfacet
   facet normal -0.000000e+000 0.000000e+000 -1.000000e+000
      outer loop
         vertex -2.502000e+001 -1.902787e+001 4.610000e+001
         vertex -3.000000e+000 -2.683282e+001 4.610000e+001
         vertex -3.100000e+001 -3.100000e+001 4.610000e+001
      endloop
   endfacet
   facet normal 0.000000e+000 0.000000e+000 -1.000000e+000
      outer loop
         vertex -2.502000e+001 -1.902787e+001 4.610000e+001
         vertex -3.100000e+001 -3.100000e+001 4.610000e+001
         vertex -2.683282e+001 -3.000000e+000 4.610000e+001
      endloop
   endfacet
   facet normal 1.000000e+000 0.000000e+000 0.000000e+000
      outer loop
         vertex 3.000000e+000 -2.683282e+001 4.460000e+001
         vertex 3.000000e+000 -1.902787e+001 4.610000e+001
         vertex 3.000000e+000 -2.683282e+001 4.610000e+001
      endloop
   endfacet
   facet normal 1.000000e+000 0.000000e+000 0.000000e+000
      outer loop
         vertex 3.000000e+000 -1.902787e+001 4.610000e+001
         vertex 3.000000e+000 -2.683282e+001 4.460000e+001
         vertex 3.000000e+000 -1.902787e+001 4.460000e+001
      endloop
   endfacet
   facet normal 0.000000e+000 -1.000000e+000 0.000000e+000
      outer loop
         vertex 2.538000e+001 -3.000000e+000 4.610000e+001
         vertex 2.538000e+001 -3.000000e+000 4.460000e+001
         vertex 2.683282e+001 -3.000000e+000 4.460000e+001
      endloop
   endfacet
   facet normal 0.000000e+000 -1.000000e+000 0.000000e+000
      outer loop
         vertex 2.538000e+001 -3.000000e+000 4.610000e+001
         vertex 2.683282e+001 -3.000000e+000 4.460000e+001
         vertex 2.683282e+001 -3.000000e+000 4.610000e+001
      endloop
   endfacet
   facet normal -0.000000e+000 1.000000e+000 0.000000e+000
      outer loop
         vertex 2.538000e+001 3.000000e+000 4.460000e+001
         vertex 2.538000e+001 3.000000e+000 4.610000e+001
         vertex 2.683282e+001 3.000000e+000 4.610000e+001
      endloop
   endfacet
   facet normal 0.000000e+000 1.000000e+000 0.000000e+000
      outer loop
         vertex 2.538000e+001 3.000000e+000 4.460000e+001
         vertex 2.683282e+001 3.000000e+000 4.610000e+001
         vertex 2.683282e+001 3.000000e+000 4.460000e+001
      endloop
   endfacet
   facet normal 1.000000e+000 0.000000e+000 0.000000e+000
      outer loop
         vertex 5.000000e+000 2.653300e+001 4.610000e+001
         vertex 5.000000e+000 1.937213e+001 4.460000e+001
         vertex 5.000000e+000 2.653300e+001 4.460000e+001
      endloop
   endfacet
   facet normal 1.000000e+000 0.000000e+000 0.000000e+000
      outer loop
         vertex 5.000000e+000 1.937213e+001 4.460000e+001
         vertex 5.000000e+000 2.653300e+001 4.610000e+001
         vertex 5.000000e+000 1.937213e+001 4.610000e+001
      endloop
   endfacet
   facet normal -1.000000e+000 0.000000e+000 0.000000e+000
      outer loop
         vertex -3.000000e+000 1.937213e+001 4.460000e+001
         vertex -3.000000e+000 1.937213e+001 4.610000e+001
         vertex -3.000000e+000 2.683282e+001 4.610000e+001
      endloop
   endfacet
   facet normal -1.000000e+000 0.000000e+000 -0.000000e+000
      outer loop
         vertex -3.000000e+000 1.937213e+001 4.460000e+001
         vertex -3.000000e+000 2.683282e+001 4.610000e+001
         vertex -3.000000e+000 2.683282e+001 4.460000e+001
      endloop
   endfacet
   facet normal 0.000000e+000 1.000000e+000 -0.000000e+000
      outer loop
         vertex -2.502000e+001 3.000000e+000 4.610000e+001
         vertex -2.502000e+001 3.000000e+000 4.460000e+001
         vertex -2.683282e+001 3.000000e+000 4.460000e+001
      endloop
   endfacet
   facet normal 0.000000e+000 1.000000e+000 0.000000e+000
      outer loop
         vertex -2.502000e+001 3.000000e+000 4.610000e+001
         vertex -2.683282e+001 3.000000e+000 4.460000e+001
         vertex -2.683282e+001 3.000000e+000 4.610000e+001
      endloop
   endfacet
   facet normal -0.000000e+000 -1.000000e+000 0.000000e+000
      outer loop
         vertex -2.683282e+001 -3.000000e+000 4.460000e+001
         vertex -2.502000e+001 -3.000000e+000 4.610000e+001
         vertex -2.683282e+001 -3.000000e+000 4.610000e+001
      endloop
   endfacet
   facet normal 0.000000e+000 -1.000000e+000 0.000000e+000
      outer loop
         vertex -2.502000e+001 -3.000000e+000 4.610000e+001
         vertex -2.683282e+001 -3.000000e+000 4.460000e+001
         vertex -2.502000e+001 -3.000000e+000 4.460000e+001
      endloop
   endfacet
   facet normal -1.000000e+000 0.000000e+000 0.000000e+000
      outer loop
         vertex -3.000000e+000 -2.683282e+001 4.610000e+001
         vertex -3.000000e+000 -1.902787e+001 4.460000e+001
         vertex -3.000000e+000 -2.683282e+001 4.460000e+001
      endloop
   endfacet
   facet normal -1.000000e+000 0.000000e+000 0.000000e+000
      outer loop
         vertex -3.000000e+000 -1.902787e+001 4.460000e+001
         vertex -3.000000e+000 -2.683282e+001 4.610000e+001
         vertex -3.000000e+000 -1.902787e+001 4.610000e+001
      endloop
   endfacet
   facet normal -1.000000e+000 0.000000e+000 0.000000e+000
      outer loop
         vertex -3.100000e+001 3.100000e+001 5.180000e+001
         vertex -3.100000e+001 3.100000e+001 4.610000e+001
         vertex -3.100000e+001 -3.100000e+001 5.180000e+001
      endloop
   endfacet
   facet normal -1.000000e+000 0.000000e+000 0.000000e+000
      outer loop
         vertex -3.100000e+001 -3.100000e+001 4.610000e+001
         vertex -3.100000e+001 -3.100000e+001 5.180000e+001
         vertex -3.100000e+001 3.100000e+001 4.610000e+001
      endloop
   endfacet
   facet normal 0.000000e+000 1.000000e+000 -0.000000e+000
      outer loop
         vertex 3.100000e+001 3.100000e+001 5.180000e+001
         vertex 3.100000e+001 3.100000e+001 4.610000e+001
         vertex -3.100000e+001 3.100000e+001 4.610000e+001
      endloop
   endfacet
   facet normal 0.000000e+000 1.000000e+000 0.000000e+000
      outer loop
         vertex -3.100000e+001 3.100000e+001 5.180000e+001
         vertex 3.100000e+001 3.100000e+001 5.180000e+001
         vertex -3.100000e+001 3.100000e+001 4.610000e+001
      endloop
   endfacet
   facet normal 1.000000e+000 0.000000e+000 0.000000e+000
      outer loop
         vertex 3.100000e+001 -3.100000e+001 5.180000e+001
         vertex 3.100000e+001 -3.100000e+001 4.610000e+001
         vertex 3.100000e+001 3.100000e+001 5.180000e+001
      endloop
   endfacet
   facet normal 1.000000e+000 0.000000e+000 0.000000e+000
      outer loop
         vertex 3.100000e+001 3.100000e+001 4.610000e+001
         vertex 3.100000e+001 3.100000e+001 5.180000e+001
         vertex 3.100000e+001 -3.100000e+001 4.610000e+001
      endloop
   endfacet
   facet normal 0.000000e+000 -1.000000e+000 0.000000e+000
      outer loop
         vertex -3.100000e+001 -3.100000e+001 4.610000e+001
         vertex 3.100000e+001 -3.100000e+001 4.610000e+001
         vertex 3.100000e+001 -3.100000e+001 5.180000e+001
      endloop
   endfacet
   facet normal 0.000000e+000 -1.000000e+000 0.000000e+000
      outer loop
         vertex -3.100000e+001 -3.100000e+001 5.180000e+001
         vertex -3.100000e+001 -3.100000e+001 4.610000e+001
         vertex 3.100000e+001 -3.100000e+001 5.180000e+001
      endloop
   endfacet
   facet normal 0.000000e+000 0.000000e+000 -1.000000e+000
      outer loop
         vertex -2.502000e+001 3.000000e+000 4.460000e+001
         vertex -2.700000e+001 -7.053549e-015 4.460000e+001
         vertex -2.683282e+001 3.000000e+000 4.460000e+001
      endloop
   endfacet
   facet normal 0.000000e+000 0.000000e+000 -1.000000e+000
      outer loop
         vertex -2.700000e+001 -7.053549e-015 4.460000e+001
         vertex -2.502000e+001 -3.000000e+000 4.460000e+001
         vertex -2.683282e+001 -3.000000e+000 4.460000e+001
      endloop
   endfacet
   facet normal 0.000000e+000 0.000000e+000 -1.000000e+000
      outer loop
         vertex -2.502000e+001 3.000000e+000 4.460000e+001
         vertex -2.502000e+001 -3.000000e+000 4.460000e+001
         vertex -2.700000e+001 -7.053549e-015 4.460000e+001
      endloop
   endfacet
   facet normal 0.000000e+000 0.000000e+000 -1.000000e+000
      outer loop
         vertex 1.011174e+000 2.698106e+001 4.460000e+001
         vertex -3.000000e+000 1.937213e+001 4.460000e+001
         vertex -3.000000e+000 2.683282e+001 4.460000e+001
      endloop
   endfacet
   facet normal -0.000000e+000 -0.000000e+000 -1.000000e+000
      outer loop
         vertex 1.011174e+000 2.698106e+001 4.460000e+001
         vertex 5.000000e+000 2.653300e+001 4.460000e+001
         vertex 5.000000e+000 1.937213e+001 4.460000e+001
      endloop
   endfacet
   facet normal 0.000000e+000 -0.000000e+000 -1.000000e+000
      outer loop
         vertex -3.000000e+000 1.937213e+001 4.460000e+001
         vertex 1.011174e+000 2.698106e+001 4.460000e+001
         vertex 5.000000e+000 1.937213e+001 4.460000e+001
      endloop
   endfacet
   facet normal 0.000000e+000 0.000000e+000 -1.000000e+000
      outer loop
         vertex 2.700000e+001 1.529695e-014 4.460000e+001
         vertex 2.538000e+001 3.000000e+000 4.460000e+001
         vertex 2.683282e+001 3.000000e+000 4.460000e+001
      endloop
   endfacet
   facet normal 0.000000e+000 0.000000e+000 -1.000000e+000
      outer loop
         vertex 2.700000e+001 1.529695e-014 4.460000e+001
         vertex 2.683282e+001 -3.000000e+000 4.460000e+001
         vertex 2.538000e+001 -3.000000e+000 4.460000e+001
      endloop
   endfacet
   facet normal -0.000000e+000 0.000000e+000 -1.000000e+000
      outer loop
         vertex 2.538000e+001 3.000000e+000 4.460000e+001
         vertex 2.700000e+001 1.529695e-014 4.460000e+001
         vertex 2.538000e+001 -3.000000e+000 4.460000e+001
      endloop
   endfacet
   facet normal 0.000000e+000 -0.000000e+000 -1.000000e+000
      outer loop
         vertex 8.011512e-015 -2.700000e+001 4.460000e+001
         vertex 3.000000e+000 -1.902787e+001 4.460000e+001
         vertex 3.000000e+000 -2.683282e+001 4.460000e+001
      endloop
   endfacet
   facet normal 0.000000e+000 0.000000e+000 -1.000000e+000
      outer loop
         vertex 8.011512e-015 -2.700000e+001 4.460000e+001
         vertex -3.000000e+000 -2.683282e+001 4.460000e+001
         vertex -3.000000e+000 -1.902787e+001 4.460000e+001
      endloop
   endfacet
   facet normal 0.000000e+000 0.000000e+000 -1.000000e+000
      outer loop
         vertex 3.000000e+000 -1.902787e+001 4.460000e+001
         vertex 8.011512e-015 -2.700000e+001 4.460000e+001
         vertex -3.000000e+000 -1.902787e+001 4.460000e+001
      endloop
   endfacet
   facet normal -5.564194e-002 -9.984508e-001 0.000000e+000
      outer loop
         vertex -3.000000e+000 -2.683282e+001 4.610000e+001
         vertex -3.000000e+000 -2.683282e+001 4.460000e+001
         vertex 8.011512e-015 -2.700000e+001 4.460000e+001
      endloop
   endfacet
   facet normal 5.564194e-002 -9.984508e-001 0.000000e+000
      outer loop
         vertex 3.000000e+000 -2.683282e+001 4.460000e+001
         vertex 3.000000e+000 -2.683282e+001 4.610000e+001
         vertex 8.011512e-015 -2.700000e+001 4.460000e+001
      endloop
   endfacet
   facet normal -5.564194e-002 -9.984508e-001 3.807238e-018
      outer loop
         vertex -3.000000e+000 -2.683282e+001 4.610000e+001
         vertex 8.011512e-015 -2.700000e+001 4.460000e+001
         vertex 8.114148e-015 -2.700000e+001 4.610000e+001
      endloop
   endfacet
   facet normal 5.564194e-002 -9.984508e-001 -3.807238e-018
      outer loop
         vertex 3.000000e+000 -2.683282e+001 4.610000e+001
         vertex 8.114148e-015 -2.700000e+001 4.610000e+001
         vertex 8.011512e-015 -2.700000e+001 4.460000e+001
      endloop
   endfacet
   facet normal 9.984508e-001 -5.564194e-002 0.000000e+000
      outer loop
         vertex 2.683282e+001 -3.000000e+000 4.610000e+001
         vertex 2.683282e+001 -3.000000e+000 4.460000e+001
         vertex 2.700000e+001 3.306546e-015 4.610000e+001
      endloop
   endfacet
   facet normal 9.984508e-001 5.564194e-002 -0.000000e+000
      outer loop
         vertex 2.700000e+001 1.529695e-014 4.460000e+001
         vertex 2.683282e+001 3.000000e+000 4.460000e+001
         vertex 2.683282e+001 3.000000e+000 4.610000e+001
      endloop
   endfacet
   facet normal 9.984508e-001 -5.564194e-002 -4.434012e-016
      outer loop
         vertex 2.700000e+001 3.306546e-015 4.610000e+001
         vertex 2.683282e+001 -3.000000e+000 4.460000e+001
         vertex 2.700000e+001 1.529695e-014 4.460000e+001
      endloop
   endfacet
   facet normal 9.984508e-001 5.564194e-002 4.447797e-016
      outer loop
         vertex 2.683282e+001 3.000000e+000 4.610000e+001
         vertex 2.700000e+001 3.306546e-015 4.610000e+001
         vertex 2.700000e+001 1.529695e-014 4.460000e+001
      endloop
   endfacet
   facet normal 1.116265e-001 9.937502e-001 -0.000000e+000
      outer loop
         vertex 5.000000e+000 2.653300e+001 4.610000e+001
         vertex 5.000000e+000 2.653300e+001 4.460000e+001
         vertex 1.011174e+000 2.698106e+001 4.610000e+001
      endloop
   endfacet
   facet normal -3.693228e-002 9.993178e-001 0.000000e+000
      outer loop
         vertex 1.011174e+000 2.698106e+001 4.460000e+001
         vertex -3.000000e+000 2.683282e+001 4.460000e+001
         vertex 1.011174e+000 2.698106e+001 4.610000e+001
      endloop
   endfacet
   facet normal -3.693228e-002 9.993178e-001 0.000000e+000
      outer loop
         vertex -3.000000e+000 2.683282e+001 4.610000e+001
         vertex 1.011174e+000 2.698106e+001 4.610000e+001
         vertex -3.000000e+000 2.683282e+001 4.460000e+001
      endloop
   endfacet
   facet normal 1.116265e-001 9.937502e-001 -0.000000e+000
      outer loop
         vertex 5.000000e+000 2.653300e+001 4.460000e+001
         vertex 1.011174e+000 2.698106e+001 4.460000e+001
         vertex 1.011174e+000 2.698106e+001 4.610000e+001
      endloop
   endfacet
   facet normal -9.984508e-001 5.564194e-002 0.000000e+000
      outer loop
         vertex -2.683282e+001 3.000000e+000 4.610000e+001
         vertex -2.683282e+001 3.000000e+000 4.460000e+001
         vertex -2.700000e+001 -3.089442e-016 4.610000e+001
      endloop
   endfacet
   facet normal -9.984508e-001 -5.564194e-002 0.000000e+000
      outer loop
         vertex -2.700000e+001 -7.053549e-015 4.460000e+001
         vertex -2.683282e+001 -3.000000e+000 4.460000e+001
         vertex -2.683282e+001 -3.000000e+000 4.610000e+001
      endloop
   endfacet
   facet normal -9.984508e-001 5.564194e-002 -2.463340e-016
      outer loop
         vertex -2.700000e+001 -3.089442e-016 4.610000e+001
         vertex -2.683282e+001 3.000000e+000 4.460000e+001
         vertex -2.700000e+001 -7.053549e-015 4.460000e+001
      endloop
   endfacet
   facet normal -9.984508e-001 -5.564194e-002 2.501886e-016
      outer loop
         vertex -2.683282e+001 -3.000000e+000 4.610000e+001
         vertex -2.700000e+001 -3.089442e-016 4.610000e+001
         vertex -2.700000e+001 -7.053549e-015 4.460000e+001
      endloop
   endfacet
   facet normal 1.000000e+000 0.000000e+000 0.000000e+000
      outer loop
         vertex -2.502000e+001 -3.000000e+000 4.610000e+001
         vertex -2.502000e+001 -3.000000e+000 4.460000e+001
         vertex -2.502000e+001 3.000000e+000 4.460000e+001
      endloop
   endfacet
   facet normal 1.000000e+000 -0.000000e+000 0.000000e+000
      outer loop
         vertex -2.502000e+001 -1.682787e+001 5.260000e+001
         vertex -2.502000e+001 -1.902787e+001 5.260000e+001
         vertex -2.502000e+001 -1.902787e+001 4.610000e+001
      endloop
   endfacet
   facet normal 1.000000e+000 0.000000e+000 0.000000e+000
      outer loop
         vertex -2.502000e+001 -1.902787e+001 5.580000e+001
         vertex -2.502000e+001 -1.902787e+001 5.460000e+001
         vertex -2.502000e+001 -1.682787e+001 5.460000e+001
      endloop
   endfacet
   facet normal 1.000000e+000 0.000000e+000 -0.000000e+000
      outer loop
         vertex -2.502000e+001 1.717213e+001 5.460000e+001
         vertex -2.502000e+001 1.937213e+001 5.460000e+001
         vertex -2.502000e+001 1.937213e+001 5.580000e+001
      endloop
   endfacet
   facet normal 1.000000e+000 0.000000e+000 0.000000e+000
      outer loop
         vertex -2.502000e+001 1.937213e+001 4.610000e+001
         vertex -2.502000e+001 1.937213e+001 5.260000e+001
         vertex -2.502000e+001 1.717213e+001 5.260000e+001
      endloop
   endfacet
   facet normal 1.000000e+000 0.000000e+000 -0.000000e+000
      outer loop
         vertex -2.502000e+001 -3.000000e+000 4.610000e+001
         vertex -2.502000e+001 3.000000e+000 4.460000e+001
         vertex -2.502000e+001 3.000000e+000 4.610000e+001
      endloop
   endfacet
   facet normal 1.000000e+000 -0.000000e+000 0.000000e+000
      outer loop
         vertex -2.502000e+001 1.937213e+001 5.580000e+001
         vertex -2.502000e+001 -1.902787e+001 5.580000e+001
         vertex -2.502000e+001 -1.682787e+001 5.460000e+001
      endloop
   endfacet
   facet normal 1.000000e+000 0.000000e+000 -0.000000e+000
      outer loop
         vertex -2.502000e+001 -1.682787e+001 5.460000e+001
         vertex -2.502000e+001 -3.000000e+000 4.610000e+001
         vertex -2.502000e+001 3.000000e+000 4.610000e+001
      endloop
   endfacet
   facet normal 1.000000e+000 -0.000000e+000 0.000000e+000
      outer loop
         vertex -2.502000e+001 1.717213e+001 5.460000e+001
         vertex -2.502000e+001 -1.682787e+001 5.460000e+001
         vertex -2.502000e+001 3.000000e+000 4.610000e+001
      endloop
   endfacet
   facet normal 1.000000e+000 0.000000e+000 0.000000e+000
      outer loop
         vertex -2.502000e+001 1.717213e+001 5.260000e+001
         vertex -2.502000e+001 1.717213e+001 5.460000e+001
         vertex -2.502000e+001 3.000000e+000 4.610000e+001
      endloop
   endfacet
   facet normal 1.000000e+000 0.000000e+000 0.000000e+000
      outer loop
         vertex -2.502000e+001 -1.682787e+001 5.260000e+001
         vertex -2.502000e+001 -1.902787e+001 4.610000e+001
         vertex -2.502000e+001 -3.000000e+000 4.610000e+001
      endloop
   endfacet
   facet normal 1.000000e+000 0.000000e+000 0.000000e+000
      outer loop
         vertex -2.502000e+001 1.717213e+001 5.260000e+001
         vertex -2.502000e+001 3.000000e+000 4.610000e+001
         vertex -2.502000e+001 1.937213e+001 4.610000e+001
      endloop
   endfacet
   facet normal 1.000000e+000 0.000000e+000 0.000000e+000
      outer loop
         vertex -2.502000e+001 1.717213e+001 5.460000e+001
         vertex -2.502000e+001 1.937213e+001 5.580000e+001
         vertex -2.502000e+001 -1.682787e+001 5.460000e+001
      endloop
   endfacet
   facet normal 1.000000e+000 0.000000e+000 0.000000e+000
      outer loop
         vertex -2.502000e+001 -3.000000e+000 4.610000e+001
         vertex -2.502000e+001 -1.682787e+001 5.460000e+001
         vertex -2.502000e+001 -1.682787e+001 5.260000e+001
      endloop
   endfacet
   facet normal 0.000000e+000 1.000000e+000 -0.000000e+000
      outer loop
         vertex 2.538000e+001 -1.902787e+001 5.260000e+001
         vertex 2.538000e+001 -1.902787e+001 4.610000e+001
         vertex 3.000000e+000 -1.902787e+001 4.610000e+001
      endloop
   endfacet
   facet normal 0.000000e+000 1.000000e+000 0.000000e+000
      outer loop
         vertex -3.000000e+000 -1.902787e+001 4.610000e+001
         vertex -2.502000e+001 -1.902787e+001 4.610000e+001
         vertex -2.502000e+001 -1.902787e+001 5.260000e+001
      endloop
   endfacet
   facet normal 0.000000e+000 1.000000e+000 0.000000e+000
      outer loop
         vertex -3.000000e+000 -1.902787e+001 4.610000e+001
         vertex 3.000000e+000 -1.902787e+001 4.460000e+001
         vertex -3.000000e+000 -1.902787e+001 4.460000e+001
      endloop
   endfacet
   facet normal 0.000000e+000 1.000000e+000 -0.000000e+000
      outer loop
         vertex 3.000000e+000 -1.902787e+001 4.610000e+001
         vertex -3.000000e+000 -1.902787e+001 4.610000e+001
         vertex -2.502000e+001 -1.902787e+001 5.260000e+001
      endloop
   endfacet
   facet normal 0.000000e+000 1.000000e+000 -0.000000e+000
      outer loop
         vertex 2.538000e+001 -1.902787e+001 5.260000e+001
         vertex 3.000000e+000 -1.902787e+001 4.610000e+001
         vertex -2.502000e+001 -1.902787e+001 5.260000e+001
      endloop
   endfacet
   facet normal 0.000000e+000 1.000000e+000 0.000000e+000
      outer loop
         vertex -3.000000e+000 -1.902787e+001 4.610000e+001
         vertex 3.000000e+000 -1.902787e+001 4.610000e+001
         vertex 3.000000e+000 -1.902787e+001 4.460000e+001
      endloop
   endfacet
   facet normal -1.000000e+000 0.000000e+000 0.000000e+000
      outer loop
         vertex 2.538000e+001 3.000000e+000 4.610000e+001
         vertex 2.538000e+001 3.000000e+000 4.460000e+001
         vertex 2.538000e+001 -3.000000e+000 4.460000e+001
      endloop
   endfacet
   facet normal -1.000000e+000 -0.000000e+000 -0.000000e+000
      outer loop
         vertex 2.538000e+001 1.717213e+001 5.260000e+001
         vertex 2.538000e+001 1.937213e+001 5.260000e+001
         vertex 2.538000e+001 1.937213e+001 4.610000e+001
      endloop
   endfacet
   facet normal -1.000000e+000 0.000000e+000 0.000000e+000
      outer loop
         vertex 2.538000e+001 1.937213e+001 5.580000e+001
         vertex 2.538000e+001 1.937213e+001 5.460000e+001
         vertex 2.538000e+001 1.717213e+001 5.460000e+001
      endloop
   endfacet
   facet normal -1.000000e+000 0.000000e+000 0.000000e+000
      outer loop
         vertex 2.538000e+001 -1.682787e+001 5.460000e+001
         vertex 2.538000e+001 -1.902787e+001 5.460000e+001
         vertex 2.538000e+001 -1.902787e+001 5.580000e+001
      endloop
   endfacet
   facet normal -1.000000e+000 0.000000e+000 0.000000e+000
      outer loop
         vertex 2.538000e+001 -1.902787e+001 4.610000e+001
         vertex 2.538000e+001 -1.902787e+001 5.260000e+001
         vertex 2.538000e+001 -1.682787e+001 5.260000e+001
      endloop
   endfacet
   facet normal -1.000000e+000 0.000000e+000 0.000000e+000
      outer loop
         vertex 2.538000e+001 3.000000e+000 4.610000e+001
         vertex 2.538000e+001 -3.000000e+000 4.460000e+001
         vertex 2.538000e+001 -3.000000e+000 4.610000e+001
      endloop
   endfacet
   facet normal -1.000000e+000 0.000000e+000 0.000000e+000
      outer loop
         vertex 2.538000e+001 -1.682787e+001 5.460000e+001
         vertex 2.538000e+001 1.937213e+001 5.580000e+001
         vertex 2.538000e+001 1.717213e+001 5.460000e+001
      endloop
   endfacet
   facet normal -1.000000e+000 0.000000e+000 0.000000e+000
      outer loop
         vertex 2.538000e+001 -3.000000e+000 4.610000e+001
         vertex 2.538000e+001 -1.902787e+001 4.610000e+001
         vertex 2.538000e+001 -1.682787e+001 5.260000e+001
      endloop
   endfacet
   facet normal -1.000000e+000 -0.000000e+000 0.000000e+000
      outer loop
         vertex 2.538000e+001 -1.902787e+001 5.580000e+001
         vertex 2.538000e+001 1.937213e+001 5.580000e+001
         vertex 2.538000e+001 -1.682787e+001 5.460000e+001
      endloop
   endfacet
   facet normal -1.000000e+000 0.000000e+000 0.000000e+000
      outer loop
         vertex 2.538000e+001 1.717213e+001 5.260000e+001
         vertex 2.538000e+001 1.937213e+001 4.610000e+001
         vertex 2.538000e+001 3.000000e+000 4.610000e+001
      endloop
   endfacet
   facet normal -1.000000e+000 0.000000e+000 0.000000e+000
      outer loop
         vertex 2.538000e+001 -3.000000e+000 4.610000e+001
         vertex 2.538000e+001 -1.682787e+001 5.260000e+001
         vertex 2.538000e+001 -1.682787e+001 5.460000e+001
      endloop
   endfacet
   facet normal -1.000000e+000 0.000000e+000 0.000000e+000
      outer loop
         vertex 2.538000e+001 3.000000e+000 4.610000e+001
         vertex 2.538000e+001 -1.682787e+001 5.460000e+001
         vertex 2.538000e+001 1.717213e+001 5.460000e+001
      endloop
   endfacet
   facet normal -1.000000e+000 0.000000e+000 0.000000e+000
      outer loop
         vertex 2.538000e+001 3.000000e+000 4.610000e+001
         vertex 2.538000e+001 -3.000000e+000 4.610000e+001
         vertex 2.538000e+001 -1.682787e+001 5.460000e+001
      endloop
   endfacet
   facet normal -1.000000e+000 0.000000e+000 -0.000000e+000
      outer loop
         vertex 2.538000e+001 3.000000e+000 4.610000e+001
         vertex 2.538000e+001 1.717213e+001 5.460000e+001
         vertex 2.538000e+001 1.717213e+001 5.260000e+001
      endloop
   endfacet
   facet normal 0.000000e+000 -1.000000e+000 0.000000e+000
      outer loop
         vertex -3.000000e+000 1.937213e+001 4.610000e+001
         vertex -3.000000e+000 1.937213e+001 4.460000e+001
         vertex 5.000000e+000 1.937213e+001 4.460000e+001
      endloop
   endfacet
   facet normal 0.000000e+000 -1.000000e+000 0.000000e+000
      outer loop
         vertex -3.000000e+000 1.937213e+001 4.610000e+001
         vertex -2.502000e+001 1.937213e+001 5.260000e+001
         vertex -2.502000e+001 1.937213e+001 4.610000e+001
      endloop
   endfacet
   facet normal 0.000000e+000 -1.000000e+000 0.000000e+000
      outer loop
         vertex 2.538000e+001 1.937213e+001 5.260000e+001
         vertex 5.000000e+000 1.937213e+001 4.610000e+001
         vertex 2.538000e+001 1.937213e+001 4.610000e+001
      endloop
   endfacet
   facet normal 0.000000e+000 -1.000000e+000 0.000000e+000
      outer loop
         vertex 2.538000e+001 1.937213e+001 5.260000e+001
         vertex -2.502000e+001 1.937213e+001 5.260000e+001
         vertex -3.000000e+000 1.937213e+001 4.610000e+001
      endloop
   endfacet
   facet normal 0.000000e+000 -1.000000e+000 0.000000e+000
      outer loop
         vertex -3.000000e+000 1.937213e+001 4.610000e+001
         vertex 5.000000e+000 1.937213e+001 4.460000e+001
         vertex 5.000000e+000 1.937213e+001 4.610000e+001
      endloop
   endfacet
   facet normal 0.000000e+000 -1.000000e+000 0.000000e+000
      outer loop
         vertex 5.000000e+000 1.937213e+001 4.610000e+001
         vertex 2.538000e+001 1.937213e+001 5.260000e+001
         vertex -3.000000e+000 1.937213e+001 4.610000e+001
      endloop
   endfacet
   facet normal -7.071068e-001 0.000000e+000 7.071068e-001
      outer loop
         vertex -2.700000e+001 2.700000e+001 5.580000e+001
         vertex -3.100000e+001 3.100000e+001 5.180000e+001
         vertex -3.100000e+001 -3.100000e+001 5.180000e+001
      endloop
   endfacet
   facet normal -7.071068e-001 0.000000e+000 7.071068e-001
      outer loop
         vertex -2.700000e+001 -2.700000e+001 5.580000e+001
         vertex -2.700000e+001 2.700000e+001 5.580000e+001
         vertex -3.100000e+001 -3.100000e+001 5.180000e+001
      endloop
   endfacet
   facet normal 0.000000e+000 7.071068e-001 7.071068e-001
      outer loop
         vertex 2.700000e+001 2.700000e+001 5.580000e+001
         vertex 3.100000e+001 3.100000e+001 5.180000e+001
         vertex -2.700000e+001 2.700000e+001 5.580000e+001
      endloop
   endfacet
   facet normal 0.000000e+000 7.071068e-001 7.071068e-001
      outer loop
         vertex -3.100000e+001 3.100000e+001 5.180000e+001
         vertex -2.700000e+001 2.700000e+001 5.580000e+001
         vertex 3.100000e+001 3.100000e+001 5.180000e+001
      endloop
   endfacet
   facet normal 7.071068e-001 -0.000000e+000 7.071068e-001
      outer loop
         vertex 2.700000e+001 -2.700000e+001 5.580000e+001
         vertex 3.100000e+001 -3.100000e+001 5.180000e+001
         vertex 3.100000e+001 3.100000e+001 5.180000e+001
      endloop
   endfacet
   facet normal 7.071068e-001 -0.000000e+000 7.071068e-001
      outer loop
         vertex 2.700000e+001 2.700000e+001 5.580000e+001
         vertex 2.700000e+001 -2.700000e+001 5.580000e+001
         vertex 3.100000e+001 3.100000e+001 5.180000e+001
      endloop
   endfacet
   facet normal 0.000000e+000 -7.071068e-001 7.071068e-001
      outer loop
         vertex -2.700000e+001 -2.700000e+001 5.580000e+001
         vertex -3.100000e+001 -3.100000e+001 5.180000e+001
         vertex 2.700000e+001 -2.700000e+001 5.580000e+001
      endloop
   endfacet
   facet normal 0.000000e+000 -7.071068e-001 7.071068e-001
      outer loop
         vertex 3.100000e+001 -3.100000e+001 5.180000e+001
         vertex 2.700000e+001 -2.700000e+001 5.580000e+001
         vertex -3.100000e+001 -3.100000e+001 5.180000e+001
      endloop
   endfacet
   facet normal 0.000000e+000 0.000000e+000 -1.000000e+000
      outer loop
         vertex 2.538000e+001 1.717213e+001 5.260000e+001
         vertex -2.502000e+001 1.937213e+001 5.260000e+001
         vertex 2.538000e+001 1.937213e+001 5.260000e+001
      endloop
   endfacet
   facet normal 0.000000e+000 0.000000e+000 -1.000000e+000
      outer loop
         vertex -2.502000e+001 1.937213e+001 5.260000e+001
         vertex 2.538000e+001 1.717213e+001 5.260000e+001
         vertex -2.502000e+001 1.717213e+001 5.260000e+001
      endloop
   endfacet
   facet normal 0.000000e+000 -1.000000e+000 0.000000e+000
      outer loop
         vertex -2.502000e+001 1.717213e+001 5.260000e+001
         vertex 2.538000e+001 1.717213e+001 5.260000e+001
         vertex 2.538000e+001 1.717213e+001 5.460000e+001
      endloop
   endfacet
   facet normal -0.000000e+000 -1.000000e+000 0.000000e+000
      outer loop
         vertex -2.502000e+001 1.717213e+001 5.260000e+001
         vertex 2.538000e+001 1.717213e+001 5.460000e+001
         vertex -2.502000e+001 1.717213e+001 5.460000e+001
      endloop
   endfacet
   facet normal -0.000000e+000 0.000000e+000 1.000000e+000
      outer loop
         vertex 2.538000e+001 1.937213e+001 5.460000e+001
         vertex -2.502000e+001 1.937213e+001 5.460000e+001
         vertex 2.538000e+001 1.717213e+001 5.460000e+001
      endloop
   endfacet
   facet normal 0.000000e+000 0.000000e+000 1.000000e+000
      outer loop
         vertex -2.502000e+001 1.717213e+001 5.460000e+001
         vertex 2.538000e+001 1.717213e+001 5.460000e+001
         vertex -2.502000e+001 1.937213e+001 5.460000e+001
      endloop
   endfacet
   facet normal 0.000000e+000 -1.000000e+000 0.000000e+000
      outer loop
         vertex 2.538000e+001 1.937213e+001 5.460000e+001
         vertex -2.502000e+001 1.937213e+001 5.580000e+001
         vertex -2.502000e+001 1.937213e+001 5.460000e+001
      endloop
   endfacet
   facet normal 0.000000e+000 -1.000000e+000 0.000000e+000
      outer loop
         vertex -2.502000e+001 1.937213e+001 5.580000e+001
         vertex 2.538000e+001 1.937213e+001 5.460000e+001
         vertex 2.538000e+001 1.937213e+001 5.580000e+001
      endloop
   endfacet
   facet normal 0.000000e+000 0.000000e+000 1.000000e+000
      outer loop
         vertex 2.700000e+001 -2.700000e+001 5.580000e+001
         vertex 2.700000e+001 2.700000e+001 5.580000e+001
         vertex 2.538000e+001 -1.902787e+001 5.580000e+001
      endloop
   endfacet
   facet normal 0.000000e+000 0.000000e+000 1.000000e+000
      outer loop
         vertex -2.700000e+001 2.700000e+001 5.580000e+001
         vertex -2.700000e+001 -2.700000e+001 5.580000e+001
         vertex -2.502000e+001 -1.902787e+001 5.580000e+001
      endloop
   endfacet
   facet normal 0.000000e+000 0.000000e+000 1.000000e+000
      outer loop
         vertex 2.538000e+001 1.937213e+001 5.580000e+001
         vertex 2.538000e+001 -1.902787e+001 5.580000e+001
         vertex 2.700000e+001 2.700000e+001 5.580000e+001
      endloop
   endfacet
   facet normal 0.000000e+000 0.000000e+000 1.000000e+000
      outer loop
         vertex -2.502000e+001 -1.902787e+001 5.580000e+001
         vertex -2.502000e+001 1.937213e+001 5.580000e+001
         vertex -2.700000e+001 2.700000e+001 5.580000e+001
      endloop
   endfacet
   facet normal 0.000000e+000 0.000000e+000 1.000000e+000
      outer loop
         vertex 2.700000e+001 -2.700000e+001 5.580000e+001
         vertex 2.538000e+001 -1.902787e+001 5.580000e+001
         vertex -2.502000e+001 -1.902787e+001 5.580000e+001
      endloop
   endfacet
   facet normal 0.000000e+000 -0.000000e+000 1.000000e+000
      outer loop
         vertex -2.700000e+001 2.700000e+001 5.580000e+001
         vertex -2.502000e+001 1.937213e+001 5.580000e+001
         vertex 2.700000e+001 2.700000e+001 5.580000e+001
      endloop
   endfacet
   facet normal 0.000000e+000 0.000000e+000 1.000000e+000
      outer loop
         vertex -2.700000e+001 -2.700000e+001 5.580000e+001
         vertex 2.700000e+001 -2.700000e+001 5.580000e+001
         vertex -2.502000e+001 -1.902787e+001 5.580000e+001
      endloop
   endfacet
   facet normal 0.000000e+000 0.000000e+000 1.000000e+000
      outer loop
         vertex 2.538000e+001 1.937213e+001 5.580000e+001
         vertex 2.700000e+001 2.700000e+001 5.580000e+001
         vertex -2.502000e+001 1.937213e+001 5.580000e+001
      endloop
   endfacet
   facet normal 0.000000e+000 1.000000e+000 0.000000e+000
      outer loop
         vertex -2.502000e+001 -1.902787e+001 5.460000e+001
         vertex 2.538000e+001 -1.902787e+001 5.580000e+001
         vertex 2.538000e+001 -1.902787e+001 5.460000e+001
      endloop
   endfacet
   facet normal 0.000000e+000 1.000000e+000 0.000000e+000
      outer loop
         vertex 2.538000e+001 -1.902787e+001 5.580000e+001
         vertex -2.502000e+001 -1.902787e+001 5.460000e+001
         vertex -2.502000e+001 -1.902787e+001 5.580000e+001
      endloop
   endfacet
   facet normal -0.000000e+000 0.000000e+000 1.000000e+000
      outer loop
         vertex 2.538000e+001 -1.682787e+001 5.460000e+001
         vertex -2.502000e+001 -1.682787e+001 5.460000e+001
         vertex -2.502000e+001 -1.902787e+001 5.460000e+001
      endloop
   endfacet
   facet normal 0.000000e+000 0.000000e+000 1.000000e+000
      outer loop
         vertex 2.538000e+001 -1.902787e+001 5.460000e+001
         vertex 2.538000e+001 -1.682787e+001 5.460000e+001
         vertex -2.502000e+001 -1.902787e+001 5.460000e+001
      endloop
   endfacet
   facet normal 0.000000e+000 1.000000e+000 0.000000e+000
      outer loop
         vertex 2.538000e+001 -1.682787e+001 5.260000e+001
         vertex -2.502000e+001 -1.682787e+001 5.260000e+001
         vertex -2.502000e+001 -1.682787e+001 5.460000e+001
      endloop
   endfacet
   facet normal -0.000000e+000 1.000000e+000 0.000000e+000
      outer loop
         vertex 2.538000e+001 -1.682787e+001 5.260000e+001
         vertex -2.502000e+001 -1.682787e+001 5.460000e+001
         vertex 2.538000e+001 -1.682787e+001 5.460000e+001
      endloop
   endfacet
   facet normal 0.000000e+000 0.000000e+000 -1.000000e+000
      outer loop
         vertex -2.502000e+001 -1.902787e+001 5.260000e+001
         vertex -2.502000e+001 -1.682787e+001 5.260000e+001
         vertex 2.538000e+001 -1.682787e+001 5.260000e+001
      endloop
   endfacet
   facet normal 0.000000e+000 -0.000000e+000 -1.000000e+000
      outer loop
         vertex -2.502000e+001 -1.902787e+001 5.260000e+001
         vertex 2.538000e+001 -1.682787e+001 5.260000e+001
         vertex 2.538000e+001 -1.902787e+001 5.260000e+001
      endloop
   endfacet
endsolid
